<svg width="44" height="38" viewBox="0 0 44 38" fill="none" xmlns="http://www.w3.org/2000/svg">
<g clip-path="url(#clip0)">
<g clip-path="url(#clip1)">
<path d="M37.27 19.3555C37.27 17.7987 37.1436 16.6626 36.87 15.4845H19.0801V22.5113H29.5224C29.3119 24.2575 28.1751 26.8874 25.6486 28.6545L25.6132 28.8898L31.2381 33.2442L31.6278 33.2831C35.2067 29.98 37.27 25.1201 37.27 19.3555Z" fill="#4285F4"/>
<path d="M19.0801 37.8694C24.196 37.8694 28.4908 36.1862 31.6278 33.283L25.6487 28.6544C24.0487 29.7694 21.9012 30.5479 19.0801 30.5479C14.0695 30.5479 9.8168 27.2449 8.30082 22.6795L8.07862 22.6984L2.22981 27.2217L2.15332 27.4342C5.26916 33.6195 11.6694 37.8694 19.0801 37.8694Z" fill="#34A853"/>
<path d="M8.3004 22.6795C7.90039 21.5013 7.6689 20.2389 7.6689 18.9346C7.6689 17.6301 7.9004 16.3679 8.27935 15.1897L8.26876 14.9388L2.34666 10.3428L2.15289 10.4349C0.868706 13.0017 0.131836 15.884 0.131836 18.9346C0.131836 21.9852 0.868706 24.8674 2.15289 27.4341L8.3004 22.6795Z" fill="#FBBC05"/>
<path d="M19.0801 7.32129C22.6381 7.32129 25.0381 8.8571 26.4066 10.1405L31.7541 4.92294C28.4699 1.87235 24.196 -9.15527e-05 19.0801 -9.15527e-05C11.6694 -9.15527e-05 5.26916 4.24967 2.15332 10.435L8.27978 15.1898C9.8168 10.6244 14.0695 7.32129 19.0801 7.32129Z" fill="#EB4335"/>
</g>
</g>
<defs>
<clipPath id="clip0">
<rect width="43.5243" height="38" fill="white" transform="translate(0.131836)"/>
</clipPath>
<clipPath id="clip1">
<rect width="37.1556" height="38" fill="white" transform="translate(0.131836)"/>
</clipPath>
</defs>
</svg>
