<svg width="221" height="191" viewBox="0 0 221 191" fill="none" xmlns="http://www.w3.org/2000/svg">
<path d="M166.151 25.6515C130.99 -7.48201 82.0728 -8.83587 46.3854 23.4473C27.5201 40.5134 12.8946 66.6229 15.5556 106.378C16.496 120.439 19.1136 131.975 22.9325 141.419C38.4 179.702 101.929 178.228 105.457 178.222C107.743 178.22 110.029 178.282 112.315 178.41C120.321 178.859 128.285 180.09 136.131 182.091C147.318 184.941 161.559 186.374 174.283 180.975C176.445 180.062 178.545 178.945 180.566 177.635C187.558 173.092 195.386 168.751 199.962 157.976C203.401 149.889 205.907 139.749 207.112 127.119C211.501 81.124 189.572 47.7219 166.151 25.6515Z" fill="#F2F2F2"/>
<path d="M112.468 190.498C167.997 190.498 213.012 185.332 213.012 178.96C213.012 172.588 167.997 167.422 112.468 167.422C56.9397 167.422 11.9248 172.588 11.9248 178.96C11.9248 185.332 56.9397 190.498 112.468 190.498Z" fill="#3F3D56"/>
<path opacity="0.1" d="M107.556 184.376C159.202 184.376 201.07 181.951 201.07 178.96C201.07 175.969 159.202 173.544 107.556 173.544C55.9103 173.544 14.043 175.969 14.043 178.96C14.043 181.951 55.9103 184.376 107.556 184.376Z" fill="black"/>
<path d="M159.289 24.4316V37.3763H145.504V178.548H174.273V42.7499V37.3763V24.4316H159.289Z" fill="#A1616A"/>
<path d="M83.372 111.382V89.1559H65.791V111.382H59.1982V178.792H89.765V111.382H83.372Z" fill="#E67E7E"/>
<path d="M86.368 147.529H62.5938V179.037H86.368V147.529Z" fill="#3F3D56"/>
<path opacity="0.1" d="M66.3896 147.529H62.5938V179.037H66.3896V147.529Z" fill="black"/>
<path d="M135.315 17.3486V24.9201H100.152V17.3486H89.7637V179.037H145.504V17.3486H135.315Z" fill="#3F3D56"/>
<path opacity="0.1" d="M97.5562 17.3486H89.7646V179.037H97.5562V17.3486Z" fill="#FF6584"/>
<path d="M50.0073 63.5104V57.4043H44.813V63.5104H35.4229V179.037H59.1974V63.5104H50.0073Z" fill="#3F3D56"/>
<path opacity="0.1" d="M47.6105 57.4043H44.8135V63.5103H47.6105V57.4043Z" fill="black"/>
<path opacity="0.1" d="M38.2198 63.5103H35.4229V179.037H38.2198V63.5103Z" fill="black"/>
<path opacity="0.1" d="M143.107 79.6302H135.315V179.037H143.107V79.6302Z" fill="#FE8F8F"/>
<path opacity="0.1" d="M59.198 63.5103H52.0059V84.7593H59.198V63.5103Z" fill="black"/>
<path d="M109.543 37.865H98.3555V43.7268H109.543V37.865Z" fill="#FF6584"/>
<path d="M133.317 98.1926H122.129V104.054H133.317V98.1926Z" fill="#FF6584"/>
<path d="M109.543 140.446H98.3555V146.308H109.543V140.446Z" fill="#FF6584"/>
<path d="M53.0043 89.8884H41.8164V95.7502H53.0043V89.8884Z" fill="#FF6584"/>
<path d="M80.1742 150.949H68.9863V156.811H80.1742V150.949Z" fill="#FF6584"/>
<path opacity="0.1" d="M84.1705 116.511H64.9912V126.28H84.1705V116.511Z" fill="black"/>
<path opacity="0.1" d="M168.08 48.6116H148.9V58.3813H168.08V48.6116Z" fill="black"/>
<path opacity="0.1" d="M168.08 69.3721H148.9V79.1417H168.08V69.3721Z" fill="black"/>
<path opacity="0.1" d="M168.08 90.1326H148.9V99.9022H168.08V90.1326Z" fill="black"/>
<path opacity="0.1" d="M168.08 110.893H148.9V120.663H168.08V110.893Z" fill="black"/>
<path opacity="0.1" d="M168.08 131.654H148.9V141.423H168.08V131.654Z" fill="black"/>
<path opacity="0.1" d="M168.08 152.414H148.9V162.184H168.08V152.414Z" fill="black"/>
<path d="M180.866 92.8192V66.1969H166.881V92.8192H161.887V179.037H185.661V92.8192H180.866Z" fill="#3F3D56"/>
<path opacity="0.1" d="M171.276 66.197H166.881V92.8194H171.276V66.197Z" fill="black"/>
<path opacity="0.1" d="M166.281 92.8193H161.886V179.037H166.281V92.8193Z" fill="black"/>
<path opacity="0.1" d="M185.661 136.05H173.874V144.599H185.661V136.05Z" fill="black"/>
<path d="M185.46 123.349H174.272V129.211H185.46V123.349Z" fill="#FF6584"/>
<path d="M220.479 129.267C220.479 151.027 209.897 158.625 196.845 158.625C183.792 158.625 173.211 151.027 173.211 129.267C173.211 107.508 196.845 79.8257 196.845 79.8257C196.845 79.8257 220.479 107.508 220.479 129.267Z" fill="#8DD070"/>
<path d="M195.983 155.296L196.225 137.085L206.298 114.555L196.263 134.228L196.372 126.04L203.314 109.74L196.401 123.873L196.597 109.146L204.031 96.169L196.627 106.83L196.749 79.8254L195.981 115.575L196.044 114.1L188.486 99.9559L195.923 116.931L195.219 133.379L195.198 132.942L186.484 118.058L195.171 134.484L195.083 136.541L195.067 136.572L195.075 136.741L193.288 178.471H195.675L195.962 156.916L204.628 140.53L195.983 155.296Z" fill="#3F3D56"/>
<path d="M47.2676 129.503C47.2676 151.262 36.6864 158.86 23.6338 158.86C10.5812 158.86 0 151.262 0 129.503C0 107.743 23.6338 80.061 23.6338 80.061C23.6338 80.061 47.2676 107.743 47.2676 129.503Z" fill="#8DD070"/>
<path d="M22.7722 155.532L23.0142 137.321L33.0877 114.791L23.0523 134.464L23.1611 126.275L30.1034 109.976L23.1899 124.108V124.109L23.3856 109.382L30.8198 96.4046L23.4164 107.066L23.5387 80.061L22.77 115.81L22.8333 114.335L15.2748 100.191L22.712 117.166L22.0079 133.614L21.9869 133.178L13.2734 118.293L21.9605 134.72L21.8725 136.777L21.8567 136.808L21.8638 136.977L20.0771 178.706H22.4643L22.7507 157.152L31.4165 140.766L22.7722 155.532Z" fill="#3F3D56"/>
</svg>
