<svg width="395" height="307" viewBox="0 0 395 307" fill="none" xmlns="http://www.w3.org/2000/svg">
<path d="M261.282 262.876C262.163 263.053 263.055 263.172 263.952 263.231C288.558 263.231 313.163 263.231 337.764 263.231C338.431 263.182 339.092 263.08 339.743 262.926L348.283 263.217L348.434 263.387L348.636 263.281C349.557 264.61 351.435 266.18 351.161 267.204C350.837 268.44 348.758 269.336 347.319 270.153C346.815 270.451 345.974 270.203 345.283 270.203H97.6416C96.7206 270.203 95.5263 270.558 94.9363 270.117C93.6412 269.144 91.9216 267.857 91.7634 266.564C91.6338 265.548 93.4614 264.02 94.7348 263.21C95.5623 262.677 96.9653 263.018 98.1093 262.961L119.356 262.854L146.322 263.146L153.395 263.061C171.776 263.061 190.161 263.044 208.551 263.011C226.13 262.963 243.707 262.918 261.282 262.876Z" fill="#C50E29"/>
<path d="M260.398 91.8299C260.355 94.3954 260.319 96.9608 260.276 99.5262C259.916 98.1049 259.556 96.6836 259.182 95.2624C258.463 92.839 257.57 90.5863 254.059 90.0817C254.067 92.0197 253.951 93.9569 253.714 95.8806C253.282 98.2329 252.498 100.528 251.865 102.852C252.002 101.26 252.138 99.6684 252.325 97.4654C247.67 103.662 241.26 106.37 235 105.638L240.54 99.2775L240.986 99.1425L240.864 98.8867L240.569 99.3059C236.54 100.827 232.655 102.966 228.453 103.712C223.416 104.614 217.963 105.503 213.818 100.592C212.437 98.9506 210.437 99.2633 209.465 101.544C208.278 104.344 209.825 108.615 212.581 110.342L213.012 123.39C211.948 122.082 210.66 120.881 209.847 119.431C205.805 112.036 203.146 103.981 201.997 95.6532C200.882 88.3335 202.314 81.6676 207.602 76.1033L208.926 74.8525C218.279 68.7196 228.079 69.7856 238.015 73.1114C239.094 73.4668 240.173 73.8221 241.231 74.2201L241.95 74.6607C242.67 75.0302 243.389 75.4353 244.109 75.7622C251.505 79.1591 257.369 84.0839 260.398 91.8299Z" fill="#1F2859"/>
<path d="M115.061 66.6303C116.536 66.622 118.011 66.5128 119.471 66.3034C120.601 66.0689 121.63 65.4009 123.349 64.6476C122.594 67.8313 119.644 67.6323 118.039 68.9115C117.234 69.5511 116.039 69.7003 115.025 70.0699C113.305 72.3155 111.823 74.8028 109.816 76.7713C107.487 78.781 104.473 79.8448 101.382 79.7482C98.2909 79.6522 95.3518 78.4022 93.1552 76.2518C90.9593 74.1007 89.6699 71.2076 89.5469 68.1555C89.4232 65.1032 90.4751 62.1181 92.4903 59.801C93.5897 58.6322 94.9186 57.6966 96.3965 57.0511C97.8736 56.4057 99.4687 56.064 101.084 56.0467C102.699 56.0294 104.301 56.3369 105.792 56.9506C107.284 57.5643 108.633 58.4712 109.758 59.6162C111.816 61.6558 113.305 64.271 115.061 66.6303ZM106.484 73.1399L107.614 72.2018C110.19 69.1673 110.039 66.8151 106.988 62.3735C103.24 59.6589 99.1096 60.0639 94.7567 63.5816L94.0372 64.2212C91.4687 67.1988 91.7637 70.4039 94.9582 74.2343C98.4549 76.4159 102.419 76.0393 106.484 73.1399Z" fill="#F9F6EE"/>
<path d="M63.0198 222.639C64.502 222.383 65.7251 221.765 66.4446 222.127C68.0275 222.916 69.9917 223.918 70.6536 225.354C71.5674 227.351 70.0133 228.836 67.9915 229.774C66.7003 230.369 65.5468 231.221 64.6027 232.275C63.0538 234.045 60.9312 235.23 58.597 235.626C56.2628 236.023 53.8616 235.607 51.803 234.45C49.8647 233.381 47.7505 232.66 45.5578 232.318C37.7729 231.145 31.7796 225.275 31.0601 217.679C30.7144 213.92 31.7156 210.161 33.8891 207.057C36.0627 203.952 39.2706 201.701 42.9533 200.694C56.0624 196.899 65.8546 208.625 63.5954 219.214C63.3868 220.187 63.2645 221.182 63.0198 222.639ZM53.0765 224.65L48.443 227.23C49.551 231.174 49.9683 231.387 53.5585 229.845C59.4943 227.301 63.4515 220.5 62.5378 214.41C61.4873 207.452 56.0624 202.03 49.4718 201.426C42.0755 200.715 35.8015 204.453 33.3265 210.935C29.542 220.976 37.7945 232.162 47.817 230.57C47.817 227.962 46.2485 226.917 44.0253 225.702C41.9244 224.558 39.7084 222.298 39.0968 220.109C38.219 216.819 38.3773 213.138 38.7442 209.677C39.032 206.77 42.8525 205.626 45.7161 207.41C45.3132 207.687 44.9966 208.12 44.6441 208.12C39.8738 208.597 39.8666 208.589 39.8594 213.209C39.8594 214.118 39.8594 215.021 39.8594 215.93C39.8594 223.996 44.9391 227.244 52.3498 223.989L53.0765 224.65ZM51.9829 232.553C56.0696 235.914 61.1851 234.919 64.2142 230.193C63.286 228.345 62.437 226.64 61.8327 225.432L51.9829 232.553ZM69.9341 226.825L70.0133 225.517C68.9412 224.806 67.79 223.385 66.8259 223.463C65.6028 223.613 64.538 225.013 63.4084 225.865C64.3365 226.81 65.1927 228.417 66.2072 228.523C67.3727 228.651 68.6894 227.45 69.9341 226.825Z" fill="#21BDA4"/>
<path d="M36.4778 150.892C36.4778 155.866 33.7797 158.546 28.6497 158.567C23.7716 158.567 19.8576 155.156 19.9367 150.935C20.0087 146.912 24.5774 142.847 28.9591 142.911C33.3408 142.975 36.4634 146.394 36.4778 150.892ZM25.412 151.482C25.3769 151.909 25.4465 152.338 25.6149 152.733C25.7834 153.128 26.0457 153.476 26.3796 153.749C26.7135 154.023 27.1093 154.213 27.5332 154.303C27.9572 154.393 28.397 154.381 28.8152 154.268C30.1751 153.962 31.8227 152.207 32.1681 150.814C32.7005 148.682 30.9809 147.644 28.7865 147.659C26.592 147.673 25.4552 148.852 25.412 151.482Z" fill="#DFECF3"/>
<path d="M316.971 68.9329C319.187 72.9125 319.518 77.219 319.216 81.6322C317.093 89.0655 312.575 94.1183 304.74 95.9304C295.523 98.0624 284.342 91.8726 282.22 81.5469C282.474 78.42 282.728 75.2982 282.982 72.1805L284.018 69.3379V69.3735C286.938 65.0173 291.41 61.9048 296.545 60.6538C305.229 58.5716 311.92 61.8904 316.971 68.9329ZM288.774 89.165C288.774 89.4848 288.602 89.9681 288.774 90.0889C292.472 93.166 296.689 95.1274 301.596 94.9923C305.298 94.8801 308.861 93.576 311.743 91.2778C314.626 88.9803 316.669 85.815 317.561 82.2646C318.437 78.6531 318.093 74.8576 316.579 71.4578C315.065 68.0586 312.466 65.2422 309.179 63.4396C302.812 59.929 293.552 61.2721 288.148 66.5025C282.961 71.5267 281.867 80.1398 285.767 86.5641C286.407 87.6229 287.753 88.2838 288.774 89.1437V89.165Z" fill="#21BDA4"/>
<path d="M329.527 105.581C329.527 109.61 325.454 113.526 321.31 113.569C317.058 113.611 313.597 109.838 313.669 105.24C313.653 104.194 313.849 103.156 314.246 102.186C314.643 101.217 315.233 100.336 315.982 99.596C316.729 98.8555 317.62 98.2713 318.601 97.8769C319.582 97.4832 320.632 97.2878 321.691 97.302C325.721 97.3588 329.527 101.41 329.527 105.581ZM326.57 105.581C324.346 103.975 322.972 102.22 321.713 102.284C320.454 102.348 319.13 104.16 317.849 105.212C319.072 106.427 320.159 108.36 321.576 108.637C322.691 108.843 324.231 107.066 326.541 105.567L326.57 105.581Z" fill="#DFECF3"/>
<path d="M115.06 66.6304C113.305 64.271 111.816 61.6558 109.743 59.6021C108.618 58.4571 107.269 57.5501 105.778 56.9364C104.287 56.3228 102.684 56.0153 101.069 56.0325C99.454 56.0498 97.8589 56.3916 96.3817 57.037C94.9039 57.6824 93.575 58.618 92.4756 59.7868C90.4503 62.104 89.3912 65.0939 89.5128 68.1526C89.6337 71.2112 90.9251 74.1107 93.1275 76.2646C95.3291 78.4186 98.2769 79.6665 101.374 79.7568C104.472 79.847 107.489 78.7725 109.815 76.75C111.823 74.7815 113.305 72.2942 115.024 70.0486C115.471 76.7713 105.304 82.3783 99.6849 81.4758C96.8091 81.0821 94.1312 79.8072 92.0274 77.8316C89.9236 75.8553 88.4997 73.2778 87.9572 70.4608C86.878 65.273 89.3962 59.7584 94.2456 56.8021C99.0949 53.8458 104.988 54.3504 109.988 57.9534C113.053 60.1777 114.967 62.8213 115.06 66.6304Z" fill="#21BDA4"/>
<path d="M107.845 104.465C111.931 104.87 113.601 106.37 112.601 108.864C112.51 109.109 112.367 109.333 112.18 109.518C111.994 109.703 111.769 109.846 111.521 109.937C111.169 110.001 110.536 109.546 110.313 109.156C109.456 107.685 108.715 106.142 107.845 104.465Z" fill="#53AADF"/>
<path d="M139.207 59.6234L139.056 59.5026C139.703 58.7919 140.228 57.7899 141.013 57.5412C142.771 57.0839 144.56 56.749 146.366 56.5392L146.689 57.9605L139.207 59.6234Z" fill="#53AADF"/>
<path d="M151.223 56.2478H159.727C157.777 58.0884 153.914 58.2732 151.223 56.2478Z" fill="#7ABBE7"/>
<path d="M254.023 55.4305H255.419L261.024 58.863L260.448 59.7584C257.873 59.0762 255.232 58.4792 254.023 55.4305Z" fill="#53AADF"/>
<path d="M87.3888 114.137C84.2878 112.716 82.8704 109.66 84.0216 106.896C85.1943 108.758 86.4247 110.591 87.5039 112.503C87.7341 112.901 87.4463 113.583 87.3888 114.137Z" fill="#53AADF"/>
<path d="M247.353 74.1419L243.188 73.9927L250.332 69.6577L251.591 71.1927L247.353 74.1419Z" fill="#53AADF"/>
<path d="M248.526 45.7587L250.685 52.2753C247.728 51.2875 247.001 48.8642 246.67 46.1851L248.526 45.7587Z" fill="#53AADF"/>
<path d="M83.3748 105.503C83.1518 104.934 82.9287 104.366 82.7129 103.79L84.0655 102.71V102.745L90.1093 102.419L90.2891 103.421L83.3748 105.503Z" fill="#53AADF"/>
<path d="M97.6421 120.377L90.3896 117.698C92.4834 116.411 97.1313 118.138 97.6421 120.377Z" fill="#53AADF"/>
<path d="M50.0623 192.117L50.2782 190.596C50.1055 188.784 49.9256 186.964 49.7529 185.152L51.012 184.989C51.4917 187.286 51.9497 189.582 52.3863 191.875C52.3863 192.252 52.3359 192.628 52.3071 192.998L50.0623 192.117Z" fill="#53AADF"/>
<path d="M54.1924 130.006C55.3652 127.767 56.5451 125.536 57.8618 123.02C59.0705 125.131 57.4948 128.514 54.1924 130.006Z" fill="#53AADF"/>
<path d="M82.6554 102.689L82.0654 102.07L83.0583 95.0918L84.0368 95.2268V102.745V102.71L82.6554 102.689Z" fill="#53AADF"/>
<path d="M208.925 74.8739L207.594 76.1317C206.09 72.6282 203.443 74.5399 201.119 74.8099L199.68 73.8079C202.896 73.0475 206.306 70.6739 208.925 74.8739Z" fill="#8DC6ED"/>
<path d="M85.3818 90.3518C86.8877 88.3286 88.3943 86.3011 89.9002 84.2687L91.1665 85.1286L86.7417 91.1762L85.3818 90.3518Z" fill="#53AADF"/>
<path d="M48.0615 167.422V159.896H49.0544V167.393L48.0615 167.422Z" fill="#7ABBE7"/>
<path d="M102.492 103.875L95.1816 103.122L95.2608 102.12C97.8078 101.054 100.24 101.914 102.679 102.625L102.492 103.875Z" fill="#53AADF"/>
<path d="M171.447 59.3889L164.252 57.861L164.605 56.3473L171.986 58.0031L171.447 59.3889Z" fill="#53AADF"/>
<path d="M284.019 69.3379L276.284 67.071L276.788 65.7421C279.457 66.3177 282.27 66.5593 283.983 69.3735L284.019 69.3379Z" fill="#53AADF"/>
<path d="M53.8824 135.272L51.5584 142.378L50.1914 141.98L52.242 134.824L53.8824 135.272Z" fill="#53AADF"/>
<path d="M48.2777 177.413C48.1986 176.987 48.1266 176.561 48.0547 176.134C48.2058 174.905 48.3497 173.675 48.5008 172.446L49.4145 172.346C49.7095 173.412 50.0045 174.478 50.2923 175.551C50.2923 176.049 50.2923 176.546 50.3499 177.044C50.2347 178.081 50.1268 179.119 50.0117 180.156L49.2347 180.114L48.2777 177.413Z" fill="#53AADF"/>
<path d="M48.04 154.673L48.9682 147.232L50.364 147.367L49.6445 154.864L48.04 154.673Z" fill="#53AADF"/>
<path d="M199.708 73.8079L201.147 74.8099L204.097 77.7946L203.443 78.5479C201.579 77.4179 199.672 76.352 197.895 75.1012C197.557 74.8667 197.744 73.9074 197.687 73.282L199.032 73.5449L199.708 73.8079Z" fill="#3597D2"/>
<path d="M262.563 58.0955L264.895 51.1595L266.283 51.6001L264.053 58.5787L262.563 58.0955Z" fill="#53AADF"/>
<path d="M261.895 39.7537C263.262 41.7861 264.627 43.8186 265.989 45.851L264.823 46.6398L260.679 40.6491L261.895 39.7537Z" fill="#53AADF"/>
<path d="M256.39 39.1851L249.447 41.4166L248.986 40.1161L255.857 37.6501L256.39 39.1851Z" fill="#53AADF"/>
<path d="M111.404 117.535L104.46 119.766L104 118.466L110.871 116L111.404 117.535Z" fill="#53AADF"/>
<path d="M63.437 115.125L66.315 113.661L66.9625 114.088C66.243 115.217 65.4732 116.34 64.7321 117.463L61.8542 119.879L61.1562 119.389L63.437 115.125Z" fill="#53AADF"/>
<path d="M271.83 64.8822L265.06 61.997L265.657 60.5757L272.362 63.4183C272.182 63.8944 272.01 64.3919 271.83 64.8822Z" fill="#53AADF"/>
<path d="M254.037 66.8009L259.649 61.7625L260.613 62.7076L255.253 67.9948L254.037 66.8009Z" fill="#53AADF"/>
<path d="M129.429 61.1158L134.084 59.7869L134.494 60.6467L130.227 62.9137L127.666 63.7168L127.198 62.9279L129.429 61.1158Z" fill="#53AADF"/>
<path d="M151.604 89.0726L152.323 87.7366L153.877 90.4441L153.258 90.9132L151.604 89.0726Z" fill="#F8F7F0"/>
<path d="M241.935 74.1277C241.935 74.3125 241.935 74.4972 241.935 74.682L241.216 74.2414L241.935 74.1277Z" fill="#53AADF"/>
<path d="M348.636 263.281L348.427 263.388L348.283 263.217L348.477 263.075L348.636 263.281Z" fill="#3597D2"/>
<path d="M261.283 262.876C243.708 262.914 226.131 262.947 208.551 262.975C190.166 263.004 171.783 263.02 153.402 263.025C153.489 261.362 153.568 259.706 153.654 258.051C178.887 228.083 197.673 194.874 206.033 156.428L211.235 146.202C215.897 148.042 220.588 149.755 225.2 151.78C226.454 152.326 227.458 153.311 228.021 154.545C230.524 161.687 230.359 169.042 229.172 176.39C227.013 189.644 221.977 201.888 215.811 213.735C215.307 214.694 214.84 216.428 215.329 217.025C218.926 221.388 222.732 225.553 226.841 230.186C228.575 227.983 230.136 226.334 231.323 224.451C237.604 214.545 240.223 203.38 242.317 192.095C245.087 177.229 244.936 162.568 238.662 148.369C238.101 147.09 238.907 145.221 239.072 143.622L249.497 146.23C249.785 148.12 250.044 150.018 250.368 151.915C252.557 165.543 257.187 178.678 264.038 190.702C268.493 198.607 274.377 205.638 281.4 211.446C282.119 212.022 283.242 212.086 284.177 212.384C284.177 211.19 283.882 210.565 283.393 210.203C274.701 203.707 268.55 195.18 263.657 185.749C256.689 172.484 252.553 157.947 251.505 143.039C251.454 142.279 250.339 141.618 249.713 140.872C249.454 139.451 248.922 137.994 248.994 136.608C249.208 134.846 249.564 133.104 250.059 131.399L262.614 127.014C269.809 139.479 279.054 150.466 288.623 161.182C297.788 170.092 303.445 181.931 304.582 194.583C305.164 200.403 304.819 206.323 304.898 212.192C303.567 214.204 302.617 216.662 300.84 218.148C295.02 223.001 287.781 223.939 280.529 223.975C273.953 224.011 267.37 223.399 260.383 223.051C260.491 225.268 260.614 227.706 260.736 230.158C260.923 241.054 261.105 251.96 261.283 262.876ZM259.693 221.14C261.851 217.956 261.7 201.476 259.693 199.244V221.14Z" fill="#FF867F"/>
<path d="M295.077 158.368L295.523 147.758C298.883 149.62 300.027 153.727 298.401 156.25C297.926 156.961 297.538 157.771 297.106 158.538L295.077 158.368Z" fill="#FEFEFE"/>
<path d="M130.767 211.837L131.005 211.027C131.184 210.544 131.372 210.06 131.559 209.57C132.657 206.699 133.76 203.826 134.868 200.95C140.135 190.134 145.351 179.304 150.697 168.523C151.811 166.546 153.038 164.634 154.374 162.795L171.641 148.199L191.694 138.711L193.593 138.001H194.406L190.931 149.009C184.376 155.568 177.599 161.935 171.332 168.758C166.368 174.166 161.979 180.128 157.403 185.849C150.431 194.583 143.337 203.231 136.631 212.143C132.516 217.629 129.026 223.57 125.256 229.305C125.644 227.727 126.028 226.15 126.407 224.572C127.855 220.351 129.309 216.106 130.767 211.837Z" fill="#FF867F"/>
<path d="M114.486 157.295C111.356 153.102 107.212 157.039 104.183 156.449C106.039 152.235 107.78 148.263 109.528 144.297C111.183 148.623 112.836 152.955 114.486 157.295Z" fill="#FEFEFE"/>
<path d="M70.8848 109.937L77.281 106.036L78.0653 107.308L71.6618 111.202L70.8848 109.937Z" fill="#3597D2"/>
<path d="M95.0879 150.38L97.16 153.102L95.0951 150.373L95.0879 150.38Z" fill="#F7F7F3"/>
<path d="M95.0661 150.402L94.0156 149.563L94.2459 149.343L95.0877 150.38L95.0661 150.402Z" fill="#F7F7F3"/>
<path d="M82.6553 102.689H84.0943L82.7416 103.79C82.6912 103.428 82.6697 103.044 82.6553 102.689Z" fill="#FEFEFE"/>
<path d="M262.614 127.014L250.073 131.342L246.188 123.98C244.253 117.641 245.821 112.119 249.994 107.073C250.944 105.936 251.26 104.288 251.865 102.873C252.498 100.55 253.304 98.2542 253.714 95.9019C253.951 93.9782 254.066 92.041 254.059 90.103C257.57 90.6076 258.484 92.8603 259.182 95.2837C259.585 96.705 259.901 98.1262 260.276 99.5475C259.556 107.869 257.024 116.255 261.168 124.42C261.621 125.273 262.132 126.14 262.614 127.014Z" fill="#F19E88"/>
<path d="M286.86 115.537C288.35 116.369 290.228 116.887 291.228 118.11C292.501 119.666 293.062 121.791 293.933 123.667C293.012 125.031 292.019 125.564 290.76 123.994C288.753 121.521 286.134 119.268 286.86 115.537Z" fill="#FEFEFE"/>
<path d="M271.967 109.724L266.348 99.9668C272.355 100.969 274.845 104.749 271.967 109.724Z" fill="#FEFEFE"/>
<path d="M268.514 127.128C267.715 123.354 267.075 120.22 266.24 116.404C271.917 120.1 272.888 123.759 268.514 127.128Z" fill="#FEFEFE"/>
<path d="M281.055 130.141C285.875 133.581 286.58 137.461 283.156 140.09C279.947 137.439 281.745 133.843 281.055 130.141Z" fill="#FEFEFE"/>
<path d="M125.227 229.355C128.998 223.62 132.487 217.679 136.603 212.192C143.308 203.26 150.402 194.611 157.374 185.898C161.957 180.149 166.339 174.215 171.304 168.807C177.57 161.985 184.348 155.618 190.902 149.058C196.306 150.792 202.544 150.864 206.012 156.435C197.651 194.888 178.865 228.097 153.633 258.058L146.301 263.125L119.335 262.833C119.025 262.123 118.716 261.369 118.399 260.637L117.831 259.998L118.328 246.716L121.695 236.845L125.227 229.355Z" fill="#FF867F" fill-opacity="0.83"/>
<path d="M251.864 102.873C251.26 104.295 250.943 105.936 249.994 107.073C245.821 112.119 244.238 117.641 246.18 123.98C244.36 126.773 242.468 129.523 240.734 132.365C238.906 135.364 236.417 136.814 232.819 136.245L232.215 135.862C221.948 131.15 214.695 124.221 214.271 112.19C214.271 111.565 213.163 110.975 212.573 110.364C209.817 108.637 208.256 104.366 209.458 101.566C210.429 99.2846 212.429 98.972 213.811 100.614C217.955 105.524 223.394 104.636 228.445 103.733C232.618 102.987 236.532 100.848 240.561 99.3273L235.021 105.688C241.281 106.398 247.691 103.712 252.346 97.5151C252.138 99.6897 252.001 101.282 251.864 102.873Z" fill="#F0B690"/>
<path d="M212.58 110.364C213.17 110.975 214.249 111.565 214.278 112.19C214.703 124.221 221.955 131.15 232.229 135.862C228.488 136.572 224.84 136.786 221.624 134.177C218.904 131.967 216.142 129.807 213.4 127.625L213.012 123.411L212.58 110.364Z" fill="#F19E88"/>
<path d="M240.569 99.3272L240.864 98.908L240.986 99.1638L240.54 99.2988L240.569 99.3272Z" fill="#F0B690"/>
<path d="M117.853 259.984L118.421 260.623L117.853 259.984Z" fill="#D5E7F2"/>
<path d="M94.7353 63.5745C99.1026 60.0639 103.232 59.6589 106.967 62.3735L106.348 62.9776C105.628 62.8852 104.556 62.4304 104.189 62.7431C101.772 64.9816 99.4983 67.3765 97.1815 69.7216L97.6708 70.5602L104.7 68.6628C103.851 69.3734 103.103 70.4607 102.139 70.6881C99.7213 71.2637 97.2031 71.4414 94.577 71.7967L95.5555 73.5876L94.9367 74.2343C91.7422 70.4039 91.4472 67.1988 94.0158 64.2212L94.5554 64.7684C93.5769 66.5664 92.5048 68.3714 94.2964 69.4374L102.455 62.4091L101.952 61.535L95.2389 64.1359L94.7353 63.5745Z" fill="#21BDA4"/>
<path d="M106.981 62.3735C110.032 66.8151 110.183 69.1673 107.607 72.2018L106.967 71.5693C107.427 70.2688 107.881 68.9683 108.564 67.0425L106.104 68.009L106.363 62.9776L106.981 62.3735Z" fill="#FCBD53"/>
<path d="M106.484 73.147C102.427 76.0393 98.4622 76.416 94.9727 74.2343L95.5914 73.5876C99.1889 75.0657 102.614 74.2982 105.902 72.5216L106.484 73.147Z" fill="#FCBD53"/>
<path d="M107.607 72.2018L106.484 73.147C106.297 72.9409 106.11 72.7277 105.916 72.5216L106.974 71.5693L107.607 72.2018Z" fill="#FCBD53"/>
<path d="M94.0586 64.2213L94.7349 63.5746L95.2817 64.136L94.5622 64.7685L94.0586 64.2213Z" fill="#FCBD53"/>
<path d="M51.9602 223.643C44.5495 226.898 39.5058 223.643 39.4699 215.585C39.4699 214.675 39.4699 213.772 39.4699 212.863C39.4699 208.244 39.4699 208.251 44.2545 207.775C44.607 207.739 44.9236 207.334 45.3265 207.064C42.4486 205.28 38.6425 206.424 38.3547 209.331C38.0165 212.792 37.8294 216.473 38.7072 219.763C39.2972 221.952 41.5348 224.212 43.6357 225.356C45.8589 226.571 47.4274 227.616 47.4346 230.224C37.4049 231.816 29.1524 220.63 32.9369 210.589C35.3832 204.108 41.6859 200.398 49.0823 201.08C55.644 201.684 61.0977 207.107 62.1482 214.064C63.062 220.154 59.1048 226.955 53.169 229.499C49.5715 231.041 49.1614 230.828 48.0534 226.884L52.6869 224.304C56.1117 221.376 57.968 212.01 55.8599 208.336C55.5211 207.814 55.0742 207.369 54.5485 207.031C54.0229 206.692 53.4304 206.467 52.8103 206.37C52.1902 206.274 51.5566 206.309 50.9511 206.473C50.3458 206.637 49.7823 206.925 49.2981 207.32C50.1759 207.611 51.1688 207.32 51.9171 207.668C53.0538 208.144 54.8454 208.94 54.9101 209.722C55.3418 214.597 56.4426 219.742 51.9602 223.643Z" fill="#F9F6EE"/>
<path d="M51.9834 232.553L61.8332 225.446C62.4376 226.661 63.2722 228.36 64.2147 230.207C61.1569 234.919 56.0701 235.935 51.9834 232.553Z" fill="#FEFEFE"/>
<path d="M52.3568 223.996C56.832 220.095 55.7384 214.95 55.2995 210.068C55.2348 209.286 53.4432 208.49 52.3064 208.014C51.587 207.701 50.5653 207.957 49.6875 207.666C50.1717 207.271 50.7351 206.983 51.3405 206.819C51.9459 206.655 52.5796 206.62 53.1997 206.716C53.8197 206.813 54.4122 207.037 54.9378 207.376C55.4635 207.715 55.9104 208.16 56.2493 208.682C58.3574 212.356 56.5011 221.722 53.0763 224.65L52.3568 223.996Z" fill="#21BDA4"/>
<path d="M69.934 226.825C68.6893 227.45 67.3726 228.651 66.207 228.523C65.1925 228.417 64.3363 226.81 63.4082 225.865C64.5378 225.013 65.6026 223.613 66.8258 223.463C67.7899 223.35 68.9411 224.771 70.0131 225.517L69.934 226.825Z" fill="#21BDA4"/>
<path d="M25.4122 151.482C25.4553 148.852 26.513 147.68 28.7866 147.659C31.0602 147.637 32.7006 148.668 32.1682 150.814C31.8228 152.235 30.1752 153.962 28.8154 154.268C28.3971 154.381 27.9574 154.393 27.5334 154.303C27.1095 154.213 26.7137 154.023 26.3797 153.749C26.0458 153.476 25.7836 153.127 25.6151 152.733C25.4467 152.338 25.3771 151.909 25.4122 151.482Z" fill="#FEFEFE"/>
<path d="M288.363 88.6782C287.341 87.8183 285.995 87.1574 285.341 86.0772C281.441 79.6814 282.535 71.0399 287.722 66.0156C293.126 60.7853 302.385 59.4421 308.753 62.9527C312.04 64.7554 314.64 67.5718 316.153 70.971C317.667 74.3707 318.011 78.1663 317.135 81.7778C316.243 85.3282 314.2 88.4934 311.317 90.791C308.435 93.0892 304.872 94.3932 301.17 94.5055C296.255 94.6405 292.046 92.6792 288.348 89.602C288.197 89.4812 288.348 88.998 288.348 88.6782C290.312 88.2874 293.306 90.5614 293.903 86.596C295.464 85.9493 297.407 85.6793 298.515 84.5849C302.738 80.4276 306.818 76.1068 310.638 71.5871C311.408 70.6775 310.804 68.6237 310.839 67.1029C309.192 67.1029 306.969 66.4847 306.005 67.3019C302.981 69.9151 300.211 72.8009 297.73 75.9221C295.572 78.5799 293.895 81.6073 291.974 84.4498L288.363 88.6782Z" fill="#F8F7F0"/>
<path d="M63.7539 193.055L64.5525 192.344C64.4446 192.706 64.3367 193.055 64.236 193.445L63.7539 193.055Z" fill="#FEFEFE"/>
<path d="M213.4 127.625C216.142 129.807 218.905 131.967 221.624 134.177C224.84 136.786 228.488 136.579 232.23 135.862L232.827 136.245C233.669 136.778 234.438 137.56 235.359 137.816C238.446 138.662 239.576 140.588 239.065 143.608C238.899 145.207 238.093 147.076 238.655 148.355C244.929 162.568 245.08 177.214 242.31 192.081C240.216 203.366 237.597 214.53 231.316 224.437C230.129 226.32 228.567 227.99 226.833 230.172C222.732 225.546 218.919 221.374 215.322 217.011C214.832 216.414 215.322 214.68 215.804 213.72C221.998 201.874 227.035 189.629 229.165 176.376C230.352 169.028 230.517 161.672 228.013 154.53C227.451 153.297 226.446 152.312 225.193 151.766C220.595 149.769 215.89 148.028 211.228 146.187C209.309 141.526 207.391 136.866 205.472 132.209C207.645 129.892 208.781 125.82 213.4 127.625Z" fill="#21BDA4"/>
<path d="M205.464 132.181C207.383 136.842 209.302 141.502 211.22 146.159L206.018 156.385C202.529 150.814 196.291 150.743 190.909 149.009L194.384 138.001C194.442 134.865 194.502 131.733 194.564 128.606C195.327 124.058 194.737 119.098 198.586 115.473L199.773 114.841C205.464 114.358 206.105 115.125 204.659 120.782C203.659 124.705 203.292 128.542 205.464 132.181Z" fill="#F2B992"/>
<path d="M249.49 146.216C249.572 144.425 249.649 142.634 249.72 140.843C250.346 141.554 251.462 142.265 251.512 143.011C252.56 157.919 256.697 172.456 263.664 185.721C268.557 195.151 274.708 203.679 283.4 210.174C283.889 210.537 284.177 211.162 284.184 212.356C283.249 212.057 282.112 211.993 281.407 211.418C274.387 205.609 268.505 198.578 264.053 190.674C257.201 178.649 252.572 165.515 250.382 151.887C250.037 150.004 249.778 148.106 249.49 146.216Z" fill="#DC4783"/>
<path d="M259.692 221.139V199.244C261.7 201.476 261.829 217.956 259.692 221.139Z" fill="#DC4783"/>
<path d="M199.766 114.869L198.579 115.502C197.889 108.959 197.196 102.419 196.5 95.8807L197.392 95.7954L199.766 114.869Z" fill="#8DC6ED"/>
<path d="M192.881 71.1146L187.067 66.5522L188.003 65.337L193.874 69.8283L192.881 71.1146Z" fill="#53AADF"/>
<path d="M194.557 128.627C194.5 131.763 194.44 134.895 194.378 138.022H193.543L193.78 128.556L194.557 128.627Z" fill="#F8E5C7"/>
<path d="M106.967 71.5693L105.909 72.5216C102.621 74.2769 99.2321 75.0657 95.5986 73.5876L94.6201 71.7754C97.2463 71.4201 99.7645 71.2425 102.182 70.6668C103.146 70.4394 103.894 69.345 104.743 68.6415L106.146 67.9308L108.607 66.9644C107.88 68.9684 107.427 70.2689 106.967 71.5693Z" fill="#F9F6EE"/>
<path d="M106.362 62.9776L106.103 68.009L104.7 68.7196L97.6709 70.6171L97.1816 69.7785C99.4984 67.4334 101.772 65.0385 104.189 62.7999C104.571 62.4304 105.628 62.8852 106.362 62.9776Z" fill="#F9F6EE"/>
<path d="M94.5987 64.7685L95.3182 64.136L102.031 61.535L102.535 62.4091L94.3757 69.4374C92.5482 68.3715 93.6202 66.5664 94.5987 64.7685Z" fill="#F9F6EE"/>
<path d="M292.437 84.9438C294.329 82.1012 296.034 79.0454 298.192 76.416C300.673 73.2948 303.443 70.409 306.467 67.7958C307.431 66.9786 309.654 67.6182 311.302 67.5969C311.266 69.1176 311.87 71.1501 311.1 72.081C307.28 76.6008 303.186 80.9215 298.977 85.0788C297.869 86.1732 295.926 86.4432 294.365 87.0899L294.796 85.1641L295.35 84.6666L295.609 83.9133L294.89 84.1976L294.314 84.9082L292.991 85.6757L292.437 84.9438ZM302.509 76.0678C300.747 77.6099 298.955 79.1165 297.264 80.7296C297.07 80.9215 297.343 81.7672 297.617 82.1509C297.725 82.3073 298.639 82.2149 298.833 81.9662C300.272 80.1824 301.545 78.3276 302.884 76.4942L303.884 75.4353L303.236 74.8526L302.509 76.0678ZM297.236 83.9489L297.43 84.0626V83.8778L297.236 83.9489Z" fill="#21BDA4"/>
<path d="M294.336 87.0615C293.739 91.0269 290.738 88.7528 288.781 89.1437L292.451 84.9437C292.616 85.1853 292.789 85.427 292.961 85.6544L294.343 87.0757L294.336 87.0615Z" fill="#F8E5C7"/>
<path d="M104.722 68.6771L106.125 67.9664L104.722 68.6771Z" fill="#FCBD53"/>
<path d="M302.905 76.5083C301.559 78.3347 300.25 80.1895 298.847 81.9732C298.653 82.2219 297.739 82.3143 297.631 82.158C297.358 81.7671 297.084 80.9214 297.278 80.7367C298.969 79.1235 300.761 77.6169 302.524 76.0748C302.639 76.2099 302.768 76.3591 302.905 76.5083Z" fill="#F8E5C7"/>
<path d="M294.336 87.0615L292.955 85.6402L294.279 84.8727C294.332 84.9516 294.405 85.0155 294.49 85.0582C294.577 85.1008 294.672 85.12 294.768 85.1143L294.336 87.0615Z" fill="#F8F7F0"/>
<path d="M302.51 76.0394L303.229 74.8313L303.877 75.414L302.905 76.5013C302.769 76.3592 302.639 76.21 302.51 76.0394Z" fill="#F8E5C7"/>
<path d="M294.854 84.1691L295.574 83.8849L295.315 84.6382C295.171 84.4747 294.991 84.3255 294.854 84.1691Z" fill="#F8E5C7"/>
<path d="M297.243 83.9489L297.452 83.8778L297.43 84.0626L297.243 83.9489Z" fill="#F8E5C7"/>
<path d="M294.271 84.894L294.847 84.1833C295.005 84.3397 295.164 84.4889 295.315 84.6524L294.761 85.1498C294.664 85.1541 294.567 85.1328 294.481 85.0873C294.395 85.0425 294.323 84.9757 294.271 84.894Z" fill="#F8E5C7"/>
</svg>
