<svg width="681" height="612" viewBox="0 0 681 612" fill="none" xmlns="http://www.w3.org/2000/svg">
<path d="M492.35 163.491C527.95 222.227 623.997 214.551 660.855 272.487C697.713 330.297 675.511 453.845 660.855 512.978C650.281 556.141 605.613 590.4 554.31 604.727L516.616 611.445C509.786 611.984 502.927 612.13 496.078 611.884C424.222 609.231 358.963 561.501 282.084 537.901C205.204 514.433 116.576 515.102 62.3508 474.793C7.99001 434.624 -12.1035 353.484 7.13144 283.212C26.3663 212.94 51.9933 170.72 117.817 116.968C183.798 63.1394 196 54 241 14C271 2.99999 303.303 -2.79916 320 2.99999L352 14L387.414 34.8403L426.758 67.1359L443 84C475.407 115.599 469.605 125.932 492.35 163.491Z" fill="#FF867F"/>
</svg>
