<?xml version="1.0" encoding="utf-8"?>
<!-- Generator: Adobe Illustrator 24.1.1, SVG Export Plug-In . SVG Version: 6.00 Build 0)  -->
<svg version="1.1" id="Layer_1" xmlns="http://www.w3.org/2000/svg" xmlns:xlink="http://www.w3.org/1999/xlink" x="0px" y="0px"
	 viewBox="0 0 80 50" style="enable-background:new 0 0 80 50;" xml:space="preserve">
<style type="text/css">
	.st0{display:none;}
	.st1{display:inline;}
	.st2{clip-path:url(#SVGID_2_);}
	.st3{fill:#FF867F;}
	.st4{fill-rule:evenodd;clip-rule:evenodd;fill:#C50E29;}
	.st5{fill-rule:evenodd;clip-rule:evenodd;fill:#FEFEFE;}
	.st6{fill-rule:evenodd;clip-rule:evenodd;fill:#FFFDFC;}
	.st7{fill:#FFFFFF;}
	.st8{font-family:'MyriadPro-Regular';}
	.st9{font-size:3px;}
	.st10{display:none;fill:#FFFFFF;enable-background:new    ;}
</style>
<g>
	<g class="st1">
		<defs>
			<rect id="SVGID_1_" width="60.7" height="50"/>
		</defs>
		<clipPath id="SVGID_2_">
			<use xlink:href="#SVGID_1_"  style="overflow:visible;"/>
		</clipPath>
		<g class="st2">
			<path class="st3" d="M43.9,13.3c3.2,4.8,11.8,4.2,15,8.9c3.3,4.7,1.3,14.8,0,19.7c-0.9,3.5-4.9,6.3-9.5,7.5L46.1,50
				c-0.6,0-1.2,0.1-1.8,0c-6.4-0.2-12.2-4.1-19-6s-14.8-1.9-19.6-5.2C0.8,35.5-1,28.9,0.7,23.1c1.7-5.7,4-9.2,9.9-13.6
				c5.9-4.4,7-5.1,11-8.4c2.7-0.9,5.5-1.4,7.1-0.9l2.9,0.9l3.2,1.7l3.5,2.6l1.4,1.4C42.4,9.4,41.9,10.2,43.9,13.3z"/>
			<path class="st4" d="M11.6,25.7c-0.5,0-0.8-0.1-1.3-0.1c-2.4-0.9-3.3-2.4-2.4-4.5c0.9-1.6,2-3.1,3.1-4.5c0.1-0.1,0.2-0.2,0.3-0.3
				c0.7,0.8,1.4,1.6,2,2.5c0.1,0.1,0.2,0.2,0.4,0.3c2.4-0.9,4.8-1.6,7.3-2.1c2.2-0.4,4.4-0.5,6.7-0.3c0.1-0.3,0.2-0.6,0.5-0.9
				c0.9-0.7,1.8-0.7,2.7,0.1c0.7-0.6,1.4-0.8,2.3-0.4c0.8,0.7,1,1.4,0.7,2.4c-0.7,1.1-1.7,1.9-3,2.4c-0.5-0.3-1.1-0.6-1.6-0.9
				c-0.8-0.6-1.3-1.3-1.5-2.2c-1.3-0.2-2.5-0.2-3.8-0.1c-3.5,0.3-6.8,1.2-10,2.5c0.2,0.3,0.4,0.5,0.5,0.8c1.1,0.1,2.4,0.1,3.5,0.2
				c1.7,0.3,3,1,4,2.1c0.8,1.1,1.7,2.2,2.6,3.3c1.4,1.4,3.3,2,5.4,1.8c-0.5-1.2-0.2-2.2,0.9-3.1c1.2-0.5,2.2-0.3,3.1,0.6
				c1.1-1,2.2-1.1,3.4-0.3c0.8,1.1,0.8,2.3,0.2,3.4c-0.9,1.1-2,2-3.4,2.6c-0.3,0-0.5,0-0.8-0.2c-1.4-0.6-2.4-1.5-3.2-2.6
				c-2.7,0.2-4.7-0.6-6.3-2.4c-0.7-1-1.4-1.9-2.2-2.8c-1.9-1.8-4.2-2.5-6.9-2c0.5,0.7,0.6,1.4,0.5,2.1c0.9,0.3,1.7,0.8,2.6,1.3
				c1.6,1.1,2.9,2.4,3.8,4c1.2,2.1,2.4,4.2,3.6,6.3c2,2.7,4.8,4.4,8.4,5.2c3.3,0.5,6.6,0.5,9.9-0.1c0-0.2-0.1-0.3-0.2-0.5
				c-0.2-0.8,0-1.6,0.7-2.2c1-0.5,1.8-0.3,2.5,0.4c0.7-0.7,1.5-0.8,2.5-0.4c0.7,0.7,0.9,1.4,0.7,2.3c-0.6,1.2-1.7,2.1-3.1,2.6
				c-1.1-0.4-2-1-2.7-1.8c-1.7,0.2-3.3,0.4-5.1,0.5c-1,0-2,0-3-0.1c-5.5-0.8-9.3-3-11.8-7c-1.1-2.1-2.4-4.1-3.6-6.2
				c-0.4-0.5-0.8-0.9-1.1-1.4c-1.2-1.3-2.7-2.2-4.4-2.7c-0.3,0.4-0.6,0.9-1,1.3C13.4,25.2,12.5,25.6,11.6,25.7z"/>
			<path class="st5" d="M10.5,19.8c0.5,0,1.1,0,1.7,0c0,1.3,0,2.6,0,3.9c-0.4,0-0.8,0-1.2,0c0-1,0-1.9,0-2.9c-0.2,0-0.3,0-0.5,0
				C10.5,20.4,10.5,20.1,10.5,19.8z"/>
			<path class="st6" d="M33.5,26.1c0.8-0.1,1.3,0.2,1.5,0.9c0,0.2-0.2,0.5-0.4,0.6c0.5,0.5,0.5,1,0,1.5c-0.6,0.3-1.2,0.3-1.7-0.1
				c-0.2-0.3-0.2-0.5-0.2-0.7c0.5,0,0.8,0,1.1,0.3c0.5-0.4,0.4-0.6-0.3-0.6c0-0.2,0-0.5,0-0.7c0.5,0,0.6-0.1,0.4-0.5
				c-0.2,0-0.2,0.1-0.2,0.2c-0.3,0-0.7,0-1,0C32.7,26.6,32.9,26.3,33.5,26.1z"/>
		</g>
	</g>
</g>
<text transform="matrix(0.7588 0 0 1 39.334 27)" class="st8 st9" style="display:inline;fill:#FFFFFF;">Could saves up </text>
<text transform="matrix(0.7588 0 0 1 39.334 30.6006)" class="st8 st9" style="display:inline;fill:#FFFFFF;">to three lives</text>
<text transform="matrix(0.7588 0 0 1 17.2993 11.04)" class="st8 st9" style="fill:#FFFFFF;enable-background:new    ;">Did you know ?</text>
<text transform="matrix(0.7588 0 0 1 4.8252 30.3604)" class="st8 st9" style="display:inline;fill:#FFFFFF;">One blood </text>
<text transform="matrix(0.7588 0 0 1 4.8252 33.96)" class="st8 st9" style="display:inline;fill:#FFFFFF;">donation</text>
</svg>
