<svg width="784" height="693" viewBox="0 0 784 693" fill="none" xmlns="http://www.w3.org/2000/svg">
<path d="M207.441 4.3967C86.8145 26.4422 0 127.851 0 246.015C0 339.488 10.0522 355.36 176.37 517.615C259.53 599.624 339.033 671.933 352.741 678.988C410.313 708.088 460.574 692.215 539.164 619.024C598.563 564.351 612.271 532.606 586.683 507.915C565.665 487.633 540.991 497.333 484.333 550.242C445.952 585.515 419.451 603.151 404.83 603.151C370.104 603.151 109.66 347.424 95.039 297.16C77.6761 241.606 89.556 185.169 127.937 144.606C191.906 76.7058 284.203 66.124 359.138 118.151C404.83 149.897 412.14 150.779 451.435 122.56C528.198 67.8876 618.667 75.824 685.377 141.079C728.328 183.406 753.915 189.579 774.933 161.36C791.382 137.551 785.899 122.56 744.777 79.3513C672.584 4.3967 540.991 -20.2942 451.435 23.7967L410.313 43.1967L364.621 24.6785C308.877 0.869422 257.702 -5.30331 207.441 4.3967ZM362.793 33.4967L405.743 53.7785L448.694 33.4967C509.921 3.51488 604.046 3.51488 668.928 35.2603C729.242 64.3603 773.106 111.979 769.45 142.842C764.881 180.76 729.242 179.879 696.343 141.079C633.289 66.124 535.508 56.424 447.78 113.742C405.743 141.079 401.174 141.079 367.362 113.742C257.702 24.6785 77.6761 104.924 76.7623 244.251C76.7623 305.097 100.522 338.606 243.994 477.051C410.313 638.424 406.657 637.542 492.558 558.179C538.25 515.851 554.699 506.151 569.32 510.56C604.96 521.142 592.166 552.888 526.37 614.615C412.14 720.433 391.122 715.142 201.958 534.369C33.812 373.879 10.0522 338.606 10.0522 250.424C9.13837 128.733 92.2975 30.8512 211.096 13.2149C269.582 4.3967 309.791 9.68761 362.793 33.4967Z" fill="#FD837E"/>
<path d="M617.753 265.415C569.32 325.379 558.354 353.597 570.234 387.988C591.252 449.715 668.014 465.588 717.361 418.851C749.346 387.988 751.173 355.36 724.672 312.151C703.654 277.76 661.617 232.788 651.565 232.788C647.91 232.788 632.375 247.779 617.753 265.415ZM717.361 316.56C741.121 352.715 739.294 387.988 711.878 413.56C682.636 442.66 626.892 443.542 600.39 415.324C560.182 372.997 566.578 337.724 626.892 271.588L656.134 239.842L678.067 264.533C689.946 278.642 707.309 301.57 717.361 316.56Z" fill="#FD837E"/>
</svg>
