<svg width="542" height="384" viewBox="0 0 542 384" fill="none" xmlns="http://www.w3.org/2000/svg">
<path d="M369.003 123.464C367.329 126.437 365.654 129.404 363.98 132.366L363.186 133.123L361.57 133.944L356.704 137.957C356.067 138.058 355.273 137.957 354.811 138.295C351.699 140.602 349.871 139.143 348.246 136.388C345.264 131.344 342.18 126.355 339.142 121.366C338.274 116.805 337.572 112.245 336.455 107.766C335.838 105.905 334.867 104.177 333.593 102.677C333.26 102.221 331.94 102.485 331.072 102.421L328.745 100.314C327.757 101.226 324.923 102.85 325.052 103.963C325.652 107.994 325.052 112.719 329.096 115.592C332.309 117.882 332.235 121.065 331.866 124.349L332.642 128.417C330.961 127.504 330.121 127.924 330.269 129.867C330.546 133.515 330.74 137.164 331.247 140.812C331.529 141.94 332.236 142.918 333.223 143.549C336.649 145.756 340.213 147.753 343.722 149.833L348.098 156.884C343.426 160.532 338.948 164.39 334.054 167.683C324.073 174.396 314.036 181.109 302.661 185.287C295.274 188.023 287.703 190.34 280.224 192.848C279.769 187.029 279.312 181.21 278.857 175.39C279.901 171.742 281.23 168.167 281.913 164.445C283.105 158.015 283.76 151.52 279.43 145.747C279.753 143.293 278.913 141.67 276.263 141.186C271.323 140.329 266.383 139.417 261.443 138.532C261.84 136.881 261.674 134.665 262.717 133.707C264.346 132.275 265.588 130.463 266.328 128.438C267.068 126.411 267.284 124.235 266.955 122.105L266.032 114.343C266.207 109.591 264.028 107.046 258.202 105.222C262.339 99.1833 266.835 93.3641 270.529 87.0613C275.006 79.1239 282.029 72.8828 290.491 69.3207C306.188 62.7718 322.236 63.2369 337.766 69.64C345.393 72.7776 352.3 77.6483 359.492 81.7985C360.111 82.1633 360.416 82.9933 360.924 83.6227C357.757 84.3433 355.624 86.0033 355.504 89.4785C354.646 91.0539 353.951 92.7101 353.426 94.4221C353.222 96.0375 353.272 97.6738 353.574 99.2746C353.74 100.789 354.128 102.285 354.423 103.78C354.811 110.165 359.483 113.212 366.639 111.816L368.19 122.077L369.003 123.464Z" fill="#FF867F"/>
<path d="M360.887 278.915C360.019 279.841 359.053 280.673 358.006 281.396C343.796 289.314 328.912 295.297 312.384 296.236C299.596 296.957 286.844 296.683 274.25 293.92C273.881 285.483 273.89 277.018 273.022 268.645C272.278 262.759 272.968 256.783 275.035 251.214H345.513L352.854 254.252C353.186 256.542 353.667 258.809 354.294 261.038C356.409 267.021 358.68 272.95 360.887 278.915Z" fill="#C50E29"/>
<path d="M207.936 125.37C197.604 125.708 188.463 116.732 185.942 108.25C182.295 95.9635 186.866 86.1309 194.419 76.6814C199.189 70.8638 204.985 65.9473 211.528 62.1697C219.358 57.4906 227.964 55.1738 237.382 57.4085C243.845 58.9408 247.769 66.1192 248.462 72.2486C249.921 84.9087 246.809 96.2919 238.545 106.316C231.537 114.808 223.458 121.64 212.599 124.704C211.062 125.031 209.504 125.253 207.936 125.37Z" fill="#FF867F"/>
<path d="M280.159 192.803C287.638 190.294 295.182 187.941 302.596 185.241C314.018 181.064 324.055 174.351 333.99 167.637C338.884 164.345 343.362 160.459 348.034 156.838L355.938 164.874V169.544C354.876 176.458 353.842 183.371 352.761 190.285C352.309 193.104 351.746 195.895 351.238 198.704L344.664 198.576C344.193 197.035 343.916 194.28 343.214 194.162C339.497 193.512 335.706 193.371 331.949 193.742C331.026 193.852 330.389 196.88 329.623 198.567C327.908 198.746 326.183 198.798 324.461 198.722C320.971 198.321 319.724 199.716 319.844 203.128C320.02 209.166 319.844 215.204 319.946 221.252C319.946 222.456 320.666 223.65 321.054 224.854L280.076 225.101L280.409 213.909C280.409 212.851 280.325 211.784 280.279 210.726C280.279 209.905 280.233 209.084 280.215 208.263C280.602 207.178 281.378 206.065 281.323 205.007C281.073 200.93 280.566 196.862 280.159 192.803Z" fill="#FF867F"/>
<path d="M186.034 187.038C189.072 175.947 193.421 165.594 200.438 156.163C205.709 149.112 212.673 143.469 220.706 139.745C229.745 135.521 237.704 129.339 243.992 121.658L250.456 130.368C250.308 133.205 250.16 136.051 250.022 138.888C248.71 139.116 247.39 139.307 246.088 139.563C238.258 141.086 230.391 145.829 230.558 155.214C230.668 160.869 230.364 166.534 230.382 172.198C230.382 175.992 232.229 178.108 236.347 177.671C236.458 178.938 236.578 180.197 236.698 181.465L236.596 186.235C236.091 189.683 235.587 193.134 235.082 196.588C223.614 194.882 212.1 193.386 200.688 191.371C195.683 190.468 190.9 188.507 186.034 187.038Z" fill="#FF867F"/>
<path d="M389.565 114.872C391.347 117.553 393.351 120.116 394.875 122.935C402.215 136.553 405.853 151.146 407.423 166.479C409.473 186.546 406.924 205.937 400.858 225.028C398.023 222.173 395.262 219.154 390.553 220.239C388.162 206.813 386.168 193.304 383.222 180.006C381.449 171.997 379.335 164.5 382.363 156.19C383.979 151.757 383.591 146.613 384.109 141.788L389.704 138.696L390.627 138.048L391.551 137.419V137.373C396.74 134.09 398.106 130.596 394.533 127.778C390.055 124.239 389.473 119.833 389.565 114.872Z" fill="#FF867F"/>
<path d="M149.923 182.423C152.471 180.097 154.678 177.142 157.642 175.6C161.141 173.776 164.355 175.91 166.534 178.838C169.018 182.186 171.15 185.798 173.579 189.172C174.428 190.349 175.813 191.152 177.503 192.584C177.42 196.396 181.132 199.342 183.625 202.927C187.217 208.4 190.762 213.872 194.483 219.3C194.954 219.974 196.33 220.266 197.299 220.321C208.158 220.914 219.026 221.434 229.893 221.963L223.882 240.315C217.484 240.251 211.057 240.479 204.686 240.05C198.527 239.64 191.815 240.114 186.967 235.371C181.353 229.898 175.352 224.426 171.049 218.041C163.431 206.493 156.903 194.28 149.923 182.423Z" fill="#DBF7FE"/>
<path d="M280.399 213.909L280.067 225.101C279.384 229.588 278.698 234.073 278.008 238.554L276.623 244.355C276.097 246.645 275.57 248.916 275.035 251.214C272.967 256.783 272.278 262.759 273.022 268.645C273.89 277.018 273.881 285.483 274.25 293.92L258.156 289.715C257.27 276.945 256.377 264.148 255.479 251.324L255.709 244.282C255.709 242.312 255.645 240.333 255.608 238.363L255.663 236.228C260.132 230.364 264.435 224.371 269.153 218.688C270.488 217.043 272.212 215.747 274.173 214.913C276.134 214.08 278.272 213.736 280.399 213.909Z" fill="#38D3BA"/>
<path d="M229.911 221.917C219.043 221.388 208.176 220.868 197.317 220.276C196.338 220.221 194.972 219.929 194.501 219.254C190.808 213.863 187.234 208.354 183.643 202.882L186.052 187.038C190.918 188.507 195.701 190.468 200.669 191.343C212.081 193.359 223.595 194.855 235.063 196.561L234.953 209.193L229.911 221.917Z" fill="#FF867F"/>
<path d="M197.271 251.233C191.667 251.233 186.053 251.397 180.466 251.078C179.548 251.006 178.653 250.75 177.836 250.329C177.019 249.907 176.297 249.327 175.711 248.624C167.198 235.946 158.953 223.085 150.559 210.315C146.571 204.259 142.397 198.321 138.362 192.292C136.1 188.908 133.976 185.433 131.668 181.812L137.134 178.045C139.821 182.14 142.462 186.162 145.112 190.185C154.539 204.295 164.151 218.278 173.32 232.543C178.647 240.835 185.997 244.401 195.674 244.31C204.723 244.209 213.781 244.31 222.829 244.383C222.912 246.59 222.986 248.788 223.069 250.986L197.271 251.233Z" fill="#098BAD"/>
<path d="M277.999 238.554C278.694 234.067 279.384 229.582 280.067 225.101L321.045 224.854L347.997 223.732C347.665 227.928 347.335 232.121 347.009 236.31C336.659 236.767 326.308 237.332 315.948 237.66C303.308 238.062 290.649 238.262 277.999 238.554Z" fill="#DBF7FE"/>
<path d="M223.069 251.005C222.986 248.806 222.912 246.608 222.829 244.401L223.882 240.269L229.911 221.917L234.953 209.193C235.423 209.403 236.079 209.485 236.328 209.841C241.019 216.581 244.361 223.523 240.345 231.896C239.274 234.121 239.015 236.721 238.083 239.019C235.396 245.614 235.977 252.272 236.836 259.086C237.852 267.122 238.138 275.249 238.747 283.339L230.317 278.961C229.745 275.741 229.394 272.458 228.545 269.302C226.855 263.181 224.907 257.116 223.069 251.005Z" fill="#38D3BA"/>
<path d="M347.998 223.732L321.045 224.854C320.658 223.65 319.965 222.456 319.937 221.252C319.827 215.204 320.011 209.166 319.836 203.128C319.743 199.717 320.99 198.321 324.452 198.722C326.175 198.798 327.9 198.746 329.614 198.567H344.683L351.257 198.695C350.179 207.05 349.094 215.396 347.998 223.732Z" fill="#DB443E"/>
<path d="M360.887 278.915C358.68 272.95 356.371 267.058 354.294 261.01C353.667 258.781 353.186 256.515 352.854 254.224L370.452 256.049C370.656 257.873 370.794 259.697 371.089 261.457C372.447 269.666 373.86 277.875 375.235 286.084L376.731 293.181L377.784 304.217L371.985 303.469L368.957 300.359C366.272 293.208 363.583 286.06 360.887 278.915Z" fill="#F9B090"/>
<path d="M223.882 240.269L222.83 244.447C213.781 244.447 204.723 244.273 195.674 244.374C185.998 244.474 178.648 240.898 173.32 232.607C164.152 218.342 154.54 204.332 145.112 190.249C145.456 188.676 145.976 187.147 146.664 185.688C147.439 184.411 148.815 183.499 149.923 182.432C156.903 194.335 163.404 206.548 171.049 218.004C175.352 224.453 181.353 229.862 186.967 235.334C191.815 240.077 198.527 239.603 204.686 240.014C211.057 240.433 217.484 240.205 223.882 240.269Z" fill="#9FD8E7"/>
<path d="M238.729 283.366C238.12 275.276 237.806 267.149 236.818 259.113C235.959 252.273 235.378 245.614 238.065 239.047C238.988 236.748 239.256 234.149 240.327 231.923C244.343 223.559 241.001 216.609 236.31 209.868C236.061 209.513 235.387 209.431 234.935 209.221L235.045 196.588C235.55 193.14 236.055 189.69 236.56 186.235C237.409 190.413 238.342 194.59 239.09 198.786C239.607 201.65 239.588 204.624 240.308 207.424C241.832 213.371 243.826 219.199 245.35 225.137C246.476 229.515 247.15 234.003 248.028 238.445C247.123 240.463 246.221 242.479 245.322 244.492L242.081 251.169C241.877 251.609 241.755 252.082 241.721 252.564C242.903 263.692 244.106 274.817 245.331 285.939L238.729 283.366Z" fill="#21BDA4"/>
<path d="M275.035 251.214C275.571 248.925 276.097 246.654 276.623 244.355L345.412 244.228C345.412 246.544 345.477 248.861 345.514 251.187L275.035 251.214Z" fill="#0487AA"/>
<path d="M223.07 251.005C224.916 257.116 226.855 263.181 228.527 269.329C229.376 272.485 229.727 275.769 230.299 278.988C216.948 272.863 205.533 263.269 197.271 251.233L223.07 251.005Z" fill="#C50E29"/>
<path d="M245.331 285.911C244.1 274.783 242.896 263.658 241.721 252.537C241.755 252.055 241.877 251.582 242.081 251.141L255.478 251.324C256.377 264.094 257.27 276.89 258.156 289.715L245.331 285.911Z" fill="#C50E29"/>
<path d="M345.412 244.228L276.623 244.355L278.008 238.554C290.649 238.262 303.308 238.062 315.948 237.642C326.308 237.314 336.659 236.73 347.009 236.292C346.474 238.974 345.947 241.592 345.412 244.228Z" fill="#9FD8E7"/>
<path d="M250.419 130.368L243.956 121.649C243.586 117.736 242.876 113.941 245.526 110.256C248.748 105.76 253.208 105.158 258.111 105.203C263.937 107.027 266.116 109.581 265.95 114.324C264.02 114.817 261.795 114.872 260.234 115.911C257.372 117.827 251.564 116.45 252.349 121.895L247.658 121.621C247.679 123.319 247.862 125.011 248.203 126.674C248.628 128.006 249.671 129.146 250.419 130.368Z" fill="#232234"/>
<path d="M355.485 89.4967C355.605 86.0215 357.738 84.3615 360.905 83.6409C365.393 82.9842 369.862 82.6011 373.989 85.0912L375.9 87.4535L376.427 88.0646C379.548 91.859 379.197 96.2189 378.523 100.634C378.19 102.741 377.849 104.848 377.516 106.964C376.571 105.092 375.778 103.149 375.143 101.153C374.405 98.0797 372.983 97.0672 370.37 98.2986C368.8 97.7148 366.824 97.5324 365.753 96.4743C363.168 93.9387 360.998 91.0016 358.569 88.1011L355.485 89.4967Z" fill="#6D3B28"/>
<path d="M339.18 121.311C342.217 126.319 345.301 131.29 348.284 136.334C349.909 139.07 351.737 140.548 354.849 138.24C355.31 137.893 356.104 138.003 356.751 137.903C356.991 138.422 357.24 138.933 357.48 139.453C356.963 142.345 356.446 145.245 355.92 148.136H355.975L354.996 148.082L351.192 148.994L346.991 147.343C345.44 144.178 343.796 141.04 342.374 137.811C341.451 135.677 341.109 133.251 339.946 131.253C339.069 129.766 337.296 128.8 335.929 127.605C335.569 126.319 335.2 125.033 334.84 123.747L335.255 123.053L339.18 121.311Z" fill="#EEA488"/>
<path d="M389.705 138.696L384.109 141.788C383.306 135.613 382.558 129.42 381.626 123.263C381.469 122.205 380.573 121.266 380.01 120.271L379.207 118.858C378.883 116.477 378.56 114.105 378.283 111.725C379.456 112.746 380.499 114.397 381.829 114.662C385.993 115.51 386.759 118.155 386.446 121.667C386.322 123.021 386.473 124.387 386.892 125.682C387.311 126.977 387.988 128.177 388.883 129.21C390.564 131.344 390.73 134.619 391.589 137.419V137.465L390.665 138.094L389.705 138.696Z" fill="#2B130B"/>
<path d="M391.57 137.392C390.729 134.655 390.545 131.344 388.864 129.183C387.969 128.149 387.292 126.95 386.874 125.655C386.454 124.359 386.303 122.994 386.427 121.64C386.722 118.128 385.956 115.483 381.81 114.635C380.48 114.37 379.437 112.719 378.264 111.698C378.071 110.375 377.886 109.043 377.701 107.721C380.194 111.935 384.811 112.144 388.781 113.494C389.031 113.95 389.28 114.407 389.538 114.844C389.446 119.806 390.028 124.212 394.524 127.769C398.125 130.615 396.759 134.081 391.57 137.392Z" fill="#7D442F"/>
<path d="M382.493 314.515L382.355 319.258L378.449 320.654C372.992 322.478 367.553 324.302 362.078 326.126C360.433 326.602 358.754 326.956 357.055 327.184C354.645 327.558 353.232 326.628 353.297 324.038L369.151 318.711L376.039 316.148L378.44 315.382L382.493 314.515Z" fill="#E28B74"/>
<path d="M347.176 317.014C347.545 313.858 349.152 312.235 352.54 312.062C357.286 311.824 360.047 307.683 364.036 305.886L367.369 306.707C366.27 308.532 365.061 310.356 364.101 312.29C363.647 313.473 363.304 314.694 363.076 315.938C363.242 319.586 360.056 316.12 359.235 317.68L347.176 317.014Z" fill="#DFC2BD"/>
<path d="M390.572 220.239C395.281 219.154 398.042 222.173 400.877 225.028C400.877 227.974 400.877 230.911 400.877 233.848L391.449 233.902C391.124 229.378 390.831 224.824 390.572 220.239Z" fill="#DBF7FE"/>
<path d="M376.722 293.163L375.226 286.066C375.402 283.813 376.03 281.506 375.67 279.317C374.349 271.536 372.696 263.811 371.173 256.058L376.851 255.656L377.655 264.121L377.71 274.154C377.71 274.948 377.71 275.741 377.71 276.535C377.39 282.08 377.061 287.623 376.722 293.163Z" fill="#F4AA8C"/>
<path d="M355.956 169.544V164.874C358.966 168.294 361.081 168.914 363.186 166.561C364.82 164.737 365.9 162.42 367.23 160.331C368.301 158.124 369.369 155.917 370.434 153.709L375.18 149.751H375.226C372.742 155.479 370.72 161.453 367.655 166.853C365.125 171.386 360.416 170.976 355.956 169.544Z" fill="#F9DAD3"/>
<path d="M391.395 233.903L400.822 233.848C401.302 238.053 400.212 241.637 396.667 244.273H392.226L391.395 233.903Z" fill="#9FD8E7"/>
<path d="M382.493 314.515L378.44 315.354C378.846 311.533 376.353 309.973 373.214 309.38C371.653 309.079 369.917 309.681 368.265 309.872C368.477 308.55 368.699 307.218 368.911 305.896L371.986 303.451L377.784 304.199C382.004 306.47 381.635 310.766 382.493 314.515Z" fill="#FCCDBD"/>
<path d="M392.226 244.237H396.667H396.741L397.895 244.337H404.054V250.868H392.226V244.237Z" fill="#098BAD"/>
<path d="M388.809 113.522C384.792 112.172 380.175 111.962 377.728 107.748C377.728 107.484 377.645 107.228 377.608 106.973C377.941 104.857 378.282 102.75 378.615 100.643C382.001 104.941 385.399 109.235 388.809 113.522Z" fill="#DBF3FD"/>
<path d="M353.639 320.973H311.378C311.378 320.38 311.378 319.787 311.378 319.203H347.859L354.479 320.699L353.639 320.973Z" fill="#817F95"/>
<path d="M353.639 320.973L354.489 320.708L359.29 317.68C360.112 316.12 363.297 319.632 363.131 315.938L365.467 314.469C365.356 317.042 366.566 318.465 369.16 318.683L353.307 324.01L353.639 320.973Z" fill="#F9DAD3"/>
<path d="M378.449 320.654L382.355 319.24H411.606V320.635L378.449 320.654Z" fill="#817F95"/>
<path d="M377.646 264.121L376.843 255.656L383.851 255.2L384.774 256.176C382.417 258.822 380.04 261.469 377.646 264.121Z" fill="#015F75"/>
<path d="M351.192 148.994L355.006 148.082L355.929 148.136H355.874L361.515 144.169L361.589 144.233C361.589 145.063 361.589 145.893 361.589 146.723C361.497 147.179 361.414 147.635 361.321 148.091C360.592 148.793 359.595 149.368 359.161 150.216C357.619 153.317 355.671 153.372 353.307 151.21C352.587 150.499 351.913 149.742 351.192 148.994Z" fill="#F9DAD3"/>
<path d="M371.183 256.058C372.706 263.811 374.359 271.564 375.679 279.317C376.039 281.478 375.412 283.813 375.236 286.066C373.851 277.857 372.466 269.648 371.09 261.439C370.795 259.615 370.656 257.836 370.453 256.03C370.692 255.957 370.95 255.966 371.183 256.058Z" fill="#E28B74"/>
<path d="M361.357 148.109C361.45 147.653 361.533 147.197 361.625 146.741L370.462 153.71C369.397 155.917 368.329 158.124 367.258 160.331C367.849 155.059 366.334 150.763 361.357 148.109Z" fill="#E28B74"/>
<path d="M306.844 320.48H288.377V319.687H306.844V320.48Z" fill="#817F95"/>
<path d="M371.985 303.451L368.91 305.896L367.387 306.707L364.054 305.886L368.957 300.341L371.985 303.451Z" fill="#EEA488"/>
<path d="M359.253 317.68L354.452 320.708L347.841 319.24C347.628 318.51 347.407 317.78 347.194 317.051L359.253 317.68Z" fill="#E28B74"/>
<path d="M376.473 88.0738L375.947 87.4626L374.035 85.1003L372.041 80.0563L379.271 87.9734L376.473 88.0738Z" fill="#EBF9FD"/>
<path d="M379.206 118.858L380.009 120.271L369.003 123.464L368.19 122.096L379.206 118.858Z" fill="#E28B74"/>
<path d="M357.479 139.471C357.239 138.951 356.99 138.441 356.75 137.921L361.607 133.907L357.479 139.471Z" fill="#F9DAD3"/>
<path d="M361.562 144.187C361.792 143.275 362.014 142.363 362.245 141.451L363.27 141.934L361.635 144.233L361.562 144.187Z" fill="#F9DAD3"/>
<path d="M361.58 133.935L363.196 133.114L361.58 133.935Z" fill="#F9DAD3"/>
<path d="M375.208 149.751C375.319 149.404 375.42 149.058 375.531 148.711L375.827 148.912C375.642 149.213 375.448 149.495 375.254 149.824L375.208 149.751Z" fill="#F9DAD3"/>
<path d="M391.274 101.427L391.616 101.619L391.256 101.445L391.274 101.427Z" fill="#EBF9FD"/>
<path d="M380.822 89.5605L380.019 88.7761L380.065 88.7305L380.859 89.524L380.822 89.5605Z" fill="#EBF9FD"/>
<path d="M363.187 133.169L363.981 132.412L363.187 133.169Z" fill="#F9DAD3"/>
<path d="M380.019 88.7761L379.225 87.9825L380.019 88.767V88.7761Z" fill="#EBF9FD"/>
<path d="M397.894 244.374L396.74 244.273L397.894 244.374Z" fill="#9FD8E7"/>
<path d="M372.013 80.0471L371.681 79.8556L372.032 80.0289L372.013 80.0471Z" fill="#EBF9FD"/>
<path d="M236.301 177.643C232.192 178.099 230.355 175.983 230.346 172.171C230.346 166.506 230.632 160.842 230.521 155.187C230.355 145.801 238.222 141.058 246.052 139.535C247.354 139.28 248.674 139.088 249.985 138.869L253.392 141.815C253.919 144.424 254.454 147.042 254.879 149.112C256.088 146.777 257.39 144.251 258.701 141.733L261.379 138.505C266.319 139.417 271.259 140.329 276.199 141.159C278.849 141.615 279.689 143.238 279.375 145.719L271.868 161.882V154.585C271.09 156.126 270.518 157.76 270.169 159.447C267.353 169.389 265.765 179.796 258.544 188.005C255.885 191.033 252.654 191.197 250.613 187.868C248.989 185.475 247.789 182.825 247.067 180.033C245.599 172.891 244.657 165.649 243.503 158.452L242.783 158.535L244.528 174.378L236.301 177.643Z" fill="#38D5B9"/>
<path d="M271.868 161.873L279.375 145.71C283.715 151.484 283.068 157.978 281.85 164.409C281.166 168.121 279.837 171.705 278.793 175.354C274.528 185.825 270.264 196.299 266.005 206.776C265.082 208.646 264.094 210.516 263.143 212.395C261.001 218.02 258.861 223.65 256.726 229.287C256.67 228.95 256.606 228.603 256.541 228.266C253.715 221.352 253.715 221.361 248.711 223.286C248.563 223.34 248.286 223.039 247.695 222.684C249.311 219.518 250.945 216.299 252.58 213.088C257.196 212.878 257.455 209.303 258.175 206.074C262.724 191.334 267.289 176.601 271.868 161.873Z" fill="#F6B090"/>
<path d="M261.379 138.523L258.702 141.752L253.392 141.834L249.985 138.888C250.121 136.042 250.265 133.199 250.419 130.359C249.671 129.146 248.628 128.006 248.24 126.711C247.898 125.047 247.716 123.355 247.695 121.658L252.386 121.931C251.601 116.459 257.409 117.863 260.271 115.948C261.832 114.908 264.057 114.853 265.987 114.361C266.282 116.951 266.587 119.533 266.91 122.123C267.239 124.253 267.023 126.429 266.282 128.456C265.543 130.482 264.301 132.293 262.672 133.725C261.61 134.655 261.776 136.872 261.379 138.523Z" fill="#F4AA8C"/>
<path d="M361.358 148.109C366.335 150.763 367.821 155.05 367.258 160.331C365.928 162.42 364.848 164.728 363.214 166.561C361.109 168.914 358.994 168.294 355.984 164.874L348.099 156.884L343.814 149.924L347.009 147.389L351.21 149.039C351.931 149.787 352.605 150.581 353.362 151.274C355.726 153.436 357.674 153.381 359.216 150.28C359.631 149.386 360.628 148.811 361.358 148.109Z" fill="#F9B090"/>
<path d="M266.005 206.767C270.271 196.284 274.534 185.81 278.793 175.345C279.248 181.164 279.704 186.983 280.16 192.803C280.566 196.862 281.083 200.93 281.314 205.007C281.369 206.065 280.594 207.178 280.206 208.263L266.005 206.767Z" fill="#21BDA4"/>
<path d="M379.206 118.858L368.191 122.096L366.64 111.834C367.277 110.557 368.625 109.144 368.394 108.04C367.868 105.459 366.547 103.042 365.624 100.551H370.435V98.3076C373.048 97.0763 374.47 98.0887 375.208 101.163C375.843 103.158 376.636 105.101 377.581 106.973C377.581 107.228 377.664 107.484 377.701 107.748C377.886 109.071 378.071 110.402 378.265 111.725C378.569 114.105 378.883 116.477 379.206 118.858Z" fill="#F6B090"/>
<path d="M346.991 147.343L343.796 149.879C340.278 147.799 336.714 145.801 333.289 143.594C332.302 142.964 331.594 141.985 331.313 140.858C330.805 137.209 330.611 133.561 330.334 129.912C330.186 127.97 331.026 127.532 332.707 128.462L335.929 132.421V127.641C337.296 128.845 339.069 129.812 339.946 131.29C341.109 133.269 341.433 135.713 342.374 137.848C343.796 141.04 345.44 144.178 346.991 147.343Z" fill="#A5E1F1"/>
<path d="M370.415 98.3076V100.551H365.642L354.46 103.799C354.165 102.303 353.777 100.807 353.611 99.2927C353.309 97.692 353.259 96.0556 353.463 94.4403C353.987 92.7282 354.683 91.072 355.54 89.4966L358.634 88.1011C361.062 90.9834 363.25 93.9386 365.817 96.4743C366.87 97.5415 368.846 97.7239 370.415 98.3076Z" fill="#EEA488"/>
<path d="M354.424 103.799L365.642 100.551C366.621 103.041 367.905 105.459 368.412 108.04C368.643 109.144 367.295 110.557 366.658 111.834C359.484 113.23 354.812 110.156 354.424 103.799Z" fill="#EBF9FD"/>
<path d="M335.255 123.044L334.839 123.737L331.931 124.349C332.309 121.038 332.383 117.882 329.161 115.592C325.153 112.719 325.717 107.994 325.116 103.963C324.95 102.814 327.785 101.226 328.81 100.314L331.137 102.421C332.066 107.134 332.99 111.855 333.907 116.586C334.341 118.721 334.802 120.882 335.255 123.044Z" fill="#9FD8E7"/>
<path d="M335.255 123.044C334.802 120.882 334.331 118.721 333.907 116.55C332.965 111.825 332.042 107.103 331.137 102.385C332.005 102.449 333.325 102.184 333.657 102.64C334.932 104.141 335.903 105.868 336.52 107.73C337.637 112.208 338.366 116.787 339.207 121.329L335.255 123.044Z" fill="#A5E1F1"/>
<path d="M331.931 124.349L334.839 123.737C335.199 125.024 335.569 126.31 335.929 127.596V132.375L332.706 128.417L331.931 124.349Z" fill="#FEFEFE"/>
<path d="M256.688 229.278C258.831 223.653 260.97 218.023 263.106 212.386L280.271 210.698C280.271 211.756 280.363 212.824 280.4 213.882C278.272 213.708 276.134 214.053 274.174 214.886C272.213 215.72 270.489 217.016 269.154 218.661C264.435 224.325 260.133 230.336 255.654 236.201C255.387 235.38 255.119 234.559 254.842 233.729L256.688 229.278Z" fill="#21BDA4"/>
<path d="M280.27 210.698L263.151 212.386C264.075 210.507 265.063 208.637 266.014 206.767L280.215 208.263C280.224 209.084 280.242 209.905 280.27 210.698Z" fill="#09A58A"/>
<path d="M332.66 198.576H329.632C330.398 196.889 331.008 193.861 331.959 193.751C335.716 193.38 339.506 193.521 343.223 194.171C343.925 194.289 344.202 197.044 344.673 198.585H342.319C342.632 193.469 338.717 195.375 336.178 194.937C333.27 194.517 332.402 195.977 332.66 198.576Z" fill="#FEFEFE"/>
<path d="M254.842 233.757C255.119 234.587 255.386 235.407 255.654 236.228C255.654 236.94 255.654 237.651 255.608 238.363L248.027 238.417C247.15 233.975 246.476 229.488 245.35 225.11C243.826 219.172 241.832 213.343 240.308 207.396C239.588 204.596 239.607 201.623 239.09 198.759C238.342 194.563 237.409 190.386 236.56 186.208C236.56 184.612 236.624 183.025 236.661 181.438L245.147 175.91C247.049 185.962 248.948 196.013 250.844 206.065L252.579 213.079C250.945 216.29 249.311 219.509 247.695 222.674C248.286 223.03 248.563 223.331 248.711 223.276C253.715 221.352 253.715 221.343 256.541 228.256L251.85 226.806C251.869 229.853 251.148 232.68 254.842 233.757Z" fill="#EEA488"/>
<path d="M245.147 175.91L236.661 181.438C236.541 180.17 236.421 178.911 236.311 177.643L244.528 174.396C244.741 174.898 244.944 175.409 245.147 175.91Z" fill="#E28B74"/>
<path d="M390.618 138.067L391.542 137.437L390.618 138.067Z" fill="#7D442F"/>
<path d="M389.704 138.696L390.627 138.048L389.704 138.696Z" fill="#7D442F"/>
<path d="M255.479 251.324L242.081 251.141L245.322 244.465L255.71 244.282C255.636 246.626 255.553 249.007 255.479 251.324Z" fill="#0487AA"/>
<path d="M255.71 244.282L245.322 244.465C246.221 242.452 247.123 240.436 248.028 238.418L255.608 238.363C255.645 240.333 255.673 242.312 255.71 244.282Z" fill="#9FD8E7"/>
<path d="M332.661 198.576C332.375 195.977 333.27 194.517 336.188 194.973C338.727 195.375 342.651 193.468 342.328 198.622L332.661 198.576Z" fill="#BCEAF8"/>
<path d="M374.035 85.1002L375.946 87.4626L374.035 85.1002Z" fill="#FEFEFE"/>
<path d="M355.975 148.136L355.052 148.082L355.975 148.136Z" fill="#FEFEFE"/>
<path d="M369.151 318.683C366.529 318.465 365.319 317.042 365.458 314.469L366.631 312.645L366.52 312.372C367.785 312.372 369.059 312.372 370.324 312.262C373.288 312.043 375.559 312.782 376.067 316.111L369.151 318.683Z" fill="#FCCDBD"/>
<path d="M376.04 316.12C375.532 312.791 373.269 312.052 370.296 312.271C369.031 312.363 367.757 312.353 366.492 312.39L368.265 309.872C369.918 309.681 371.654 309.079 373.214 309.38C376.353 309.973 378.846 311.533 378.44 315.354L376.04 316.12Z" fill="#F9DAD3"/>
<path d="M368.264 309.873L366.492 312.39L366.602 312.664C366.224 313.275 365.827 313.877 365.43 314.488L363.094 315.956C363.322 314.712 363.665 313.491 364.119 312.308C365.042 310.383 366.289 308.577 367.387 306.726L368.911 305.914C368.698 307.218 368.477 308.55 368.264 309.873Z" fill="#7D442F"/>
<path d="M245.147 175.91C244.944 175.409 244.741 174.898 244.528 174.396L242.783 158.553L243.503 158.471C244.658 165.667 245.599 172.909 247.067 180.051C247.79 182.843 248.989 185.493 250.613 187.886C252.654 191.216 255.885 191.051 258.545 188.023C265.765 179.814 267.353 169.407 270.169 159.465C270.518 157.778 271.09 156.144 271.868 154.603V161.9C267.289 176.615 262.725 191.337 258.175 206.065H250.844C248.942 196.013 247.043 185.962 245.147 175.91Z" fill="#21BDA4"/>
<path d="M253.392 141.834L258.701 141.752C257.39 144.269 256.088 146.796 254.878 149.131C254.453 147.06 253.918 144.442 253.392 141.834Z" fill="#E28B74"/>
<path d="M250.844 206.065H258.175C257.455 209.294 257.178 212.869 252.58 213.079C251.998 210.744 251.425 208.409 250.844 206.065Z" fill="#09A58A"/>
<path d="M254.841 233.757C251.148 232.68 251.868 229.844 251.85 226.806L256.54 228.257C256.605 228.594 256.67 228.941 256.725 229.278L254.841 233.757Z" fill="#E28B74"/>
<path d="M365.43 314.488C365.827 313.877 366.224 313.275 366.602 312.664L365.43 314.488Z" fill="#F9DAD3"/>
</svg>
