<svg width="450" height="450" viewBox="0 0 450 450" fill="none" xmlns="http://www.w3.org/2000/svg">
<path d="M329.56 148.94L336.23 159.78C349.64 155.96 361.74 159.2 370.91 170.38C380.23 181.74 380.35 194.3 373.67 207.06C380.6 209.57 387.67 211.34 394.06 214.58C414.65 225.09 426.66 241.94 430.24 264.95C433.11 283.42 428.24 299.81 417.5 314.53C415.97 316.63 411 316.24 407.62 317.01C405.731 316.579 403.812 316.289 401.88 316.14C381.28 316.02 360.69 315.99 340.09 315.93L339.16 315.81L338.16 315.69L335.85 306.93C335.794 305.134 335.647 303.341 335.41 301.56C332.31 284.36 329.173 267.173 326 250C326 249.68 326.07 249.36 326.11 249C332.97 248.71 333.85 247.77 332 241.25C330.79 236.99 328.85 232.94 327.23 228.79C326.84 228.05 326.44 227.31 326.04 226.57C324.863 224.459 323.847 222.263 323 220C321.94 216.48 321.68 212.71 320.42 209.28C319.16 205.85 315.99 205.6 312.84 206.28C311.257 206.712 309.701 207.236 308.18 207.85L308.33 165.05C312.03 164.83 316.18 165.68 317.5 160.44C317.65 159.84 320.19 159.04 320.74 159.44C323.38 161.44 325.12 160.54 327.11 158.44C329.1 156.34 331.24 154.44 328.56 151.36C328.29 151.12 329.2 149.79 329.56 148.94ZM376 272.3C376.78 271.38 378.35 270.23 378.91 268.71C381.06 262.95 382.91 257.08 384.83 251.23C385.188 250.247 385.317 249.195 385.209 248.155C385.102 247.114 384.759 246.112 384.207 245.223C383.655 244.334 382.909 243.582 382.024 243.024C381.14 242.466 380.14 242.116 379.1 242C376.32 241.54 373.43 241.52 370.75 240.76C365.56 239.3 359.65 240.36 355.54 234.83C354.27 233.12 347.43 232.94 345.92 234.6C343.22 237.55 341.92 242.34 341.34 246.53C340.59 252.1 340.97 257.84 341.18 263.53C341.18 264.67 342.48 266.53 343.43 266.74C353.86 268.67 364.33 270.35 376 272.3Z" fill="#FF867F"/>
<path d="M47.9998 184.94C48.3098 175.82 52.8698 168.31 58.1498 161.56C74.8298 140.23 96.7998 132.87 123.15 138.9C127.07 139.8 129.53 139.45 132.51 136.26C138.95 129.34 144.24 127.05 156.91 132.53C158.74 129.11 160.4 125.53 162.46 122.22C173.38 104.53 189 94.64 210 92.84C229.25 91.2 245.38 97.71 258.41 111.19C263.77 116.74 266.9 124.44 271.04 131.19C253.77 127.05 238.7 118.48 224.81 107.72C199.68 127.84 171.13 137.37 138.99 138.16V167.95C137.89 168.565 136.88 169.328 135.99 170.22C133.14 174.11 130.8 174.05 127.53 170.44C126.53 169.31 124.03 168.44 122.72 168.86C121.856 169.244 121.085 169.812 120.462 170.523C119.839 171.235 119.377 172.073 119.11 172.98C118.11 177.2 115.95 178.98 112.31 177.04C109.4 175.45 107.87 176.53 105.86 178.41C103.85 180.29 104.36 181.94 105.62 184.02C107.5 187.11 105.21 190.16 101.54 190.43C100.03 190.54 97.8797 191.8 97.3498 193.09C96.5498 195.04 95.0397 197.56 98.6297 199.34C102.22 201.12 102.27 204.85 98.8198 206.99C96.2098 208.6 96.3998 210.31 96.8998 212.82C97.4698 215.7 99.1498 215.92 101.54 216.08C105.12 216.32 107.11 219.71 105.28 222.79C103.9 225.11 103.96 226.54 105.82 228.4C107.68 230.26 109.02 231.16 111.82 229.7C115.44 227.78 118 229.79 118.51 233.6C118.7 234.468 119.073 235.285 119.604 235.998C120.135 236.71 120.812 237.301 121.59 237.73C123.43 238.61 125.71 239.61 127.43 236.43C129.43 232.73 132.91 233.01 135.72 236.43C136.719 237.401 137.819 238.262 139 239C138.87 248.36 139.13 257.65 144.43 265.92C141.6 265.92 138.72 266.32 135.95 265.92C129 264.92 124.02 266.64 122.82 274.4C121.68 273.214 120.673 271.906 119.82 270.5C117.75 266.07 115.92 261.5 113.99 257.04L106.99 251.19C109.94 247.3 112.19 243.19 110.87 238.06L109.04 233.52C106.2 234.89 102.96 235.78 100.62 237.75C98.2798 239.72 98.1698 242.67 100.89 245C101.263 247 101.637 249.02 102.01 251.06L95.6698 253.84C94.6698 254.89 93.6698 255.93 92.6698 256.97L84.9998 255L97.3498 244.95L69.2397 208.12L50.2398 222.12C46.8354 213.307 45.3886 203.858 45.9998 194.43C46.2563 192.89 46.6546 191.377 47.1897 189.91H47.5798L47.9698 189.98L52.9998 191.1L55.2398 195.05C58.2398 188.05 55.9098 184.66 49.0398 184.93L47.9998 184.94ZM202 103.03C204.07 106.17 206.17 105.95 208.29 103.08C210.29 101.64 210.65 100.22 208.22 98.85C206.76 94.73 204.6 95.16 202.09 97.91C200.42 99.59 199.1 101.27 201.94 103L202 103.03Z" fill="#FF867F"/>
<path d="M139 167.93V138.14C171.14 137.35 199.69 127.82 224.82 107.7C238.71 118.46 253.82 127.03 271.05 131.17L282.07 134L295.07 136L304.21 137.62C307.27 137.46 308.5 138.71 308.27 141.94C308.202 145.197 308.309 148.455 308.59 151.7C308.51 156.14 308.427 160.58 308.34 165.02L308.19 207.82C308.19 214.2 308.19 220.583 308.19 226.97L306.69 233.17L299.16 227V147.41C285.24 144.13 272.16 141.56 259.44 137.92C246.72 134.28 235.21 127.23 224.75 118.92C213.6 127.72 201.98 135.1 188.75 138.81C175.52 142.52 162.04 144.81 148.16 147.81V151.81C148.16 181.957 148.16 212.113 148.16 242.28C148.16 251.04 150.81 258.76 156.99 264.92C174.89 282.79 195.14 297.16 219.51 304.92C222.503 305.78 225.677 305.78 228.67 304.92C253.14 297.82 273.51 284.12 290.79 265.6C296.11 259.9 299.26 253.31 299.27 245.39L309.27 250.93C306.897 256.93 304.53 262.93 302.17 268.93C301.579 269.213 301.027 269.573 300.53 270C283.502 289.309 262.055 304.213 238.02 313.44L232.26 315.13L228.02 317.75H219.26L216 315L212.28 314.83C210.912 313.756 209.453 312.803 207.92 311.98C183.66 301.58 162.92 286.31 145.15 266.88L144.45 265.88C139.15 257.61 138.89 248.32 139.02 238.96C138.947 231.913 138.87 224.86 138.79 217.8L138.94 190.02L139 167.93Z" fill="#C50E29"/>
<path d="M47.0002 315.84C40.3002 303.31 36.6702 290 37.0002 275.76C37.2602 264.84 40.0002 254.49 44.2402 244.48C44.8802 242.96 45.4902 241.42 46.1102 239.89C47.4108 241.062 48.6365 242.315 49.7802 243.64C55.6802 251.32 61.5102 259.06 67.7002 267.22L80.0002 259C80.6702 261.5 81.5402 264 82.0002 266.51C83.3002 273.96 85.7602 280.94 90.6002 286.82C92.1902 288.75 93.6002 292.17 97.2902 289.93C102.04 294.09 97.9402 298.03 96.9902 302.06L97.0702 301.97L96.2502 303.02L93.3202 309.16C92.8902 311.16 92.4502 313.08 92.0202 315.04L89.9602 315.9L89.0202 316.02L47.0002 315.84Z" fill="#FF867F"/>
<path d="M80.0001 259L67.7101 267.27C61.5201 259.11 55.7101 251.37 49.7901 243.69C48.6464 242.365 47.4206 241.112 46.1201 239.94C46.1201 239.567 46.1401 239.197 46.1801 238.83C54.3601 233.34 54.3601 233.34 49.4001 224.97C49.2407 224.658 49.1069 224.334 49.0001 224L50.1801 222L69.2301 208L97.3401 244.83L85.0001 255C83.3401 256.333 81.6734 257.667 80.0001 259Z" fill="#FF867F"/>
<path d="M304.19 137.65L295.05 136C294.37 134 293.68 131.91 292.99 129.87C295.08 126.12 297.13 122.48 302.57 124.92C303.31 125.26 305.17 124.3 305.83 123.42C309.59 118.42 313.47 118.37 317.12 123.13C317.572 123.659 318.131 124.087 318.76 124.385C319.389 124.683 320.074 124.845 320.77 124.86C327.12 124.37 329.61 126.69 329.01 132.7C328.856 133.985 329.215 135.279 330.01 136.3C335.69 141.78 335.67 144.02 329.53 148.91C329.16 149.76 328.25 151.09 328.53 151.4C331.21 154.5 329.15 156.34 327.08 158.48C325.01 160.62 323.35 161.48 320.71 159.48C320.16 159.05 317.62 159.85 317.47 160.48C316.15 165.72 312 164.87 308.3 165.09C308.38 160.65 308.463 156.213 308.55 151.78C311.55 151.09 314.81 150.99 317.41 149.59C321.23 147.54 321.74 143.59 320.78 139.59C319.6 134.65 315.19 133.72 311.24 133.08C308.09 132.53 305.07 133.85 304.19 137.65Z" fill="#89A3D4"/>
<path d="M227.94 317.68L232.18 315.06L238.06 315.92H297.12L298.46 315.06L300.3 315.83L307.07 315.13L331.07 315.5L338.18 315.71L339.18 315.83L339.63 316L340.11 315.95C360.71 316.01 381.3 316.04 401.9 316.16C403.832 316.309 405.751 316.599 407.64 317.03C406.302 317.519 404.913 317.854 403.5 318.03C345.967 318.07 288.437 318.07 230.91 318.03C229.914 317.969 228.923 317.852 227.94 317.68Z" fill="#6F74A6"/>
<path d="M47 315.84L89.06 315.94L89.55 316L90 315.82L92 315L106.91 315.92H108.06L108.53 316.01H109H110H133.26L148 316L153.94 315.87L157.57 315.95L161.01 315.88H211.08L216 315L219.21 317.66C204.89 317.77 190.57 317.96 176.21 317.97C132.37 318.023 88.5334 318.023 44.7 317.97H39.6L39.54 316.38L47 315.84Z" fill="#6F74A6"/>
<path d="M273.08 120C273.08 115.35 277.41 110.87 281.78 111C286.15 111.13 290.15 115.67 290.09 120.54C289.958 122.77 288.997 124.871 287.394 126.427C285.791 127.984 283.663 128.884 281.43 128.95C276.11 128.88 273.08 125.64 273.08 120Z" fill="#C50E29"/>
<path d="M264 109.68C264.2 105.49 265.86 103.99 269.08 103.92C272.59 103.84 274.34 106.26 273.76 108.84C273.363 109.975 272.704 111 271.834 111.831C270.965 112.662 269.912 113.275 268.76 113.62C266.11 114.08 263.73 112.18 264 109.68Z" fill="#C50E29"/>
<path d="M48.9999 224C49.1075 224.306 49.2378 224.604 49.3899 224.89C54.3899 233.26 54.3899 233.26 46.1699 238.75C47.1233 233.85 48.0666 228.933 48.9999 224Z" fill="#FF867F"/>
<path d="M293 129.9C293.69 131.9 294.38 133.99 295.06 136.03L282.06 134.03L293 129.9Z" fill="#D8DFF0"/>
<path d="M47.9997 190L47.6097 189.93H47.2197C47.4697 188.6 47.7097 187.27 47.9597 185.93L47.9997 190Z" fill="#89A3D4"/>
<path d="M47.9996 184.94H49.0796C48.7196 185.28 48.3496 185.61 47.9796 185.94C47.9658 185.607 47.9725 185.273 47.9996 184.94Z" fill="#89A3D4"/>
<path d="M376 272.3C364.31 270.35 353.84 268.67 343.41 266.72C342.46 266.54 341.2 264.65 341.16 263.51C340.95 257.86 340.57 252.12 341.32 246.51C341.89 242.32 343.199 237.51 345.899 234.58C347.409 232.92 354.249 233.1 355.519 234.81C359.629 240.34 365.52 239.28 370.73 240.74C373.41 241.5 376.299 241.52 379.079 241.98C380.118 242.094 381.118 242.442 382.003 242.997C382.888 243.553 383.637 244.303 384.19 245.19C384.744 246.076 385.089 247.077 385.2 248.116C385.31 249.156 385.183 250.207 384.829 251.19C382.909 257.04 381.06 262.91 378.91 268.67C378.37 270.23 376.799 271.38 376 272.3ZM345.799 241.77L346.649 243.77C357.289 243.98 367.709 250.13 378.799 244.19C378.459 243.98 378.069 243.54 377.619 243.47C368.779 241.96 359.949 240.32 351.059 239.19C349.449 239 347.559 240.84 345.799 241.77Z" fill="#C50E29"/>
<path d="M302.09 268.86C304.45 262.86 306.817 256.86 309.19 250.86C309.44 250.83 309.685 250.769 309.92 250.68L311.09 251.16C310.76 253.09 310.42 255.02 310.09 256.95C309.76 257.62 309.42 258.29 309.09 258.95C308.76 259.95 308.42 260.95 308.09 261.95L307.34 263.02L307.72 263.27L308.1 261.96C308.43 260.96 308.76 259.96 309.1 258.96C309.43 258.29 309.76 257.62 310.1 256.96L312.1 251.15L326 250C329.14 267.187 332.267 284.383 335.38 301.59C335.617 303.371 335.764 305.164 335.82 306.96L332 308.22C331.13 306.94 329.9 305.77 329.44 304.36C327.22 297.57 325.21 290.72 323.11 283.9C321.44 278.46 319.75 273.04 317.95 267.23C314.46 272.18 311.1 276.33 308.46 280.91C307.206 283.433 306.552 286.212 306.55 289.03C306.34 294.03 306.68 299.1 306.8 304.14H306.11H301.99C301.745 304.1 301.495 304.1 301.25 304.14C300.25 297.43 298.9 290.74 298.44 283.99C298.25 281.33 300.06 278.54 300.97 275.8C301.05 276.56 301.12 277.31 301.2 278.07L302.03 278.17C302.37 276.75 302.71 275.33 303.03 273.91C303.36 273.24 303.69 272.58 304.03 271.91C304.36 270.91 304.69 269.91 305.03 268.91C305.36 268.24 305.69 267.58 306.03 266.91L306.39 265.59L306.02 266.9L305.02 268.9C304.68 269.9 304.35 270.9 304.02 271.9L303.02 273.9L301 275.89L302.09 268.86ZM301.92 289.21H301.41V295.89H301.92V289.21ZM302.39 300.21H302.77V298.7H302.39V300.21ZM300.75 280.42C300.46 280.92 300.15 281.23 300.22 281.42C300.29 281.61 300.67 281.76 300.92 281.93L300.75 280.42Z" fill="#7D87C2"/>
<path d="M308.15 227C308.15 220.62 308.15 214.237 308.15 207.85C309.671 207.236 311.227 206.712 312.81 206.28C315.96 205.61 319.15 205.93 320.39 209.28C321.63 212.63 321.91 216.48 322.97 220C323.824 222.264 324.847 224.46 326.03 226.57C323.96 231.29 319.69 230.69 315.73 230.82L308.15 227Z" fill="black"/>
<path d="M315.75 230.83C319.75 230.7 323.98 231.3 326.05 226.58C326.45 227.32 326.85 228.06 327.24 228.8C326.867 235.54 326.493 242.277 326.12 249.01C326.12 249.33 326.05 249.65 326.01 250.01L312.1 251.2H311.1L309.93 250.72C311.02 244.65 312.03 238.56 313.28 232.53C313.41 231.8 314.89 231.38 315.75 230.83Z" fill="#ED6366"/>
<path d="M326.12 249C326.493 242.26 326.867 235.523 327.24 228.79C328.86 232.94 330.8 236.99 332.01 241.25C333.86 247.78 333 248.72 326.12 249Z" fill="#EFA985"/>
<path d="M332 308.22L335.79 306.93L338.1 315.69L330.99 315.47C334.44 313.48 332.88 310.8 332 308.22Z" fill="#EFA985"/>
<path d="M340.09 315.93L339.61 315.98L339.16 315.81L340.09 315.93Z" fill="#E8EEFB"/>
<path d="M138.76 217.8C138.84 224.847 138.917 231.9 138.99 238.96C137.801 238.217 136.694 237.349 135.69 236.37C132.88 232.99 129.39 232.71 127.4 236.37C125.68 239.55 123.4 238.55 121.56 237.67C120.782 237.241 120.105 236.65 119.574 235.938C119.043 235.225 118.67 234.408 118.48 233.54C117.97 229.73 115.41 227.72 111.79 229.64C109.03 231.1 107.65 230.16 105.79 228.34C103.93 226.52 103.87 225.05 105.25 222.73C107.08 219.65 105.09 216.26 101.51 216.02C99.1198 215.86 97.4398 215.64 96.8698 212.76C96.3698 210.25 96.1798 208.54 98.7898 206.93C102.24 204.79 102.21 201.08 98.5997 199.28C94.9897 197.48 96.5198 194.98 97.3198 193.03C97.8498 191.74 99.9998 190.48 101.51 190.37C105.18 190.1 107.51 187.05 105.59 183.96C104.33 181.88 103.69 180.35 105.83 178.35C107.97 176.35 109.37 175.35 112.28 176.98C115.92 178.98 118.13 177.14 119.08 172.92C119.347 172.013 119.809 171.175 120.432 170.463C121.055 169.752 121.826 169.184 122.69 168.8C124 168.35 126.47 169.25 127.5 170.38C130.77 173.99 133.11 174.05 135.96 170.16C136.85 169.268 137.86 168.504 138.96 167.89L138.91 190C132.91 190.05 126.84 190 120.82 190.27C119.93 190.27 118.68 191.89 118.35 192.98C117.67 195.27 117.57 197.72 117.1 200.08C115.43 208.6 119.54 215.85 128.1 217.96C131.42 218.81 135.19 217.91 138.76 217.8Z" fill="#88A2D4"/>
<path d="M107 251.17L114 257.02L117 279.67L111 281.01C109.93 280.01 109 278.61 107.74 278.1C106.48 277.59 104.8 277.9 103.32 277.98C99.8099 278.16 97.6199 277.84 98.7699 273.07C99.8399 268.66 99.6399 263.94 99.9599 259.36C100.18 256.24 98.8199 254.3 95.6299 253.82L102 251C103.64 252.62 105.26 254 107 251.17Z" fill="#F5A71D"/>
<path d="M111.05 281L117.05 279.66C121.52 280.66 122.98 278.4 122.85 274.37C124.05 266.61 129.03 264.93 135.98 265.89C138.75 266.27 141.63 265.89 144.46 265.89L145.16 266.89C143.16 271.81 141.143 276.73 139.11 281.65L137.11 281.94L111.24 281.86C111.286 281.56 111.218 281.253 111.05 281Z" fill="#BDCDE9"/>
<path d="M111.05 281C111.196 281.269 111.235 281.583 111.16 281.88L109.3 282.03L96.77 283.03C92.95 283.53 91.15 281.75 91.25 278.03C91.39 273.23 91.52 268.43 91.8 263.64C91.94 261.4 92.41 259.18 92.73 256.95C93.73 255.95 94.73 254.87 95.73 253.82C98.92 254.3 100.28 256.24 100.06 259.36C99.74 263.94 99.94 268.66 98.87 273.07C97.72 277.84 99.87 278.16 103.42 277.98C104.9 277.9 106.54 277.59 107.84 278.1C109.14 278.61 110 280 111.05 281Z" fill="#DD8F15"/>
<path d="M92.7305 257C92.4105 259.23 91.9405 261.45 91.8005 263.69C91.5205 268.48 91.3905 273.28 91.2505 278.08C91.1505 281.84 92.9505 283.62 96.7705 283.08L97.2205 289.08C97.1517 289.362 97.1691 289.658 97.2705 289.93C93.5405 292.17 92.1705 288.75 90.5805 286.82C85.7405 280.94 83.2805 273.96 81.9805 266.51C81.5405 263.97 80.6705 261.51 79.9805 259C81.6471 257.667 83.3138 256.333 84.9805 255L92.7305 257Z" fill="#D3DAEC"/>
<path d="M107 251.17C105.26 253.97 103.64 252.62 102 251.04C101.62 249.04 101.247 247.02 100.88 244.98C102.03 239.53 106.66 239.09 110.88 238.04C112.2 243.19 110 247.28 107 251.17Z" fill="#EFA985"/>
<path d="M122.81 274.38C122.94 278.38 121.48 280.69 117.01 279.67L114 257C115.93 261.5 117.76 266 119.83 270.46C120.676 271.872 121.675 273.187 122.81 274.38Z" fill="#DD8F15"/>
<path d="M110.88 238C106.68 239 102.05 239.49 100.88 244.94C98.16 242.61 98.3 239.65 100.61 237.69C102.92 235.73 106.19 234.83 109.03 233.46L110.88 238Z" fill="black"/>
<path d="M48 186.015C48.37 185.685 48.74 185.355 49.1 185.015C55.97 184.745 58.35 188.115 55.3 195.135L53 191.185C53.07 190.185 53.13 189.185 53.22 187.865L48 190.025C48 188.705 48 187.365 48 186.015Z" fill="#FF867F"/>
<path d="M48 189.94L53.28 187.78C53.19 189.1 53.13 190.1 53.06 191.1L48 189.94Z" fill="#FF867F"/>
<path d="M202 97.91C204.51 95.16 206.67 94.73 208.13 98.85L208 99L202.14 98L202 97.91Z" fill="#9299C9"/>
<path d="M208.23 103.08C206.11 105.95 204.01 106.17 201.94 103.03L202.13 102.88H207.93L208.23 103.08Z" fill="#9299C9"/>
<path d="M201.94 103C199.1 101.24 200.42 99.56 202.03 97.88L202.14 97.98C202.14 99.6 202.14 101.23 202.14 102.85L201.94 103Z" fill="#9299C9"/>
<path d="M208.16 98.85C210.59 100.22 210.16 101.64 208.23 103.08L207.93 102.84C207.93 101.55 207.98 100.26 208 98.98L208.16 98.85Z" fill="#9299C9"/>
<path d="M299.2 245.33C299.2 253.25 296.04 259.84 290.72 265.54C273.44 284.06 253.07 297.76 228.6 304.86C225.607 305.72 222.433 305.72 219.44 304.86C195.07 297.13 174.82 282.76 156.92 264.86C150.74 258.7 148.07 250.98 148.09 242.22C148.157 212.06 148.157 181.903 148.09 151.75V147.75C161.97 144.75 175.52 142.43 188.68 138.75C201.84 135.07 213.57 127.66 224.68 118.86C235.14 127.19 246.49 134.21 259.37 137.86C272.25 141.51 285.17 144.07 299.09 147.35V227L293.03 222.94V151.17C268 148.5 244.78 142 225.1 126C223.58 127 222.1 127.81 220.82 128.78C202.819 142.072 181.281 149.728 158.93 150.78C154.93 151.01 153.93 152.16 153.93 155.98C154.07 183.98 154.17 211.98 153.93 239.98C153.805 244.297 154.61 248.591 156.291 252.57C157.971 256.549 160.488 260.119 163.67 263.04C179.027 278.039 197.287 289.742 217.33 297.43C220.03 298.43 223.43 299.31 226.04 298.58C232.514 296.603 238.859 294.229 245.04 291.47C256.158 286.608 266.393 279.938 275.33 271.73C284.63 263.41 294.73 255.39 293.11 240.73L299.2 245.33Z" fill="#50C5B0"/>
<path d="M139.07 281.68L145.12 266.92C162.88 286.35 183.63 301.62 207.89 312.02C209.423 312.843 210.882 313.796 212.25 314.87L211.08 315.92H161L159.53 314.65L166.45 309.53L165.98 308.16L157.21 310.09C157.125 308.49 156.901 306.901 156.54 305.34C156.3 304.58 155.2 304.08 154.54 303.47L139.07 281.68Z" fill="#FF867F"/>
<path d="M302.09 268.86L301.02 275.86C300.11 278.6 298.3 281.39 298.49 284.05C298.95 290.8 300.3 297.49 301.3 304.2L302.1 305.02L300.37 315.85L298.52 315.08L297.18 315.94H238.12L238 313.39C262.035 304.163 283.481 289.259 300.51 269.95C300.988 269.52 301.519 269.154 302.09 268.86Z" fill="#FF867F"/>
<path d="M138.76 217.8C135.19 217.91 131.42 218.8 128.07 217.98C119.54 215.87 115.43 208.62 117.07 200.1C117.54 197.74 117.64 195.29 118.32 193C118.65 191.91 119.9 190.33 120.79 190.29C126.79 190 132.85 190.07 138.88 190.02L138.76 217.8Z" fill="#D9E0F0"/>
<path d="M293.1 222.93L299.16 226.99L306.65 233.2C306.42 236.4 306.19 239.61 305.96 242.75C298.09 241.49 293.58 234.44 286.23 233.02C282.16 229.88 277.98 226.87 274.12 223.49C273.23 222.71 273.46 220.65 273.17 219.17L276.56 214.22C278.16 214.32 280.1 213.88 281.3 214.63C285.38 217.17 289.19 220.13 293.1 222.93Z" fill="#374587"/>
<path d="M286.23 233C293.58 234.42 298.09 241.47 305.96 242.73C306.19 239.59 306.42 236.38 306.65 233.18L308.15 226.98L315.75 230.81C314.89 231.36 313.41 231.81 313.27 232.48C312.02 238.48 311.01 244.6 309.92 250.67C309.685 250.759 309.44 250.82 309.19 250.85L299.19 245.31L293.14 240.76C290.9 238.14 285.9 238 286.23 233Z" fill="#EFA985"/>
<path d="M304.19 137.65C305.07 133.85 308.09 132.53 311.26 133.05C315.21 133.69 319.62 134.62 320.8 139.56C321.8 143.56 321.25 147.5 317.43 149.56C314.83 150.96 311.55 151.06 308.57 151.75C308.289 148.501 308.182 145.24 308.25 141.98C308.48 138.74 307.25 137.49 304.19 137.65Z" fill="#D8DFEF"/>
<path d="M237.94 313.37L238.06 315.92L232.18 315.06L237.94 313.37Z" fill="#FF867F"/>
<path d="M211.08 315.92L212.25 314.87L216 315L211.08 315.92Z" fill="#FF867F"/>
<path d="M106.93 315.88L92 315C94.85 311.17 94.85 311.17 93.3 309.12L96.23 302.98L97.05 301.93L97 302C98 300.87 99.53 299.88 99.9 298.57C100.84 295.19 102.9 294.34 105.98 295.04C106.445 296.542 106.763 298.086 106.93 299.65C107 305.07 106.94 310.47 106.93 315.88Z" fill="#FF867F"/>
<path d="M106 295.05C102.89 294.35 99.98 297.62 99.04 301C98.67 302.31 88.5 316.37 87.5 317.5C88.44 313.5 102.02 294.01 97.31 289.88C97.2087 289.608 97.1912 289.312 97.26 289.03L99.04 288.85L105.89 294.06L106 295.05Z" fill="#6F74A6"/>
<path d="M93.3 309.11C94.85 311.16 94.85 311.16 92 314.99C92.43 313 92.87 311.07 93.3 309.11Z" fill="#FF867F"/>
<path d="M97.0505 301.92L96.2305 302.97L97.0505 301.92Z" fill="#6F74A6"/>
<path d="M90.0005 315.82L89.5506 316L89.0605 315.94L90.0005 315.82Z" fill="#E8EEFB"/>
<path d="M332 308.22C332.84 310.8 334.4 313.48 331 315.47L307 315.11C306.92 311.45 306.84 307.8 306.77 304.11C306.65 299.11 306.31 294.03 306.52 289C306.522 286.182 307.176 283.403 308.43 280.88C311.07 276.3 314.43 272.15 317.92 267.2C319.72 273.01 321.41 278.43 323.08 283.87C325.18 290.69 327.19 297.54 329.41 304.33C329.94 305.77 331.17 306.94 332 308.22Z" fill="#FF867F"/>
<path d="M306.84 304.14C306.91 307.8 306.99 311.45 307.07 315.14L300.3 315.84L302 305L306.11 304.17L306.84 304.14Z" fill="#EFA985"/>
<path d="M297.12 315.9L298.46 315.04L297.12 315.9Z" fill="#E8EEFB"/>
<path d="M133.28 316H123C122.32 313 121.72 309.91 120.94 306.9C120.16 303.89 119.14 300.64 118.22 297.52L119.76 298.43C121.38 292.62 123.11 297.36 124.64 298.3C125.16 296.97 125.64 295.63 126.12 294.48L121.12 293.94C128.91 290.43 129.64 290.77 131.18 298.5C131.99 302.55 132.86 306.58 133.86 311.38L142.28 309.86C141.83 306.55 141.48 303.92 141.13 301.3L150.98 309.83L153.68 313.83L153.94 315.92L148 316C144.24 314.62 140.56 312.9 136.69 311.95C133.84 311.28 132.44 313 133.28 316Z" fill="#FF867F"/>
<path d="M118.25 297.51C119.17 300.63 120.15 303.74 120.97 306.89C121.79 310.04 122.35 313 123 316H110H109H108.53L108.06 315.91V295.4L118.25 297.51Z" fill="#FF867F"/>
<path d="M119 298.3L108.08 295.4V315.9H106.93C106.93 310.49 107.02 305.09 106.93 299.68C106.763 298.116 106.445 296.572 105.98 295.07C105.98 294.74 105.91 294.41 105.87 294.07L121.14 293.94L126.14 294.48C125.7 295.63 125.14 296.97 124.66 298.3C123.13 297.36 126.573 291.7 124.953 297.51L119 298.3Z" fill="#DADADA"/>
<path d="M133.28 316C132.44 313 133.84 311.28 136.69 312C140.56 312.95 144.24 314.67 148 316.05L133.28 316Z" fill="#3644A9"/>
<path d="M153.94 315.91C153.86 315.21 153.77 314.52 153.68 313.82L157.22 310.09L165.99 308.16L166.46 309.53L159.54 314.65L157.54 315.99L153.94 315.91Z" fill="#2D3A9F"/>
<path d="M157.57 316L159.57 314.66L161.04 315.93L157.57 316Z" fill="#FF867F"/>
<path d="M345.8 241.77C347.56 240.84 349.45 238.95 351.06 239.15C359.95 240.28 368.78 241.92 377.62 243.43C378.07 243.5 378.46 243.94 378.8 244.15C367.71 250.09 357.29 243.94 346.65 243.73L345.8 241.77Z" fill="#F6F8FC"/>
<path d="M301.92 289.21V295.82H301.41V289.14L301.92 289.21Z" fill="#9299C9"/>
<path d="M311.09 251.17H312.09L310.09 256.98C310.42 255 310.76 253.1 311.09 251.17Z" fill="#9299C9"/>
<path d="M306.15 304.15L302 305C301.96 304.718 301.94 304.434 301.94 304.15H306.15Z" fill="#9299C9"/>
<path d="M301 275.89L303.07 273.96L302.07 278.22L301.24 278.12C301.16 277.36 301.09 276.61 301.01 275.85L301 275.89Z" fill="#9299C9"/>
<path d="M309.1 259C308.76 260 308.43 261 308.1 262L309.1 259Z" fill="#9299C9"/>
<path d="M302.39 300.23V298.72H302.77V300.23H302.39Z" fill="#9299C9"/>
<path d="M300.75 280.44L300.92 281.94C300.67 281.77 300.29 281.65 300.22 281.43C300.15 281.21 300.46 280.94 300.75 280.44Z" fill="#9299C9"/>
<path d="M305.1 269C304.76 270 304.43 271 304.1 272C304.43 271 304.76 270 305.1 269Z" fill="#9299C9"/>
<path d="M308.1 262L307.72 263.31L307.34 263.06L308.09 261.99L308.1 262Z" fill="#9299C9"/>
<path d="M309.09 259C309.42 258.34 309.76 257.67 310.09 257C309.75 257.66 309.42 258.33 309.09 259Z" fill="#9299C9"/>
<path d="M305.09 269L306.09 267C305.75 267.67 305.42 268.33 305.09 269Z" fill="#9299C9"/>
<path d="M303.09 274L304.09 272C303.75 272.67 303.42 273.33 303.09 274Z" fill="#9299C9"/>
<path d="M306.09 267L306.46 265.69L306.1 267H306.09Z" fill="#9299C9"/>
<path d="M302 304.17C302 304.454 302.02 304.738 302.06 305.02L301.26 304.2C301.503 304.15 301.753 304.14 302 304.17Z" fill="#EFA985"/>
<path d="M121.12 293.93L105.85 294.06L99 288.85L109.3 282L111.16 281.85L137 282C138.333 288.44 139.7 294.88 141.1 301.32C141.45 303.94 141.8 306.57 142.25 309.88L133.83 311.4C132.83 306.6 131.96 302.57 131.15 298.52C129.64 290.76 128.91 290.42 121.12 293.93Z" fill="#3644A9"/>
<path d="M141.13 301.29C139.757 294.85 138.39 288.41 137.03 281.97L139.03 281.68L154.46 303.46L151 309.82L141.13 301.29Z" fill="#2D3A9F"/>
<path d="M109.3 282L98.9995 288.85L97.2195 289.03L96.7695 283.03L109.3 282Z" fill="#F5A71D"/>
<path d="M208 99C208 100.28 207.95 101.57 207.93 102.86H202.13C202.13 101.24 202.13 99.61 202.13 97.99L208 99Z" fill="#FF867F"/>
<path d="M286.23 233C285.9 237.94 290.9 238.12 293.15 240.76C294.77 255.41 284.67 263.43 275.37 271.76C266.433 279.968 256.198 286.638 245.08 291.5C238.899 294.259 232.554 296.633 226.08 298.61C223.47 299.34 220.08 298.48 217.37 297.46C197.328 289.772 179.067 278.069 163.71 263.07C160.521 260.151 157.998 256.58 156.313 252.599C154.627 248.618 153.818 244.321 153.94 240C154.2 212 154.1 184 153.94 156C153.94 152.18 154.87 151 158.94 150.8C181.292 149.748 202.829 142.092 220.83 128.8C222.15 127.8 223.59 127.01 225.11 126.02C244.79 142.02 267.99 148.53 293.11 151.2V222.96C289.2 220.16 285.39 217.2 281.31 214.66C280.11 213.91 278.17 214.35 276.57 214.24L262.96 204.24C263.49 203.02 264.02 201.8 264.54 200.58C273.7 179 258.68 156.58 235.23 156.87C219.97 157.05 206.85 168.75 205.16 183.69C203.38 199.5 213.16 214.1 228.16 217.93C240.3 221.03 250.43 217.18 259.29 208.93L273.21 219.22C273.5 220.7 273.27 222.76 274.16 223.54C278 226.87 282.16 229.88 286.23 233Z" fill="#43BEA7"/>
<path d="M151 309.82L154.52 303.46C155.23 304.08 156.33 304.58 156.57 305.34C156.931 306.901 157.155 308.49 157.24 310.09L153.7 313.82L151 309.82Z" fill="#EFA985"/>
<path d="M263 204.19L276.61 214.19L273.22 219.19L259.3 208.91L263 204.19Z" fill="#BDCDE9"/>
<path d="M263 204.19L259.3 208.89C250.44 217.13 240.3 220.98 228.17 217.89C213.17 214.06 203.42 199.46 205.17 183.65C206.84 168.7 220 157 235.22 156.82C258.67 156.55 273.69 178.95 264.53 200.53C264 201.75 263.48 203 263 204.19ZM256 169.11L254.95 168.11L255 168.19L253 167.09V167.15L250.9 165.23L250.99 165.18C247.91 163.57 244.99 161.03 241.74 160.53C234.5 159.44 226.95 158.75 221.25 165.18H221.32C220.62 165.89 219.91 166.6 219.21 167.32L216.4 170.02L213.21 174.02H213.28C211.71 177.02 209.44 179.82 208.73 183.02C207 190.74 208.32 198.02 214.32 203.8L214.39 203.72C215.09 207.52 217.12 209.85 221.23 209.84V209.78C222.56 213.72 225.81 213.94 229.23 213.89H229.15C236.01 217.75 247.69 215.59 251.03 209.83V209.89C255.15 209.89 257.16 207.56 257.89 203.77L257.95 203.86C259.95 200.02 262.84 196.37 263.68 192.29C265.08 185.46 264.59 178.5 258.94 173.13V173.21L257.02 171.11H257C256.62 170.45 256.25 169.78 255.88 169.11H256Z" fill="#273075"/>
<path d="M216.35 170L219.16 167.29L221.27 165.16H221.2C225.25 164.02 229.34 161.84 233.35 161.97C239.24 162.17 245.08 163.97 250.94 165.16L250.86 165.21L252.95 167.13V167.07L254.95 168.17L254.9 168.09L255.95 169.09H255.86L256.97 171.09H256.9L258.82 173.19V173.11C259.88 177.53 262.01 182.01 261.75 186.35C261.4 192.23 259.23 198.01 257.83 203.84L257.77 203.75L251 209.85V209.79C244.19 213.79 236.77 214.49 229.11 213.85H229.18L221.18 209.74V209.8L214.34 203.68L214.26 203.76C209.44 194 208.02 184.12 213.26 174.01H213.19L216.35 170ZM232.09 166.07C245.79 166.01 254.14 172.88 258.18 185.77C258.27 178.09 255.04 172.59 249.1 168.62C243.94 165.2 238.46 163.54 232.09 166.1V166.07Z" fill="#68C2BB"/>
<path d="M257.87 203.82C259.27 197.99 261.44 192.21 261.79 186.33C262.05 181.99 259.92 177.51 258.86 173.09C264.51 178.46 265 185.42 263.6 192.25C262.76 196.33 259.85 200 257.87 203.82Z" fill="#212B60"/>
<path d="M213.23 174.06C208.02 184.17 209.44 194.06 214.23 203.81C208.23 197.99 206.92 190.75 208.65 183.03C209.39 179.86 211.66 177 213.23 174.06Z" fill="#212B60"/>
<path d="M250.94 165.15C245.08 164 239.24 162.15 233.35 161.96C229.35 161.83 225.25 164.01 221.2 165.15C226.9 158.72 234.45 159.41 241.69 160.5C244.93 161 247.86 163.54 250.94 165.15Z" fill="#212B60"/>
<path d="M229.08 213.85C236.74 214.49 244.16 213.79 250.97 209.79C247.62 215.55 235.94 217.71 229.08 213.85Z" fill="#212B60"/>
<path d="M214.34 203.73L221.18 209.85C217.07 209.86 215 207.53 214.34 203.73Z" fill="#212B60"/>
<path d="M251 209.85L257.86 203.73C257.08 207.52 255.07 209.86 251 209.85Z" fill="#212B60"/>
<path d="M221.18 209.79L229.18 213.9C225.76 214 222.51 213.73 221.18 209.79Z" fill="#212B60"/>
<path d="M216.35 170L213.16 174L216.35 170Z" fill="#212B60"/>
<path d="M221.27 165.19L219.16 167.32L221.27 165.19Z" fill="#212B60"/>
<path d="M253 167.12L250.91 165.2L253 167.12Z" fill="#212B60"/>
<path d="M258.82 173.17L256.9 171.07L258.82 173.17Z" fill="#212B60"/>
<path d="M255 168.16L253 167.06L255 168.16Z" fill="#212B60"/>
<path d="M257 171.07L255.89 169.07C256.22 169.74 256.59 170.41 257 171.07Z" fill="#212B60"/>
<path d="M256 169.11L254.95 168.11L256 169.11Z" fill="#212B60"/>
<path d="M232.09 166.1C238.46 163.54 243.94 165.2 249.09 168.65C255.03 172.65 258.26 178.12 258.17 185.8C254.14 172.91 245.79 166 232.09 166.1Z" fill="#E8EEFB"/>
</svg>
