<svg width="298" height="203" viewBox="0 0 298 203" fill="none" xmlns="http://www.w3.org/2000/svg">
<g clip-path="url(#clip0)">
<path d="M298 200.706H0V203H298V200.706Z" fill="#85848B"/>
<path d="M236.094 160.192C236.094 161.957 226.329 167.102 214.731 167.102C203.133 167.102 194.096 161.957 194.096 160.192C194.096 158.427 203.496 158.995 215.106 158.995C226.716 158.995 236.094 158.424 236.094 160.192Z" fill="#504F60"/>
<path opacity="0.2" d="M236.094 160.192C236.094 161.957 226.329 167.102 214.731 167.102C203.133 167.102 194.096 161.957 194.096 160.192" fill="black"/>
<path d="M119.291 127.806C121.173 128.06 123.126 128.222 124.929 127.605C125.213 127.513 125.526 127.306 125.497 127.007C125.477 126.898 125.433 126.796 125.369 126.708C124.69 125.634 124.119 124.488 123.666 123.289C123.648 123.226 123.611 123.171 123.561 123.133C123.502 123.111 123.438 123.111 123.379 123.133C122.547 123.363 121.829 123.929 121.003 124.171C120.581 124.293 120.142 124.327 119.708 124.273C119.333 124.228 118.822 123.902 118.481 123.944C118.675 125.251 119.146 126.472 119.291 127.806Z" fill="#6C63FF"/>
<path d="M154.891 124.494C156.132 123.597 157.418 122.654 158.151 121.269C158.203 121.187 158.233 121.09 158.239 120.991C158.226 120.893 158.19 120.801 158.134 120.722C157.436 119.553 156.537 118.532 155.485 117.709C154.935 118.118 154.439 118.601 154.008 119.145C153.696 119.492 152.833 120.043 152.824 120.572C152.824 120.872 153.154 121.219 153.307 121.47C153.514 121.793 153.71 122.122 153.897 122.457C154.005 122.622 154.991 124.428 154.891 124.494Z" fill="#6C63FF"/>
<path d="M126.669 131.811C126.691 132.12 126.611 132.426 126.442 132.679C126.309 132.819 126.145 132.922 125.965 132.978C123.333 133.971 120.287 132.733 117.66 133.711C117.121 133.911 116.61 134.202 116.067 134.393C115.421 134.598 114.754 134.722 114.08 134.764C113.152 134.857 112.217 134.917 111.286 134.943C110.579 134.996 109.868 134.931 109.179 134.749C108.835 134.656 108.514 134.488 108.235 134.256C107.957 134.023 107.728 133.732 107.564 133.4C107.421 133.102 107.393 132.759 107.484 132.44C107.526 132.33 107.584 132.229 107.658 132.14C107.836 131.93 108.045 131.751 108.277 131.611L109.245 130.953C109.699 130.614 110.192 130.339 110.713 130.133C111.096 130.001 111.502 129.945 111.891 129.834C113.251 129.415 114.29 128.278 115.255 127.186L116.573 125.706C116.696 125.543 116.852 125.411 117.03 125.32C117.213 125.256 117.407 125.236 117.598 125.263C118.878 125.359 120.113 125.796 121.189 126.531C121.465 126.749 121.762 126.933 122.075 127.082C122.848 127.399 123.838 127.16 124.551 126.759C124.889 126.567 124.815 126.46 124.957 126.118C125.099 125.777 125.445 125.559 125.746 125.87C125.837 125.978 125.902 126.107 125.934 126.247C126.218 127.234 126.11 128.296 126.11 129.331C126.101 129.493 126.121 129.655 126.167 129.81C126.239 129.966 126.326 130.114 126.425 130.253C126.445 130.289 126.463 130.327 126.479 130.366C126.653 130.825 126.718 131.321 126.669 131.811Z" fill="#514E7F"/>
<path d="M126.669 131.811C126.691 132.12 126.611 132.426 126.442 132.679C126.309 132.819 126.145 132.922 125.965 132.978C123.333 133.971 120.287 132.733 117.66 133.711C117.121 133.911 116.61 134.202 116.067 134.393C115.421 134.598 114.754 134.722 114.08 134.764C113.152 134.857 112.217 134.917 111.286 134.944C110.579 134.996 109.868 134.931 109.179 134.749C108.835 134.656 108.514 134.488 108.235 134.256C107.957 134.023 107.728 133.732 107.564 133.4C107.421 133.102 107.393 132.759 107.484 132.44C107.526 132.33 107.584 132.229 107.658 132.14C107.811 132.479 107.922 132.927 108.018 133.089C108.149 133.328 108.326 133.536 108.539 133.697C108.751 133.858 108.994 133.97 109.25 134.025C109.635 134.05 110.02 133.998 110.386 133.873C112.771 133.25 115.307 133.241 117.598 132.299C118.384 131.973 119.134 131.539 119.96 131.342C120.786 131.144 121.664 131.198 122.515 131.123C123.861 131.01 125.164 130.582 126.49 130.358C126.662 130.82 126.723 131.319 126.669 131.811Z" fill="#464353"/>
<path d="M160.919 124.312C160.794 125.365 160.161 126.271 159.465 127.04C158.77 127.809 157.983 128.5 157.43 129.385C156.748 130.483 156.442 131.844 155.556 132.772C155.216 133.109 154.834 133.396 154.42 133.624C153.957 133.912 153.467 134.15 152.958 134.333C151.635 134.779 150.209 134.677 148.827 134.569C148.378 134.565 147.933 134.475 147.515 134.303C147.325 134.201 147.142 134.083 146.97 133.95C146.623 133.725 146.332 133.418 146.118 133.053C146.013 132.854 145.984 132.621 146.036 132.401C146.115 132.158 146.251 131.94 146.43 131.766C146.742 131.426 147.076 131.109 147.43 130.818C147.916 130.488 148.354 130.085 148.73 129.622C148.961 129.256 149.131 128.851 149.233 128.425C149.434 127.679 149.557 126.911 149.599 126.136C149.597 125.622 149.648 125.108 149.749 124.605C149.96 123.815 150.516 123.109 150.454 122.292C150.428 122.175 150.438 122.053 150.482 121.942C150.548 121.856 150.64 121.796 150.743 121.772C151.177 121.59 151.635 121.478 152.1 121.44C152.334 121.423 152.568 121.461 152.786 121.551C153.004 121.641 153.201 121.781 153.361 121.96C153.554 122.206 153.682 122.559 153.966 122.654C154.106 122.695 154.254 122.701 154.397 122.672C155.096 122.598 155.834 122.505 156.385 122.029C156.639 121.789 156.844 121.495 156.986 121.167C157.127 120.839 157.203 120.484 157.208 120.124C157.208 119.851 157.092 119.567 157.492 119.525C157.793 119.483 158.032 119.824 158.185 120.034C158.738 120.815 159.306 121.631 159.514 122.583C159.594 122.55 159.68 122.532 159.766 122.532C159.943 122.53 160.118 122.574 160.276 122.658C160.434 122.743 160.57 122.867 160.672 123.019C160.898 123.405 160.986 123.864 160.919 124.312Z" fill="#514E7F"/>
<path d="M160.919 124.312C160.794 125.365 160.161 126.271 159.465 127.04C158.77 127.809 157.983 128.5 157.43 129.385C156.748 130.483 156.442 131.844 155.556 132.772C155.216 133.109 154.834 133.396 154.42 133.624C153.957 133.912 153.467 134.15 152.958 134.333C151.635 134.779 150.21 134.677 148.827 134.57C148.378 134.565 147.933 134.475 147.515 134.303C147.325 134.201 147.142 134.083 146.97 133.95C146.623 133.725 146.332 133.418 146.118 133.053C146.384 132.918 146.675 132.845 146.97 132.837C147.583 132.873 148.032 133.484 148.62 133.672C149.457 133.938 150.292 133.316 151.141 133.104C151.694 132.966 152.276 133.002 152.824 132.805C153.281 132.619 153.703 132.349 154.071 132.009C154.575 131.629 155.024 131.173 155.402 130.657C155.717 130.14 155.979 129.589 156.183 129.014C156.632 127.912 157.159 126.848 157.762 125.831C157.851 125.67 157.959 125.522 158.083 125.389C158.216 125.26 158.367 125.17 158.517 125.057C159.085 124.605 159.321 123.86 159.519 123.13C159.573 122.908 159.648 122.693 159.744 122.487C159.921 122.485 160.096 122.529 160.253 122.614C160.411 122.699 160.547 122.822 160.649 122.974C160.894 123.37 160.99 123.846 160.919 124.312Z" fill="#464353"/>
<path d="M101.383 31.0429C102.09 31.6008 102.671 32.3157 103.086 33.1369C103.484 33.9566 105.775 40.3165 105.642 41.2409C106.388 40.4481 109.333 40.3195 110.088 39.5267C110.403 39.1947 112.104 37.5374 112.359 37.1515C112.615 36.7656 114.511 35.9549 114.719 35.5481C115.494 34.0852 109.222 28.542 110.025 27.0971C110.07 27.0307 110.093 26.9509 110.091 26.8697C110.072 26.8015 110.036 26.7403 109.986 26.6932C109.472 26.1398 108.79 25.7958 108.171 25.3859C107.552 24.9761 106.956 24.4047 106.789 23.6509C106.198 23.9372 105.657 24.3232 105.185 24.7936C104.034 25.8327 102.903 26.8927 101.792 27.9736C101.357 28.3984 100.517 28.9638 100.315 29.5711C100.077 30.2232 100.968 30.6869 101.383 31.0429Z" fill="#A1616A"/>
<path d="M111.537 28.6885C110.574 29.3698 109.675 30.145 108.851 31.0039C108.073 31.8146 107.334 32.7539 107.147 33.8877C107.068 34.3334 107.079 34.7851 107.014 35.2369C106.73 37.1963 105.123 38.6322 104.413 40.466C104.207 41.032 104.056 41.6183 103.961 42.216C103.762 43.3492 103.653 44.4979 103.635 45.6503C103.618 46.7661 104.657 47.5349 105.038 48.5759C105.418 49.617 105.52 50.6879 105.713 51.7559C106.077 53.7722 106.744 55.7167 107.417 57.6492C108.817 61.7236 113.354 72.9866 114.753 77.064C119.043 75.9302 130.463 73.3246 134.262 70.9344C135.528 70.1387 125.474 61.1612 126.829 60.5419C126.906 60.5292 126.98 60.4978 127.044 60.45C127.107 60.4022 127.16 60.3394 127.197 60.2666C127.234 60.1937 127.254 60.1129 127.256 60.0304C127.258 59.9478 127.242 59.8659 127.209 59.7911C125.855 53.5508 121.619 48.4234 119.697 42.3477C119.029 40.2386 117.831 38.4378 116.923 36.4335C116.099 34.6176 115.659 32.6103 114.674 30.8842C114.488 30.5286 114.245 30.2098 113.956 29.9419C113.71 29.7434 113.444 29.5739 113.163 29.4364C112.601 29.1492 112.079 28.9787 111.537 28.6885Z" fill="#514E7F"/>
<path d="M101.61 30.3337C105.319 30.3337 108.325 27.1662 108.325 23.2588C108.325 19.3515 105.319 16.184 101.61 16.184C97.9018 16.184 94.8955 19.3515 94.8955 23.2588C94.8955 27.1662 97.9018 30.3337 101.61 30.3337Z" fill="#A1616A"/>
<path d="M108.441 26.5825C108.776 26.2572 109.196 26.0466 109.647 25.9782C110.098 25.9098 110.557 25.987 110.965 26.1995C111.42 26.4478 111.817 26.9504 111.715 27.4769L115.045 27.5308C115.576 27.5155 116.105 27.5667 116.624 27.6833C117.146 27.8031 117.612 28.1109 117.941 28.5539C117.981 28.6107 118.027 28.6795 118.095 28.6885C118.15 28.6894 118.204 28.6704 118.248 28.6346C118.76 28.3639 119.338 28.2598 119.906 28.3355C121.706 28.4581 123.37 29.4064 124.781 30.5911C125.036 30.7754 125.233 31.0344 125.349 31.3359C125.465 31.7338 125.326 32.2334 125.633 32.5176C125.633 35.8082 126.706 38.8835 127.422 42.0904C127.549 42.6618 128.069 43.1673 128.43 43.616C128.875 44.1135 129.239 44.6857 129.506 45.3092C130.113 46.9725 129.276 48.9289 129.866 50.5982C130.116 51.3042 130.599 51.8845 131.002 52.4978C131.533 53.2059 131.869 54.0547 131.973 54.9508C131.999 55.3517 131.95 55.7555 131.973 56.1474C132.011 56.6864 132.106 57.2192 132.257 57.7359C132.499 58.7012 132.753 59.6654 133.018 60.6287C133.449 62.1843 134.012 63.8625 135.335 64.6911C132.14 65.2625 128.773 65.8219 125.729 64.6523C125.305 64.4997 124.902 64.2873 124.531 64.021C123.433 63.1954 122.902 61.7834 122.427 60.4492C121.899 58.9534 121.363 57.4308 121.255 55.8393C121.256 55.3331 121.188 54.8294 121.053 54.3436C120.744 53.476 119.918 52.9525 119.168 52.4709C118.322 51.9822 117.555 51.354 116.897 50.6102C116.57 50.2355 116.32 49.7942 116.162 49.3136C116.003 48.833 115.941 48.3234 115.977 47.8161C116.034 47.3225 116.218 46.8469 116.235 46.3503C116.252 45.8537 116.042 45.2853 115.591 45.1537C113.265 44.4118 112.155 41.51 111.638 39.0091C111.415 37.7166 111.316 36.4038 111.34 35.0903L111.309 32.5385C110.988 32.2309 110.73 31.8577 110.55 31.4417C110.371 31.0256 110.273 30.5754 110.264 30.1184C110.295 29.8518 110.29 29.5819 110.25 29.3167C110.138 28.9925 109.955 28.7005 109.716 28.4641C109.203 27.909 108.773 27.2744 108.441 26.5825Z" fill="#464353"/>
<path d="M101.29 34.6714C101.213 35.4611 101.384 36.2718 101.216 37.0466C101.151 37.3458 101.037 37.6449 100.955 37.9231C100.703 39.0383 100.812 40.2101 101.264 41.2527C101.716 42.285 102.257 43.2713 102.88 44.1993C103.091 44.5161 103.264 44.8586 103.397 45.2194C103.504 45.5982 103.571 45.9886 103.595 46.3831C103.76 47.9673 104.023 49.5382 104.385 51.0857C104.703 52.4259 108.314 63.8833 109.155 64.9453C109.307 65.1805 109.538 65.3461 109.802 65.409C109.992 65.4165 110.181 65.3755 110.353 65.2893L112.056 64.6013C112.201 64.5546 112.335 64.4772 112.451 64.374C112.611 64.1774 112.697 63.9266 112.695 63.668C112.817 62.2081 109.197 50.6699 108.737 49.2908C107.346 45.1267 105.495 41.1121 104.589 36.8013C104.336 35.6047 104.203 33.762 103.371 32.8077C103.027 32.4128 103.144 32.5803 102.732 32.7867C102.524 32.8818 102.323 32.9928 102.13 33.1188C101.889 33.2953 101.689 33.5263 101.543 33.7949C101.398 34.0635 101.311 34.363 101.29 34.6714Z" fill="#464353"/>
<path d="M106.46 42.5721C106.917 45.1178 107.389 47.6576 107.857 50.2034L114.524 48.3636C114.578 47.6277 114.206 46.9456 113.956 46.2696C113.348 44.6631 113.334 42.8742 112.843 41.2229C112.471 39.9665 111.824 38.8118 111.474 37.5464C111.273 36.8105 111.171 36.0506 110.972 35.3057C110.759 34.5742 110.497 33.8595 110.188 33.1668C109.814 32.1622 109.326 31.209 108.735 30.3279C107.883 30.6629 106.974 31.0518 106.489 31.8625C106.24 32.3193 106.098 32.8321 106.074 33.3583C105.958 34.9348 106.5 36.5203 106.321 38.0878C106.137 39.5807 106.184 41.0951 106.46 42.5721Z" fill="#EA5B70"/>
<path d="M114.634 76.4357C115.009 77.9315 114.467 79.505 114.024 80.9858C113.357 83.2163 112.902 85.5111 112.666 87.8363C112.638 88.4281 112.525 89.0119 112.331 89.5684C112.121 90.068 111.764 90.4898 111.519 90.9654C110.849 92.2159 110.866 93.7416 111.011 95.1715C111.108 96.1138 111.253 97.0532 111.431 97.9805C111.65 99.1143 111.92 100.299 111.605 101.406C112.133 101.283 112.49 102.004 112.456 102.569C112.422 103.135 112.249 103.766 112.507 104.254C113.16 104.505 113.166 105.45 113.146 106.183C113.157 107.454 113.31 108.719 113.601 109.952C114.589 114.958 115.637 119.95 116.746 124.928C119.146 125.712 121.948 126.528 124.236 125.442C124.662 125.242 125.088 124.922 125.185 124.437C125.21 124.176 125.179 123.912 125.094 123.666L124.009 119.507C123.745 118.502 123.481 117.464 123.62 116.432C123.725 115.663 124.043 114.835 123.686 114.156C123.563 113.922 123.37 113.74 123.228 113.518C122.661 112.642 122.959 111.469 123.004 110.407C123.022 110.169 123.007 109.929 122.959 109.695C122.881 109.422 122.772 109.16 122.635 108.914C121.739 107.081 121.308 105.034 121.386 102.973C121.42 102.71 121.385 102.443 121.286 102.199C121.218 102.098 121.156 101.992 121.102 101.881C121.06 101.689 121.081 101.488 121.161 101.31C120.836 101.05 120.542 100.748 120.287 100.413C120.444 100.309 120.578 100.17 120.676 100.005C120.775 99.8393 120.837 99.6525 120.857 99.4583C120.878 99.2641 120.856 99.0676 120.793 98.8836C120.731 98.6996 120.63 98.533 120.497 98.3963C120.613 98.3718 120.72 98.3139 120.806 98.229C120.893 98.1442 120.955 98.0358 120.987 97.9159C121.018 97.7959 121.017 97.6691 120.985 97.5496C120.952 97.43 120.888 97.3224 120.801 97.2386C120.662 97.1369 120.477 97.092 120.378 96.9395C120.225 96.7181 120.349 96.41 120.474 96.1736L121.136 94.9142C121.63 93.9779 121.741 92.8202 122.272 91.9227C123.033 90.6154 123.529 89.1586 124.021 87.7167L125.931 82.1615L127.218 83.3371C127.646 83.682 128.005 84.1131 128.274 84.6055C128.457 85.0922 128.572 85.6039 128.617 86.1252C129.089 89.1406 130.889 91.7552 131.556 94.7258C131.704 95.3869 131.803 96.0809 132.163 96.6463C132.293 96.8199 132.408 97.0039 132.51 97.1967C132.604 97.4908 132.653 97.7988 132.655 98.1091C132.714 98.7168 132.897 99.3037 133.191 99.8302C133.485 100.357 133.883 100.81 134.358 101.16C134.991 101.618 135.778 101.932 136.121 102.656C136.19 102.88 136.285 103.095 136.405 103.293C136.712 103.682 137.373 103.727 137.504 104.215C137.578 104.487 137.442 104.813 137.586 105.052C137.669 105.163 137.777 105.249 137.902 105.301L139.75 106.273C141.817 107.362 142.873 109.863 144.398 111.685C144.924 112.278 145.391 112.928 145.789 113.623C146.448 114.865 146.751 116.423 147.864 117.213C148.164 117.376 148.436 117.589 148.671 117.844C149.02 118.329 148.892 119.008 148.923 119.618C148.955 120.228 149.398 120.955 149.948 120.77C149.755 121.509 149.755 122.289 149.948 123.028C152.367 122.897 154.673 121.913 156.496 120.234C157.035 119.738 157.555 119.103 157.56 118.35C157.569 118.22 157.541 118.09 157.481 117.976C157.372 117.828 157.228 117.714 157.064 117.644C155.334 116.656 154.815 114.368 153.94 112.51C153.177 110.871 152.047 109.459 151.101 107.936C149.046 104.661 147.643 100.697 144.534 98.5339C143.85 98.0583 143.055 97.6365 142.711 96.8497C142.521 96.41 142.498 95.9074 142.348 95.4527C142.197 94.998 141.837 94.5552 141.377 94.5552C141.632 93.8971 141.581 93.0954 141.598 92.3834C141.616 92.0674 141.581 91.7506 141.496 91.4471C141.378 91.1205 141.225 90.8093 141.039 90.5197C140.228 89.0727 139.822 87.4132 139.869 85.7333C139.892 84.8688 140.037 83.9773 139.79 83.1517C139.665 82.7358 139.446 82.3559 139.296 81.9551C139.069 81.2287 138.949 80.47 138.941 79.7054L138.77 76.8306C138.745 75.8732 138.627 74.921 138.418 73.9887C137.85 71.757 137.283 62.4086 135.338 61.3556C133.393 60.3026 130.051 67.4971 127.862 67.6377C126.894 67.6802 125.937 67.8748 125.023 68.2151C123.566 68.7895 122.345 69.8604 121.156 70.9074L117.13 74.4703C116.278 75.2092 115.574 75.9152 114.634 76.4357Z" fill="#464353"/>
<path d="M95.3103 15.4032C96.1961 14.1288 97.718 13.4527 99.2171 13.3959C100.716 13.3391 102.193 13.8357 103.536 14.5387C103.932 14.7762 104.356 14.9591 104.796 15.0831C105.506 15.2357 106.295 15.0323 106.937 15.3823C107.789 15.8579 107.953 17.0695 107.88 18.0746C107.806 19.0797 107.627 20.1956 108.135 21.0661C108.315 21.3144 108.479 21.5752 108.626 21.8469C108.845 22.3644 108.717 22.9627 108.587 23.5102C108.254 23.211 108.067 22.7593 107.772 22.4123C107.476 22.0653 106.962 21.8319 106.596 22.0922C106.23 22.3524 106.236 22.8251 106.216 23.2499C106.196 23.6747 106.094 24.1832 105.713 24.3209C105.554 24.359 105.388 24.346 105.236 24.2836C105.085 24.2212 104.954 24.1122 104.861 23.9708C104.211 23.1332 104.472 21.796 103.828 20.9524C103.462 20.4738 102.851 20.2405 102.513 19.7379C102.247 19.343 102.178 18.8404 101.946 18.4156C101.713 17.9908 101.17 17.6797 100.81 17.9729C100.687 18.0968 100.584 18.2413 100.506 18.4007C100.281 18.74 99.9543 18.9896 99.5782 19.109C99.2021 19.2284 98.7988 19.2107 98.4334 19.0588C98.1543 18.8782 97.8522 18.7402 97.5362 18.649C97.3294 18.6381 97.1239 18.6883 96.9427 18.794C96.7616 18.8998 96.6122 19.0568 96.5113 19.2473C96.3075 19.6279 96.2091 20.0611 96.2274 20.4977C96.2274 21.096 96.3296 21.7332 96.0059 22.2118C95.8828 22.392 95.7287 22.5463 95.5516 22.6666C95.0775 22.9866 94.4159 23.202 93.9787 22.8371C93.8305 22.6916 93.7202 22.5085 93.6586 22.3052C93.5969 22.102 93.5859 21.8854 93.6266 21.6764C93.7118 21.26 93.8237 20.8502 93.9616 20.4499C94.2115 19.5225 93.885 18.4785 94.1576 17.6049C94.443 16.8183 94.831 16.0773 95.3103 15.4032Z" fill="#464353"/>
<path d="M98.907 36.5083C98.8644 36.7263 98.8862 36.9528 98.9695 37.1574C99.0539 37.2967 99.1688 37.4127 99.3045 37.4955C100.259 38.1222 101.345 38.4929 102.467 38.5754C102.62 38.5782 102.77 38.6192 102.905 38.695C103.172 38.8805 103.189 39.2933 103.089 39.6224C102.957 39.9328 102.888 40.2692 102.888 40.6096C102.97 41.2348 103.674 41.5071 104.267 41.5998C105.099 41.7105 106.011 41.6536 106.669 41.1062C107.116 40.6774 107.456 40.1403 107.66 39.5416C109.29 35.5958 109.861 31.2342 111.51 27.3004C111.635 27.0436 111.719 26.7665 111.757 26.4807C111.775 26.3377 111.756 26.1923 111.702 26.0598C111.648 25.9272 111.561 25.8122 111.451 25.7269C111.144 25.5265 110.667 25.6401 110.46 25.326C110.358 25.1675 110.369 24.9521 110.278 24.7846C110.088 24.4286 109.588 24.4854 109.248 24.279C108.981 24.1294 108.796 23.8213 108.498 23.7615C108.352 23.7528 108.205 23.7801 108.071 23.8414C107.936 23.9027 107.817 23.9962 107.723 24.1145C106.755 25.0658 106.246 26.4149 105.707 27.6893C104.883 29.6427 103.919 31.5269 102.822 33.3253C102.95 33.1159 102.209 31.5304 101.919 31.4616C101.411 31.3539 100.761 32.2932 100.486 32.6432C99.6214 33.7473 99.0738 35.088 98.907 36.5083Z" fill="#EA5B70"/>
<path opacity="0.1" d="M109.222 24.5571C109.018 24.5607 108.818 24.6126 108.636 24.7089C108.453 24.8052 108.294 24.9435 108.169 25.1135C107.865 25.5294 107.806 26.0798 107.729 26.6093C107.471 28.2868 106.902 29.8947 106.057 31.3418" fill="black"/>
<path opacity="0.1" d="M110.671 25.7509C110.389 25.7575 110.114 25.8412 109.873 25.9939C109.631 26.1465 109.432 26.3628 109.294 26.6214C109.106 27.0919 108.989 27.5905 108.947 28.0992C108.704 29.2268 108.234 30.2866 107.57 31.2073" fill="black"/>
<path d="M178.147 84.2345V80.5191C178.147 77.784 177.115 75.1612 175.279 73.2274C173.443 71.2937 170.954 70.2074 168.358 70.2074H29.0963C26.5004 70.2074 24.0108 71.2937 22.175 73.2274C20.3391 75.1612 19.3074 77.784 19.3066 80.5191V87.3696L178.147 84.2345Z" fill="#33323D"/>
<path d="M67.8375 65.8518C67.8375 65.8518 67.44 91.836 71.8125 100.386C76.1849 108.935 78.0588 146.129 78.0588 146.129C78.0588 146.129 123.895 151.124 155.837 140.146C187.778 129.167 255.743 124.677 255.743 124.677L244.29 43.3408C244.29 43.3408 187.707 39.5177 155.519 55.6927C123.33 71.8677 67.8375 65.8518 67.8375 65.8518Z" fill="#8DD070"/>
<path opacity="0.1" d="M67.8375 65.8518C67.8375 65.8518 67.44 91.836 71.8125 100.386C76.1849 108.935 78.0588 146.129 78.0588 146.129C78.0588 146.129 123.895 151.124 155.837 140.146C187.778 129.167 255.743 124.677 255.743 124.677L244.29 43.3408C244.29 43.3408 187.707 39.5177 155.519 55.6927C123.33 71.8677 67.8375 65.8518 67.8375 65.8518Z" fill="black"/>
<path d="M77.9823 75.3439C77.9823 75.3439 76.5485 96.7839 80.1458 103.634C83.7431 110.485 83.9106 141.067 83.9106 141.067C83.9106 141.067 125.162 143.083 154.505 132.559C183.849 122.035 245.511 115.209 245.511 115.209L238.504 48.6926C238.504 48.6926 187.483 48.1392 157.705 62.9531C127.927 77.767 77.9823 75.3439 77.9823 75.3439Z" fill="#8DD070"/>
<path opacity="0.1" d="M157.252 120.381C163.121 119.61 166.608 108.234 165.04 94.9703C163.472 81.7069 157.443 71.5792 151.574 72.3494C145.704 73.1197 142.217 84.4963 143.785 97.7598C145.353 111.023 151.382 121.151 157.252 120.381Z" fill="black"/>
<path opacity="0.2" d="M213.269 3.71851C213.269 3.71851 158.298 18.3768 132.376 44.1785C106.454 69.9802 51.8838 82.1974 51.8838 82.1974C51.8838 82.1974 59.0727 107.054 65.7222 113.779C72.3717 120.504 84.9835 155.301 84.9835 155.301C84.9835 155.301 130.062 145.231 157.262 124.446C184.462 103.661 247.853 77.411 247.853 77.411L213.269 3.71851Z" fill="black"/>
<path d="M51.0576 78.4759C51.0576 78.4759 58.2437 103.335 64.8875 110.06C71.5313 116.785 84.1488 151.579 84.1488 151.579C84.1488 151.579 129.233 141.513 156.436 120.728C183.638 99.9429 247.024 73.7015 247.024 73.7015L212.439 0C212.439 0 157.472 14.6583 131.55 40.46C105.628 66.2617 51.0576 78.4759 51.0576 78.4759Z" fill="#8DD070"/>
<path opacity="0.1" d="M51.0576 78.4759C51.0576 78.4759 58.2437 103.335 64.8875 110.06C71.5313 116.785 84.1488 151.579 84.1488 151.579C84.1488 151.579 129.233 141.513 156.436 120.728C183.638 99.9429 247.024 73.7015 247.024 73.7015L212.439 0C212.439 0 157.472 14.6583 131.55 40.46C105.628 66.2617 51.0576 78.4759 51.0576 78.4759Z" fill="black"/>
<path d="M63.4678 84.2316C63.4678 84.2316 68.3484 105.103 73.7685 110.458C79.1886 115.813 88.2486 144.86 88.2486 144.86C88.2486 144.86 128.094 133.439 152.958 113.934C177.821 94.4296 234.526 68.0236 234.526 68.0236L208.487 6.96118C208.487 6.96118 159.769 22.9268 135.74 46.6554C111.712 70.3839 63.4678 84.2316 63.4678 84.2316Z" fill="#8DD070"/>
<path opacity="0.1" d="M152.039 101.465C157.401 98.8343 157.406 86.8792 152.051 74.7626C146.696 62.6459 138.008 54.9561 132.646 57.5869C127.284 60.2177 127.279 72.1728 132.634 84.2894C137.989 96.4061 146.677 104.096 152.039 101.465Z" fill="black"/>
<path opacity="0.1" d="M181.907 87.8812V191.088C181.907 192.26 181.688 193.421 181.262 194.504C180.836 195.586 180.212 196.57 179.425 197.399C178.639 198.228 177.704 198.885 176.677 199.333C175.649 199.781 174.547 200.012 173.435 200.012H27.782C25.5363 200.011 23.3828 199.07 21.7951 197.397C20.2073 195.723 19.3154 193.454 19.3154 191.088V77.4768C23.4891 79.1102 23.4891 79.1102 27.782 78.9726H173.435C175.679 78.9726 177.831 79.9106 179.419 81.5808C181.008 83.2509 181.902 85.5169 181.907 87.8812Z" fill="black"/>
<path d="M181.907 89.1945V192.401C181.906 194.768 181.013 197.038 179.424 198.711C177.836 200.385 175.681 201.325 173.435 201.325H27.782C25.5363 201.324 23.3828 200.383 21.7951 198.71C20.2073 197.037 19.3154 194.767 19.3154 192.401V78.7871C23.4891 80.4175 23.4891 80.4175 27.782 80.2829H173.435C175.679 80.2829 177.832 81.2213 179.42 82.8921C181.009 84.5629 181.903 86.8296 181.907 89.1945Z" fill="#FF867F"/>
<path opacity="0.1" d="M181.492 127.351V160.356H151.112C146.995 160.298 143.065 158.533 140.173 155.445C137.281 152.356 135.659 148.192 135.659 143.854C135.659 139.515 137.281 135.351 140.173 132.262C143.065 129.174 146.995 127.409 151.112 127.351H181.492Z" fill="black"/>
<path d="M181.907 126.471V159.483H151.527C147.41 159.424 143.48 157.66 140.588 154.571C137.696 151.483 136.074 147.319 136.074 142.98C136.074 138.641 137.696 134.477 140.588 131.389C143.48 128.3 147.41 126.536 151.527 126.477L181.907 126.471Z" fill="#C50E29"/>
<path opacity="0.1" d="M152.983 150.29C156.356 150.29 159.09 147.409 159.09 143.855C159.09 140.301 156.356 137.42 152.983 137.42C149.61 137.42 146.876 140.301 146.876 143.855C146.876 147.409 149.61 150.29 152.983 150.29Z" fill="black"/>
<path d="M153.398 149.416C156.771 149.416 159.505 146.535 159.505 142.982C159.505 139.428 156.771 136.547 153.398 136.547C150.025 136.547 147.291 139.428 147.291 142.982C147.291 146.535 150.025 149.416 153.398 149.416Z" fill="#EA5B70"/>
<path d="M234.64 126.187C234.881 128.942 232.902 131.617 233.479 134.315C233.604 134.893 233.839 135.437 233.925 136.02C234.163 137.624 233.257 139.14 232.391 140.481L224.953 151.98C224.655 152.486 224.298 152.95 223.891 153.362C222.471 154.696 220.336 154.559 218.468 154.957C217.154 155.237 215.915 155.815 214.834 156.65C214.788 156.69 214.76 156.748 214.753 156.81C214.747 156.872 214.763 156.935 214.799 156.985C215.108 157.428 215.517 157.782 215.989 158.016C216.462 158.249 216.982 158.355 217.502 158.322C217.698 158.594 217.502 158.992 217.219 159.187C216.818 159.486 216.27 159.557 216.191 160.269C216.162 160.518 216.21 160.769 216.327 160.987C216.627 161.471 217.093 161.813 217.627 161.942C220.203 162.77 222.985 161.314 224.913 159.33C226.841 157.347 228.223 154.843 230.114 152.824C231.162 151.708 232.352 150.75 233.431 149.668C235.583 147.508 237.255 144.881 238.871 142.252C239.356 141.459 239.844 140.645 240.049 139.727C240.253 138.808 240.157 137.881 240.387 136.993C240.688 135.826 241.497 134.899 242.17 133.92C243.49 132.006 244.37 129.663 244.197 127.306C244.024 124.949 242.635 122.618 240.523 121.817C239.868 121.54 239.146 121.494 238.465 121.685C237.599 121.966 236.96 122.72 236.369 123.441L234.95 125.161C234.596 125.539 234.316 125.986 234.126 126.477C234.035 126.724 234.014 126.993 234.064 127.253C234.114 127.512 234.235 127.751 234.41 127.94" fill="#FBBEBE"/>
<path opacity="0.05" d="M234.64 126.187C234.881 128.942 232.902 131.617 233.479 134.315C233.604 134.893 233.839 135.437 233.925 136.02C234.163 137.624 233.257 139.14 232.391 140.481L224.953 151.98C224.655 152.486 224.298 152.95 223.891 153.362C222.471 154.696 220.336 154.559 218.468 154.957C217.154 155.237 215.915 155.815 214.834 156.65C214.788 156.69 214.76 156.748 214.753 156.81C214.747 156.872 214.763 156.935 214.799 156.985C215.108 157.428 215.517 157.782 215.989 158.016C216.462 158.249 216.982 158.355 217.502 158.322C217.698 158.594 217.502 158.992 217.219 159.187C216.818 159.486 216.27 159.557 216.191 160.269C216.162 160.518 216.21 160.769 216.327 160.987C216.627 161.471 217.093 161.813 217.627 161.942C220.203 162.77 222.985 161.314 224.913 159.33C226.841 157.347 228.223 154.843 230.114 152.824C231.162 151.708 232.352 150.75 233.431 149.668C235.583 147.508 237.255 144.881 238.871 142.252C239.356 141.459 239.844 140.645 240.049 139.727C240.253 138.808 240.157 137.881 240.387 136.993C240.688 135.826 241.497 134.899 242.17 133.92C243.49 132.006 244.37 129.663 244.197 127.306C244.024 124.949 242.635 122.618 240.523 121.817C239.868 121.54 239.146 121.494 238.465 121.685C237.599 121.966 236.96 122.72 236.369 123.441L234.95 125.161C234.596 125.539 234.316 125.986 234.126 126.477C234.035 126.724 234.014 126.993 234.064 127.253C234.114 127.512 234.235 127.751 234.41 127.94" fill="black"/>
<path d="M240.27 197.116C238.646 198.16 236.622 198.223 234.734 197.98C234.43 197.941 234.069 197.917 233.882 198.166C233.598 198.525 233.933 199.063 234.28 199.341C235.393 200.222 236.702 200.79 238.081 200.99C239.313 201.174 240.556 201.261 241.801 201.25C245.208 201.313 248.615 201.373 251.968 200.858C252.167 200.842 252.36 200.783 252.536 200.685C252.752 200.525 252.902 200.284 252.956 200.011C253.186 199.09 252.743 198.103 252.073 197.463C251.403 196.823 250.543 196.467 249.702 196.123L246.749 194.911C246.057 194.627 244.946 193.873 244.194 193.933C242.78 194.041 241.443 196.392 240.27 197.116Z" fill="#3F3D56"/>
<path opacity="0.05" d="M240.27 197.116C238.646 198.16 236.622 198.223 234.734 197.98C234.43 197.941 234.069 197.917 233.882 198.166C233.598 198.525 233.933 199.063 234.28 199.341C235.393 200.222 236.702 200.79 238.081 200.99C239.313 201.174 240.556 201.261 241.801 201.25C245.208 201.313 248.615 201.373 251.968 200.858C252.167 200.842 252.36 200.783 252.536 200.685C252.752 200.525 252.902 200.284 252.956 200.011C253.186 199.09 252.743 198.103 252.073 197.463C251.403 196.823 250.543 196.467 249.702 196.123L246.749 194.911C246.057 194.627 244.946 193.873 244.194 193.933C242.78 194.041 241.443 196.392 240.27 197.116Z" fill="black"/>
<path d="M242.34 155.815C241.11 157.538 239.838 159.528 240.142 161.661C240.307 162.809 240.917 163.823 241.366 164.885C241.973 166.327 242.291 167.877 242.604 169.421C243.064 171.676 243.527 173.938 243.808 176.229C244.128 178.817 242.621 186.305 242.482 188.91C242.448 189.538 242.377 190.217 241.962 190.669C241.8 190.849 241.585 190.992 241.511 191.226C241.467 191.45 241.503 191.684 241.61 191.884C242.303 193.529 243.72 194.756 245.301 195.456C246.883 196.156 250.696 197.364 252.419 197.427C252.646 197.453 252.876 197.421 253.089 197.334C253.318 197.187 253.499 196.968 253.606 196.709C254.841 194.22 253.654 185.371 253.671 182.562C253.688 180.22 254.213 177.892 254.117 175.553C254.037 173.674 253.549 171.838 253.387 169.965C253.103 166.896 253.637 163.811 254.174 160.778C254.583 158.451 254.994 156.123 255.519 153.826C255.84 152.423 256.212 151.008 256.939 149.79C257.507 148.824 258.305 148.016 258.966 147.098C260.802 144.561 261.618 141.366 261.238 138.201C261.198 137.902 256.979 139.329 256.607 139.5C255.089 140.177 253.693 141.123 252.479 142.297C251.502 143.278 250.733 144.588 249.878 145.686C248.668 147.24 247.474 148.804 246.295 150.38C244.949 152.181 243.631 153.992 242.34 155.815Z" fill="#464353"/>
<path opacity="0.05" d="M242.34 155.71C241.11 157.433 239.838 159.426 240.142 161.556C240.307 162.708 240.917 163.722 241.366 164.784C241.973 166.223 242.291 167.775 242.604 169.316C243.064 171.574 243.527 173.836 243.808 176.124C244.128 178.715 242.621 186.2 242.482 188.805C242.448 189.434 242.377 190.116 241.962 190.567C241.8 190.744 241.585 190.887 241.511 191.121C241.467 191.346 241.502 191.579 241.61 191.779C242.303 193.427 243.72 194.651 245.301 195.369C246.883 196.087 250.696 196.712 252.419 196.772C252.646 196.798 252.876 196.766 253.089 196.679C253.319 196.533 253.499 196.316 253.606 196.057C254.841 193.568 253.654 185.287 253.671 182.475C253.688 180.13 254.213 177.806 254.117 175.463C254.037 173.585 253.549 171.748 253.387 169.878C253.103 166.806 253.637 163.722 254.174 160.688C254.583 158.364 254.994 156.036 255.519 153.736C255.84 152.333 256.212 150.918 256.939 149.7C257.507 148.734 258.305 147.927 258.966 147.008C260.803 144.472 261.619 141.276 261.238 138.111C261.198 137.812 256.979 139.239 256.607 139.41C255.09 140.089 253.694 141.036 252.479 142.21C251.502 143.188 250.733 144.498 249.878 145.596C248.668 147.15 247.474 148.715 246.295 150.293C244.949 152.08 243.631 153.886 242.34 155.71Z" fill="black"/>
<path d="M228.66 117.865C232.466 117.865 235.551 114.614 235.551 110.605C235.551 106.595 232.466 103.344 228.66 103.344C224.855 103.344 221.77 106.595 221.77 110.605C221.77 114.614 224.855 117.865 228.66 117.865Z" fill="#FBBEBE"/>
<path d="M234.866 110.299C235.503 111.369 236.338 112.293 237.321 113.016C238.304 113.739 239.415 114.245 240.587 114.506L240.068 116.495C239.171 119.911 238.163 123.525 235.659 125.894C235.942 124.736 235.579 123.501 234.96 122.496C234.341 121.491 233.472 120.701 232.621 119.92L228.654 116.3C228.54 116.202 228.443 116.083 228.37 115.947C228.272 115.692 228.272 115.407 228.37 115.152C228.876 113.494 230.318 112.459 231.493 111.34C232.083 110.762 232.61 110.116 233.064 109.414C233.856 108.223 234.347 109.42 234.866 110.299Z" fill="#FBBEBE"/>
<path d="M219.583 103.305L219.427 101.941C220.514 102.24 221.548 101.265 222.243 100.257C222.939 99.2489 223.583 98.0613 224.642 97.6395C225.929 97.1309 227.291 97.9386 228.521 98.6207C229.897 99.4254 231.408 99.9434 232.97 100.146C233.219 100.155 233.466 100.197 233.705 100.272C234.506 100.571 234.886 101.63 235.003 102.59C235.119 103.551 235.088 104.571 235.483 105.426C235.767 106.076 236.295 106.557 236.618 107.197C237.47 108.914 236.647 111.263 237.535 112.947L235.326 110.814C235.125 110.62 234.841 110.416 234.617 110.581C234.441 110.712 234.426 110.997 234.355 111.224C234.143 111.888 233.353 112.085 232.783 111.822C232.212 111.559 231.795 110.988 231.363 110.467C230.386 109.252 229.222 108.185 227.859 107.667C227.262 107.432 226.624 107.333 225.988 107.377C225.351 107.422 224.731 107.608 224.168 107.924C223.138 108.538 222.382 109.967 221.119 110.018C219.387 110.087 218.666 106.689 217.865 105.346C218.158 105.113 218.364 104.78 218.447 104.404C218.53 104.027 218.485 103.632 218.32 103.287C218.436 103.237 219.557 103.096 219.583 103.305Z" fill="#464353"/>
<path d="M134.352 60.859C133.798 61.3778 133.287 61.9442 132.822 62.5522C132.354 63.1686 132.105 63.9378 132.118 64.727C132.12 64.9559 132.19 65.1784 132.316 65.3642C132.381 65.4531 132.471 65.5185 132.573 65.5512C132.674 65.5839 132.783 65.5823 132.884 65.5467C132.998 65.4854 133.096 65.3948 133.168 65.2834C133.468 64.9035 133.787 64.54 134.122 64.1945C134.244 64.0659 134.406 63.9313 134.571 63.9791C134.645 64.0067 134.711 64.0529 134.764 64.1137C134.955 64.2877 135.094 64.5163 135.164 64.7719C135.264 65.2296 135.011 65.6873 134.724 66.0462C134.437 66.4052 134.099 66.7492 133.983 67.201C133.939 67.3203 133.939 67.4526 133.983 67.5719C134.038 67.6582 134.115 67.7266 134.204 67.7693C134.611 68.0052 135.062 68.1441 135.525 68.1761C135.988 68.2082 136.452 68.1326 136.885 67.9548C137.453 67.7125 137.958 67.2967 138.543 67.0813C138.796 67.0083 139.042 66.908 139.275 66.7822C139.443 66.6648 139.586 66.5137 139.698 66.3376C139.809 66.1615 139.887 65.9639 139.926 65.7561C139.999 65.3409 140.014 64.9163 139.968 64.4966C139.897 62.8715 139.567 61.2706 138.991 59.7611C138.958 59.6637 138.901 59.5772 138.827 59.5098C138.741 59.455 138.643 59.4269 138.543 59.4291C137.816 59.3483 136.624 58.9564 135.922 59.2406C135.677 59.3823 135.465 59.5807 135.303 59.8209C135.173 59.9735 134.352 60.6586 134.352 60.859Z" fill="#A1616A"/>
<path d="M134.122 60.1829C134.122 59.453 133.27 57.691 134.625 57.5743C134.625 56.7935 133.577 56.3089 133.773 55.4803C133.835 55.2051 134.057 54.9807 134.082 54.6995C134.167 53.9008 132.799 53.467 133.026 52.7012C133.111 52.402 133.412 52.2285 133.478 51.9324C133.631 51.2413 132.458 50.9332 132.435 50.2242C132.435 49.9849 132.563 49.7605 132.552 49.5212C132.552 49.2221 132.305 48.9947 132.169 48.7345C131.814 48.0674 131.987 47.0353 131.34 46.6913C131.768 46.7302 131.907 46.0601 131.731 45.6502C131.555 45.2404 131.195 44.8844 131.192 44.4297C131.213 44.2649 131.213 44.0979 131.192 43.9331C131.073 43.4964 130.394 43.4605 130.281 43.0357C130.266 42.8726 130.261 42.7087 130.266 42.5451C130.221 42.207 129.892 41.9916 129.582 41.8959C129.261 41.8384 128.951 41.7219 128.668 41.5519C128.469 41.3933 128.239 41.1301 128.026 41.2527C127.947 41.3036 127.907 41.3993 127.847 41.4711C127.592 41.7852 127.103 41.6476 126.783 41.4173C125.834 40.7382 125.363 39.5207 125.161 38.333C124.96 37.1454 124.965 35.9189 124.713 34.7432C124.636 34.3768 124.533 34.0169 124.406 33.6663C124.298 33.3672 123.952 32.8975 123.929 32.5953C123.878 31.9073 125.23 32.377 125.743 32.4458C126.242 32.4971 126.736 32.5973 127.217 32.7449C127.731 32.9494 128.234 33.1821 128.725 33.4419C130.775 34.3962 133.25 34.5129 134.897 36.1163C135.439 36.6428 135.897 37.3339 136.601 37.5732C136.924 37.6384 137.242 37.7253 137.555 37.8335C138.335 38.2194 138.458 39.3112 138.883 40.101C139.017 40.3096 139.134 40.5297 139.233 40.7591C139.315 41.0297 139.353 41.3128 139.346 41.5968L139.406 43.6699C139.502 47.143 139.599 50.6251 139.247 54.0773C139.133 55.217 138.963 56.3897 139.284 57.4846C139.369 57.7837 139.488 58.0649 139.568 58.3671C139.638 58.7213 139.674 59.0821 139.676 59.444L139.721 60.7872C139.737 60.8916 139.714 60.9985 139.659 61.0863C139.611 61.1269 139.556 61.1558 139.496 61.1708C139.437 61.1858 139.375 61.1866 139.315 61.1731C137.54 61.0056 135.746 59.9526 134.071 60.5898" fill="#464353"/>
<path d="M215.103 163.39C226.701 163.39 236.102 161.958 236.102 160.192C236.102 158.426 226.701 156.994 215.103 156.994C203.506 156.994 194.104 158.426 194.104 160.192C194.104 161.958 203.506 163.39 215.103 163.39Z" fill="#504F60"/>
<path d="M233.169 160.347C232.8 158.681 232.57 157.218 232.57 157.218C232.57 157.218 232.655 155.405 231.883 154.044V153.589V150.239C232.103 149.631 232.372 149.043 232.687 148.483C233.255 147.43 232.687 143.571 232.687 143.571C232.687 143.571 230.566 138.129 231.08 134.677C231.594 131.225 226.724 119.349 226.724 119.349C226.754 118.203 226.908 117.065 227.181 115.956C227.233 115.723 227.254 115.484 227.244 115.244C227.244 115.215 227.244 115.188 227.244 115.158C227.244 115.128 227.244 115.176 227.244 115.185C227.17 112.908 225.461 108.642 225.461 108.642L225.691 100.511C225.691 100.511 226.781 95.7249 225.004 89.2783C224.382 87.0316 223.984 85.2337 223.732 83.8457C223.703 83.6901 223.675 83.5465 223.652 83.394C227.312 82.7957 230.109 82.317 230.109 82.317C230.109 82.317 227.985 72.9566 226.551 71.3173C225.117 69.678 223.97 64.5296 223.97 64.5296C223.97 64.5296 223.224 57.9214 224.43 55.9889C225.637 54.0564 225.807 50.7238 225.807 50.7238C225.807 50.7238 228.558 48.6298 228.905 47.6815C229.251 46.7332 229.822 44.6391 229.822 43.5293C229.822 42.4194 229.478 41.4352 229.592 40.8369C229.706 40.2386 228.788 38.0279 229.248 36.9749C229.367 36.6514 229.429 36.3077 229.43 35.9608C229.431 35.9509 229.431 35.9408 229.43 35.9309C229.434 35.0094 229.354 34.0897 229.189 33.1847C228.393 32.4766 227.464 31.9537 226.463 31.65L226.403 31.3988L226.247 30.7406C226.16 30.6799 226.07 30.624 225.978 30.5731V30.3338L225.952 29.3825L226.384 27.2466C227.235 23.5311 222.525 22.9777 222.525 22.9777C222.239 22.4078 221.764 21.9689 221.191 21.7452C220.245 21.3952 221.035 27.3333 221.475 27.7282C221.807 28.0273 222.835 29.8761 223.331 30.7915L223.411 30.9411C223.333 31.0147 223.261 31.0947 223.195 31.1804L223.374 32.4697L223.402 32.6671C223.09 33.0756 222.837 33.5302 222.65 34.0163C222.65 34.0163 223.502 35.0095 223.34 36.1104C223.178 37.2112 223.604 38.6083 223.624 38.6831C223.573 38.6202 222.968 37.9322 222.363 38.0997C221.759 38.2672 220.069 38.8027 220.069 38.8027C220.069 38.8027 218.809 39.036 218.933 39.3292C219.058 39.6224 218.082 40.9087 218.082 40.9087L214.692 37.5224C214.658 37.4206 214.621 37.3189 214.592 37.2232C214.454 36.7349 214.359 36.2342 214.308 35.7275C214.678 35.6349 215.04 35.514 215.393 35.3655C215.749 35.2366 216.071 35.0191 216.33 34.7313C216.673 34.3035 216.739 33.7231 216.878 33.1907C217.145 32.1496 217.73 31.2253 218.136 30.2351C218.823 28.5619 219.045 26.7171 218.774 24.9162C218.722 24.3612 218.544 23.8276 218.255 23.3606C217.701 22.5589 216.696 22.2328 215.966 21.5926C215.237 20.9524 214.765 19.9742 213.914 19.4986C213.144 19.0648 212.21 19.1157 211.341 19.2652C209.644 19.5601 208.014 20.1849 206.535 21.108C206.041 21.4072 205.495 21.7751 204.928 21.6644C204.439 21.5717 204.076 21.1619 203.769 20.767C203.773 20.7506 203.777 20.7346 203.783 20.7191C203.77 20.7045 203.757 20.6885 203.746 20.6712C203.387 21.5114 203.207 22.4242 203.218 23.3456C203.218 23.4892 203.218 23.6448 203.235 23.7734V23.923C203.235 23.9649 203.235 24.0068 203.235 24.0457C203.235 24.1094 203.227 24.1729 203.21 24.2341C203.138 24.4171 203.03 24.5815 202.892 24.7158C202.788 24.8405 202.693 24.9735 202.608 25.1136C202.608 25.0658 202.636 25.0179 202.653 24.967C202.437 25.3001 202.315 25.6913 202.301 26.0948C202.285 26.3886 202.377 26.6776 202.557 26.9025C202.727 27.0765 202.912 27.2327 203.11 27.3692C203.043 27.7641 203.009 28.1645 203.008 28.5658C203.015 29.7554 203.312 30.9231 203.872 31.956C204.432 32.9889 205.236 33.8521 206.205 34.462C206.245 34.5608 206.282 34.6625 206.319 34.7612C206.753 35.9578 207.08 37.3638 206.935 38.6501C206.935 38.7429 206.909 38.8386 206.895 38.9313C206.881 39.0241 206.81 39.0301 206.773 39.0809C206.773 39.0809 201.171 39.1407 199.854 37.8843C198.536 36.6279 196.526 40.9566 196.526 40.9566C196.526 40.9566 194.519 41.3664 194.116 40.9566C193.713 40.5468 191.365 40.8997 191.365 40.8997C190.403 39.9983 189.151 39.517 187.864 39.5536C187.084 38.9292 186.224 38.4256 185.308 38.0578L185.246 38.0339C184.842 37.8788 184.41 37.8215 183.983 37.8664C183.983 37.8664 181.228 35.4732 180.425 34.1809C179.621 32.8885 175.797 28.1171 175.78 28.0961V27.8658L175.737 27.1718C175.624 27.1906 175.509 27.2006 175.394 27.2017C175.374 27.1329 175.346 27.0521 175.317 26.9594C175.097 26.2824 174.825 25.6252 174.505 24.994C174.505 24.994 174.505 24.1175 174.747 23.8961C174.988 23.6747 174.647 20.4588 174.647 20.4588C174.647 20.4588 172.166 14.3472 169.943 18.9093C169.943 18.9093 165.74 21.8619 169.267 25.3021C169.267 25.3021 170.686 26.02 170.874 26.5884C171.004 26.9564 171.481 27.9885 171.802 28.6825L171.947 28.9816L171.907 29.0175L171.958 29.5919L171.981 29.8133C171.317 30.2111 170.865 30.606 170.976 30.9022C171.172 31.409 171.306 31.9396 171.376 32.4817C171.376 32.4817 176.254 38.9194 176.884 41.6686C176.884 41.6686 189.965 49.8593 194.266 50.4426L193.505 54.526C193.394 55.6341 193.338 56.7474 193.335 57.8615C193.392 58.738 192.818 62.7167 192.818 62.7167C192.818 62.7167 192.072 68.5681 191.441 69.3878C190.811 70.2075 190.924 73.7165 190.924 73.7165C190.776 75.3963 190.491 77.0597 190.073 78.6883C189.442 80.911 189.9 83.6632 189.9 83.6632C189.9 83.6632 187.722 88.9282 192.94 85.3594C192.94 85.3594 195.496 85.1919 198.454 85.0842C198.454 85.1859 198.454 85.2906 198.454 85.3833C198.454 85.7842 198.454 86.2179 198.434 86.6727C198.394 89.6881 198.377 93.8522 198.508 96.9873C198.738 102.546 200.345 113.545 200.345 113.545V119.083C200.241 119.602 200.19 120.131 200.192 120.662C200.158 122.61 200.65 124.529 201.611 126.193L202.014 129.879C202.014 129.879 202.957 132.308 202.974 133.768C202.971 133.885 202.957 134.003 202.934 134.118C202.898 134.304 202.882 134.493 202.889 134.683C202.835 136.358 203.792 140.367 203.792 140.367C203.792 140.367 203.849 144.403 204.422 144.639C204.913 144.839 203.766 146.963 203.426 147.574C203.416 147.536 203.41 147.498 203.406 147.46L203.335 147.58C203.216 147.906 203.156 148.253 203.156 148.603C203.124 148.878 203.166 149.158 203.279 149.409C203.391 149.66 203.569 149.872 203.792 150.021C204.882 150.724 205.467 151.307 204.541 151.54C204.201 151.596 203.864 151.671 203.531 151.765C203.531 151.72 203.497 151.672 203.482 151.63C203.352 151.684 203.243 151.783 203.174 151.912C203.105 152.041 203.081 152.191 203.105 152.336C203.114 152.811 203.229 153.276 203.443 153.694C204.36 155.86 204.996 156.686 204.996 156.686L205.436 156.635C205.371 156.812 205.285 156.98 205.18 157.134C205.013 157.385 204.791 157.59 204.533 157.733C204.292 157.884 204.025 157.981 203.746 158.017C203.435 158.028 203.13 158.107 202.85 158.25C202.57 158.394 202.322 158.597 202.122 158.848C201.555 159.629 201.191 160.691 202.321 161.625L206.424 163.12C206.424 163.12 213.482 164.087 213.107 162.417C212.733 160.748 212.505 159.288 212.505 159.288C212.536 158.269 212.341 157.256 211.938 156.33C211.864 156.178 211.78 156.033 211.688 155.893L211.938 155.866C211.938 155.866 212.454 152.177 213.141 151.477C213.3 151.316 213.337 151.178 213.3 151.095C213.371 150.894 213.19 150.777 212.96 150.709L212.909 150.855C212.684 150.804 212.454 150.777 212.224 150.774C212.224 150.774 211.994 148.845 212.741 148.142C212.801 148.062 212.845 147.969 212.87 147.871C212.895 147.772 212.9 147.669 212.886 147.568C212.892 147.303 212.865 147.038 212.806 146.781C212.799 146.797 212.79 146.813 212.781 146.829C212.406 145.076 211.134 142.291 211.134 142.291C211.134 142.291 211.077 140.538 211.537 139.835C211.997 139.132 211.478 130.298 211.478 130.298C211.478 130.298 211.651 126.029 211.134 124.039C210.617 122.05 211.764 119.708 211.764 119.708C211.764 119.708 211.764 119.663 211.764 119.582V119.552L211.699 118.879C211.698 118.893 211.698 118.907 211.699 118.921C211.583 117.79 211.364 115.741 211.202 114.796C210.972 113.45 211.262 107.018 211.262 107.018L212.293 104.266L214.13 109.007L216.08 115.325C216.08 115.325 217.045 116.659 217.068 118.018C217.068 118.083 217.068 118.149 217.068 118.215C217.052 118.355 217.045 118.496 217.045 118.637C217.011 119.435 217.219 120.224 217.639 120.889C217.639 120.889 218.156 123.881 218.959 124.632C219.763 125.383 219.763 126.854 219.763 126.854C219.763 126.854 220.736 131.186 221.182 131.94C221.568 132.58 221.588 134.333 221.585 134.881C221.585 134.979 221.585 135.036 221.585 135.036C221.585 135.036 221.722 136.586 221.716 137.884C221.716 138.046 221.716 138.201 221.716 138.348C221.717 138.337 221.717 138.326 221.716 138.315C221.716 138.67 221.676 139.023 221.597 139.368L221.58 139.428C221.58 139.353 221.58 139.281 221.6 139.209C221.4 140.091 221.305 140.995 221.316 141.902C221.29 143.457 221.514 145.3 222.409 146.389C223.959 148.262 224.933 148.028 224.933 148.028C224.933 148.028 224.189 150.368 223.269 150.837C223.234 150.855 223.202 150.877 223.172 150.903C223.172 150.855 223.155 150.81 223.15 150.765C223.047 150.882 222.969 151.02 222.92 151.171C222.871 151.321 222.853 151.481 222.866 151.639C222.801 152.668 223.417 154.331 224.001 155.106C224.219 155.33 224.485 155.495 224.777 155.585C224.73 155.619 224.682 155.65 224.632 155.678C224.53 155.737 224.424 155.79 224.317 155.836C224.167 155.903 224.009 155.946 223.848 155.965C223.537 155.973 223.231 156.052 222.951 156.196C222.671 156.339 222.423 156.544 222.224 156.796C221.656 157.574 221.293 158.636 222.423 159.569L226.526 161.065C226.526 161.065 233.538 162.014 233.169 160.347Z" fill="url(#paint0_linear)"/>
<path d="M206.222 163.111L202.247 161.616C201.151 160.682 201.5 159.62 202.054 158.84C202.244 158.59 202.483 158.387 202.755 158.244C203.026 158.1 203.323 158.02 203.627 158.008C203.896 157.972 204.154 157.875 204.385 157.724C204.637 157.579 204.853 157.374 205.015 157.125C205.305 156.64 205.461 156.08 205.466 155.507C205.466 155.507 209.828 154.161 211.02 155.507C211.233 155.751 211.411 156.026 211.548 156.324C211.944 157.253 212.138 158.264 212.116 159.282C212.116 159.282 212.337 160.742 212.698 162.411C213.059 164.081 206.222 163.111 206.222 163.111Z" fill="#2D293D"/>
<path d="M225.653 161.047L221.678 159.552C220.582 158.618 220.932 157.556 221.485 156.778C221.674 156.528 221.913 156.325 222.184 156.181C222.455 156.037 222.752 155.958 223.055 155.947C223.212 155.93 223.366 155.886 223.51 155.818C223.615 155.771 223.717 155.719 223.816 155.66C224.927 155.016 224.898 153.437 224.898 153.437C224.898 153.437 229.256 152.091 230.452 153.437C230.612 153.619 230.752 153.82 230.869 154.035C231.616 155.396 231.533 157.212 231.533 157.212C231.533 157.212 231.755 158.675 232.101 160.341C232.448 162.008 225.653 161.047 225.653 161.047Z" fill="#2D293D"/>
<path opacity="0.1" d="M211.023 155.504C211.235 155.748 211.413 156.023 211.551 156.321L205.021 157.119C205.311 156.634 205.467 156.074 205.472 155.501C205.472 155.501 209.83 154.158 211.023 155.504Z" fill="black"/>
<path opacity="0.1" d="M230.875 154.041V155.331C229.858 157.093 224.944 156.707 223.516 155.824C223.621 155.777 223.723 155.725 223.822 155.666C224.932 155.022 224.904 153.443 224.904 153.443C224.904 153.443 229.262 152.097 230.458 153.443C230.618 153.625 230.758 153.826 230.875 154.041Z" fill="black"/>
<path d="M231.65 148.483C231.346 149.045 231.087 149.632 230.875 150.239V154.861C229.762 156.79 223.99 156.147 223.209 155.094C222.428 154.041 221.613 151.301 222.491 150.825C223.368 150.35 224.101 148.016 224.101 148.016C224.101 148.016 223.155 148.25 221.656 146.377C220.157 144.504 220.603 140.352 220.881 139.359C221.159 138.366 220.881 135.03 220.881 135.03C220.881 135.03 220.938 132.688 220.495 131.928C220.052 131.168 219.106 126.843 219.106 126.843C219.106 126.843 219.106 125.38 218.328 124.62C217.55 123.86 217.051 120.874 217.051 120.874C216.596 120.128 216.4 119.239 216.497 118.359C216.662 116.896 215.552 115.316 215.552 115.316L213.663 108.995L211.886 104.257L210.887 107.006C210.887 107.006 210.603 113.441 210.833 114.784C211.063 116.127 211.401 119.699 211.401 119.699C211.401 119.699 210.29 122.038 210.79 124.028C211.29 126.017 211.108 130.292 211.108 130.292C211.108 130.292 211.608 139.123 211.162 139.826C210.716 140.529 210.773 142.285 210.773 142.285C210.773 142.285 213.045 147.43 212.329 148.133C211.614 148.836 211.829 150.766 211.829 150.766C211.829 150.766 213.382 150.766 212.718 151.469C212.054 152.172 211.551 155.857 211.551 155.857L204.836 156.686C204.836 156.686 204.223 155.869 203.334 153.694C202.446 151.519 203.499 151.765 204.393 151.528C205.288 151.292 204.723 150.712 203.667 150.009C202.61 149.306 203.224 147.726 203.224 147.726C203.224 147.726 204.833 144.86 204.277 144.627C203.72 144.394 203.667 140.355 203.667 140.355C203.667 140.355 202.556 135.569 202.835 134.27C203.113 132.972 201.946 129.885 201.946 129.885L201.557 126.199C200.369 124.108 199.936 121.636 200.336 119.235V113.551C200.336 113.551 198.78 102.555 198.559 96.9963C198.417 93.4364 198.457 88.5783 198.502 85.5479C198.53 83.8487 198.559 82.7209 198.559 82.7209L222.545 80.0884C222.545 80.0884 222.522 81.2551 222.979 83.8427C223.226 85.2308 223.609 87.0287 224.211 89.2753C225.932 95.71 224.878 100.505 224.878 100.505L224.654 108.639C224.654 108.639 226.764 114.078 226.321 115.95C226.053 117.062 225.903 118.202 225.872 119.349C225.872 119.349 230.591 131.225 230.091 134.677C229.592 138.129 231.644 143.571 231.644 143.571C231.644 143.571 232.206 147.43 231.65 148.483Z" fill="#464353"/>
<path opacity="0.05" d="M217.937 118.006L225.239 116.979C225.239 116.979 221.102 121.428 217.937 118.006Z" fill="black"/>
<path opacity="0.1" d="M224.183 109.462C224.183 109.462 224.433 112.184 222.852 113.207C222.852 113.207 225.682 112.741 224.183 109.462Z" fill="black"/>
<path opacity="0.1" d="M223.734 100.804C223.734 100.804 217.63 106.099 215.41 105.66C213.189 105.22 223.734 100.804 223.734 100.804Z" fill="black"/>
<path opacity="0.1" d="M208.885 120.489C208.885 120.489 204.248 121.598 204.109 123.561C203.97 125.523 208.885 120.489 208.885 120.489Z" fill="black"/>
<path opacity="0.05" d="M209.905 144.887C209.905 144.887 203.355 146.173 205.214 147.05C207.074 147.926 210.129 148.629 210.129 148.629C210.129 148.629 212.244 148.746 209.905 144.887Z" fill="black"/>
<g opacity="0.05">
<path opacity="0.05" d="M203.891 148.444C203.726 148.336 203.586 148.19 203.483 148.017C203.379 147.844 203.314 147.648 203.291 147.445L203.223 147.568C203.223 147.568 202.613 149.147 203.669 149.847C203.788 149.928 203.905 150.009 204.01 150.086C204.206 150.048 204.416 150.018 204.617 149.964C205.512 149.731 204.947 149.147 203.891 148.444Z" fill="black"/>
<path opacity="0.05" d="M212.329 147.974C212.511 147.801 212.505 147.352 212.394 146.778C212.11 147.23 212.028 147.936 212.022 148.471C212.091 148.285 212.196 148.116 212.329 147.974Z" fill="black"/>
<path opacity="0.05" d="M211.321 118.87C211.08 119.562 210.931 120.286 210.878 121.021C211.005 120.513 211.175 120.019 211.386 119.543L211.321 118.87Z" fill="black"/>
<path opacity="0.05" d="M226.324 115.801C226.368 115.591 226.388 115.376 226.384 115.161C226.301 115.598 226.244 116.001 226.201 116.357C226.238 116.175 226.278 116.001 226.324 115.801Z" fill="black"/>
<path opacity="0.05" d="M211.165 139.67C211.256 139.526 211.307 139.042 211.33 138.369C211.124 138.89 211.015 139.447 211.009 140.011C211.048 139.891 211.1 139.777 211.165 139.67Z" fill="black"/>
<path opacity="0.05" d="M212.528 150.703C212.184 151.876 211.929 153.077 211.765 154.293L205.05 155.109C205.05 155.109 204.437 154.293 203.548 152.118C203.476 151.95 203.413 151.778 203.358 151.603C202.954 151.798 202.79 152.237 203.324 153.521C204.212 155.687 204.828 156.512 204.828 156.512L211.543 155.693C211.543 155.693 212.043 152.007 212.707 151.304C213.048 150.966 212.838 150.79 212.528 150.703Z" fill="black"/>
<path opacity="0.05" d="M203.669 140.197C203.669 140.197 203.723 144.232 204.28 144.465C204.564 143.798 204.748 143.164 204.498 143.059C203.931 142.826 203.888 138.788 203.888 138.788C203.888 138.788 202.778 134.001 203.056 132.703C203.334 131.405 202.167 128.317 202.167 128.317L201.778 124.632C200.59 122.54 200.157 120.068 200.558 117.668V111.984C200.558 111.984 199.002 100.987 198.78 95.4288C198.638 91.8689 198.678 87.0107 198.723 83.9803C198.723 83.4329 198.741 82.9483 198.749 82.5385L198.559 82.5594C198.559 82.5594 198.528 83.6842 198.502 85.3864C198.457 88.4167 198.414 93.2749 198.559 96.8318C198.78 102.39 200.333 113.39 200.333 113.39V119.074C199.935 121.474 200.369 123.944 201.557 126.035L201.943 129.72C201.943 129.72 203.11 132.82 202.832 134.109C202.554 135.398 203.669 140.197 203.669 140.197Z" fill="black"/>
<path opacity="0.05" d="M223.436 153.533C222.891 152.701 222.527 151.752 222.372 150.754C221.687 151.406 222.474 153.937 223.223 154.942C223.999 155.995 229.774 156.638 230.889 154.705V153.593C229.376 155.157 224.169 154.529 223.436 153.533Z" fill="black"/>
<path opacity="0.05" d="M231.875 146.921C231.57 147.483 231.31 148.071 231.097 148.677V149.506C231.224 149.207 231.403 148.806 231.665 148.333C231.84 147.873 231.923 147.379 231.909 146.883C231.909 146.883 231.883 146.909 231.875 146.921Z" fill="black"/>
<path opacity="0.05" d="M223.777 147.846C223.988 147.395 224.171 146.931 224.325 146.455C224.325 146.455 223.38 146.688 221.88 144.815C220.79 143.454 220.728 140.882 220.884 139.2C220.6 140.197 220.16 144.349 221.659 146.221C222.639 147.445 223.38 147.768 223.777 147.846Z" fill="black"/>
<path opacity="0.05" d="M220.881 134.872C220.979 136.024 221.016 137.182 220.992 138.339C221.019 138.156 221.057 137.975 221.105 137.797C221.389 136.801 221.105 133.469 221.105 133.469C221.105 133.469 221.162 131.126 220.716 130.366C220.271 129.607 219.342 125.275 219.342 125.275C219.342 125.275 219.342 123.812 218.564 123.052C217.786 122.292 217.286 119.307 217.286 119.307C216.828 118.562 216.627 117.674 216.719 116.791C216.886 115.328 215.776 113.749 215.776 113.749L213.888 107.431L212.111 102.692L211.108 105.444C211.108 105.444 211.108 105.791 211.074 106.342L211.886 104.107L213.664 108.837L215.552 115.155C215.552 115.155 216.662 116.734 216.494 118.197C216.403 119.08 216.603 119.968 217.062 120.713C217.062 120.713 217.562 123.704 218.34 124.458C219.118 125.212 219.115 126.681 219.115 126.681C219.115 126.681 220.06 131.01 220.503 131.767C220.946 132.523 220.881 134.872 220.881 134.872Z" fill="black"/>
</g>
<path d="M225.543 27.2376L225.125 29.3735L225.151 30.3248L225.168 31.0248L222.851 31.2761L222.593 30.7705C222.113 29.8551 221.116 27.9944 220.796 27.7072C220.367 27.3303 219.603 21.3892 220.512 21.7422C221.071 21.9698 221.53 22.4079 221.801 22.9717C221.801 22.9717 226.363 23.5221 225.543 27.2376Z" fill="#FFCDD3"/>
<path opacity="0.1" d="M225.168 31.0248L222.851 31.2761L222.593 30.7705C222.904 30.3967 223.329 30.1483 223.795 30.0676C224.261 29.9868 224.739 30.0788 225.148 30.3278L225.168 31.0248Z" fill="black"/>
<path d="M225.753 32.1824L222.697 32.9273L222.632 32.4487L222.459 31.1594C222.459 31.1594 223.669 29.4602 225.417 30.7346L225.571 31.3897L225.753 32.1824Z" fill="#6C63FF"/>
<path d="M176.265 27.4709L173.003 29.3136L172.719 28.6675C172.41 27.9824 171.947 26.9503 171.819 26.5734C171.626 26.005 170.266 25.2871 170.266 25.2871C166.859 21.8498 170.919 18.8942 170.919 18.8942C173.071 14.3322 175.462 20.4438 175.462 20.4438C175.462 20.4438 175.797 23.6657 175.561 23.8811C175.326 24.0965 175.326 24.9789 175.326 24.9789C175.636 25.6112 175.899 26.2684 176.112 26.9444C176.211 27.2704 176.265 27.4709 176.265 27.4709Z" fill="#FFCDD3"/>
<path opacity="0.1" d="M176.265 27.4709L173.003 29.3137L172.719 28.6675C173.179 28.2606 174.811 26.8726 175.348 26.9294C175.604 26.9631 175.863 26.9701 176.12 26.9504C176.211 27.2705 176.265 27.4709 176.265 27.4709Z" fill="black"/>
<path d="M176.597 28.5089L172.932 30.4115L172.858 29.5828L172.807 29.0085C172.807 29.0085 174.93 27.0909 175.558 27.1657C175.875 27.2141 176.197 27.2141 176.515 27.1657L176.557 27.8597L176.597 28.5089Z" fill="#6C63FF"/>
<path d="M216.659 41.4263C216.659 41.4263 200.68 43.3259 203.667 42.3028C205.745 41.5879 206.572 40.2088 206.745 38.6532C206.887 37.3579 206.569 35.9609 206.151 34.7643C205.776 33.7027 205.3 32.6835 204.732 31.7219C204.732 31.7219 216.94 24.644 214.502 31.0787C214.125 32.052 213.892 33.0799 213.809 34.1271C213.735 35.1678 213.842 36.2138 214.124 37.2143C214.585 38.8377 215.462 40.2953 216.659 41.4263Z" fill="#FFCDD3"/>
<path opacity="0.1" d="M214.493 31.0697C214.117 32.043 213.883 33.0708 213.8 34.118C212.65 35.1381 211.389 35.0693 209.768 35.0693C208.525 35.0693 207.145 35.3864 206.151 34.7552C205.775 33.6937 205.3 32.6745 204.731 31.7129C204.731 31.7129 216.937 24.635 214.493 31.0697Z" fill="black"/>
<path d="M209.552 35.518C213.201 35.518 216.159 32.4014 216.159 28.5568C216.159 24.7122 213.201 21.5956 209.552 21.5956C205.903 21.5956 202.945 24.7122 202.945 28.5568C202.945 32.4014 205.903 35.518 209.552 35.518Z" fill="#FFCDD3"/>
<path opacity="0.1" d="M216.659 41.4263C216.659 41.4263 200.68 43.3259 203.667 42.3028C205.745 41.5878 206.572 40.2088 206.745 38.6532C207.54 37.7557 209.138 37.0886 210.152 36.7416C211.089 36.4096 212.101 36.3918 213.048 36.6908C213.42 36.809 213.775 36.9822 214.101 37.2053C214.567 38.8346 215.452 40.2959 216.659 41.4263Z" fill="black"/>
<path opacity="0.1" d="M225.753 32.1824L222.698 32.9273L222.633 32.4487C222.96 31.9753 223.418 31.6196 223.943 31.4301C224.469 31.2406 225.038 31.2265 225.571 31.3897L225.753 32.1824Z" fill="black"/>
<path opacity="0.1" d="M176.598 28.509L172.932 30.4115L172.858 29.5829C174.046 28.9103 175.28 28.3333 176.549 27.8568L176.598 28.509Z" fill="black"/>
<path opacity="0.1" d="M222.979 83.8486C216.787 84.8896 207.985 86.2178 206.588 85.7691C205.427 85.3982 201.724 85.4371 198.502 85.5537C198.53 83.8546 198.559 82.7268 198.559 82.7268L222.545 80.0942C222.545 80.0942 222.522 81.2609 222.979 83.8486Z" fill="black"/>
<path d="M229.151 82.317C229.151 82.317 208.774 86.0026 206.588 85.3085C204.402 84.6145 193.173 85.3654 193.173 85.3654C188.119 88.9342 190.228 83.6692 190.228 83.6692C190.228 83.6692 189.785 80.92 190.396 78.6973C190.806 77.0654 191.086 75.4004 191.233 73.7195C191.233 73.7195 191.123 70.2075 191.733 69.3878C192.343 68.5681 193.067 62.7197 193.067 62.7197C193.067 62.7197 193.621 58.741 193.567 57.8645C193.513 56.988 193.732 54.529 193.732 54.529L194.456 50.4337C190.291 49.8503 177.631 41.6596 177.631 41.6596C177.02 38.9104 172.301 32.4757 172.301 32.4757C172.233 31.9346 172.102 31.4042 171.912 30.8962C171.58 29.9598 176.577 28.0872 176.577 28.0872C176.577 28.0872 180.297 32.8736 181.075 34.1719C181.852 35.4702 184.516 37.8574 184.516 37.8574C184.929 37.8126 185.347 37.8699 185.737 38.0249L185.802 38.0459C186.694 38.415 187.531 38.9189 188.286 39.5416C189.538 39.5103 190.753 39.993 191.673 40.8878C191.673 40.8878 193.945 40.5348 194.339 40.9446C194.734 41.3545 196.67 40.9446 196.67 40.9446C196.67 40.9446 198.612 36.6159 199.89 37.8724C201.168 39.1288 206.588 39.069 206.588 39.069C207.309 38.0578 209.067 37.3339 210.165 36.9749C211.103 36.6442 212.114 36.6265 213.061 36.924C213.47 37.0525 213.854 37.255 214.197 37.5223L217.493 40.9147C217.493 40.9147 218.436 39.6254 218.325 39.3352C218.215 39.045 219.435 38.8087 219.435 38.8087C219.435 38.8087 221.045 38.2822 221.656 38.1057C222.266 37.9292 222.825 38.6262 222.877 38.689C222.857 38.6142 222.439 37.1933 222.593 36.1163C222.746 35.0394 221.925 34.0223 221.925 34.0223C223.867 28.9906 228.254 33.2026 228.254 33.2026C228.254 33.2026 228.754 35.9518 228.311 37.0048C227.868 38.0578 228.754 40.2805 228.643 40.8668C228.532 41.4532 228.867 42.4464 228.867 43.5592C228.867 44.672 228.3 46.7751 227.979 47.7114C227.658 48.6477 224.98 50.7537 224.98 50.7537C224.98 50.7537 224.813 54.0893 223.646 56.0188C222.479 57.9483 223.212 64.5475 223.212 64.5475C223.212 64.5475 224.322 69.6959 225.71 71.3353C227.099 72.9746 229.151 82.317 229.151 82.317Z" fill="#3F3D56"/>
<path opacity="0.1" d="M199.448 43.8224C199.448 43.8224 198.837 41.8929 198.281 41.7284C197.728 41.5142 197.19 41.2604 196.671 40.9685L197.029 40.2476C197.029 40.2476 199.113 40.8459 199.448 41.495C199.783 42.1442 199.448 43.8224 199.448 43.8224Z" fill="black"/>
<path opacity="0.1" d="M188.286 39.5536C188.175 40.1519 183.232 40.6634 183.232 40.6634L185.731 38.0249L185.793 38.0488C186.689 38.42 187.529 38.9269 188.286 39.5536Z" fill="black"/>
<path d="M173.988 31.9911C174.232 31.9911 174.431 31.7821 174.431 31.5244C174.431 31.2667 174.232 31.0577 173.988 31.0577C173.743 31.0577 173.545 31.2667 173.545 31.5244C173.545 31.7821 173.743 31.9911 173.988 31.9911Z" fill="#575988"/>
<path d="M174.556 32.9275C174.801 32.9275 174.999 32.7186 174.999 32.4608C174.999 32.2031 174.801 31.9941 174.556 31.9941C174.312 31.9941 174.113 32.2031 174.113 32.4608C174.113 32.7186 174.312 32.9275 174.556 32.9275Z" fill="#575988"/>
<path d="M175.113 33.7919C175.357 33.7919 175.556 33.5829 175.556 33.3252C175.556 33.0675 175.357 32.8585 175.113 32.8585C174.868 32.8585 174.67 33.0675 174.67 33.3252C174.67 33.5829 174.868 33.7919 175.113 33.7919Z" fill="#575988"/>
<path d="M175.695 34.7252C175.939 34.7252 176.138 34.5163 176.138 34.2585C176.138 34.0008 175.939 33.7919 175.695 33.7919C175.45 33.7919 175.252 34.0008 175.252 34.2585C175.252 34.5163 175.45 34.7252 175.695 34.7252Z" fill="#575988"/>
<path d="M228.032 34.5876C228.232 34.5876 228.393 34.4175 228.393 34.2077C228.393 33.9979 228.232 33.8278 228.032 33.8278C227.833 33.8278 227.672 33.9979 227.672 34.2077C227.672 34.4175 227.833 34.5876 228.032 34.5876Z" fill="#575988"/>
<path d="M228.089 35.4522C228.288 35.4522 228.45 35.2821 228.45 35.0723C228.45 34.8625 228.288 34.6924 228.089 34.6924C227.89 34.6924 227.729 34.8625 227.729 35.0723C227.729 35.2821 227.89 35.4522 228.089 35.4522Z" fill="#575988"/>
<path d="M228.138 36.3138C228.337 36.3138 228.498 36.1437 228.498 35.9339C228.498 35.7241 228.337 35.554 228.138 35.554C227.939 35.554 227.777 35.7241 227.777 35.9339C227.777 36.1437 227.939 36.3138 228.138 36.3138Z" fill="#575988"/>
<path opacity="0.1" d="M199.467 59.6773C199.413 59.6085 211.931 76.2622 221.647 66.6386C221.656 66.6415 206.304 68.8343 199.467 59.6773Z" fill="black"/>
<path opacity="0.1" d="M192.284 68.3347C192.284 68.3347 199.774 68.5501 200.558 70.8206V73.1839C200.344 73.3086 200.105 73.374 199.861 73.374C199.617 73.374 199.377 73.3086 199.164 73.1839C198.408 72.7531 193.88 70.33 192.284 71.4967V68.3347Z" fill="black"/>
<path d="M192.423 68.3347C192.423 68.3347 199.586 68.5411 200.336 70.707V72.9566C200.132 73.076 199.902 73.1387 199.669 73.1387C199.435 73.1387 199.205 73.076 199.001 72.9566C198.28 72.5497 193.95 70.2373 192.423 71.3501V68.3347Z" fill="#3F3D56"/>
<path opacity="0.1" d="M196.372 51.1995C197.137 53.0657 198.112 54.8283 199.277 56.4495C200.543 58.2415 202.077 59.8045 203.819 61.0774C203.819 61.0774 196.497 52.2824 196.372 51.1995Z" fill="black"/>
<path opacity="0.1" d="M193.922 42.0305C193.922 42.0305 195.171 47.7144 198.391 49.6439L193.922 42.0305Z" fill="black"/>
<path opacity="0.1" d="M192.006 42.6049C191.975 42.5002 190.896 47.0922 196.157 49.6439C196.157 49.6439 193.923 48.8452 192.006 42.6049Z" fill="black"/>
<path opacity="0.1" d="M224.711 38.7937C224.629 38.7937 227.306 40.5886 228.036 41.4262C228.036 41.4262 226.292 38.674 224.711 38.7937Z" fill="black"/>
<path d="M207.766 34.8659C207.767 35.0177 207.798 35.1677 207.857 35.3064C207.916 35.445 208.001 35.5693 208.108 35.6714C208.215 35.7734 208.34 35.851 208.477 35.8993C208.614 35.9476 208.758 35.9655 208.902 35.9518C210.915 36.0834 213.013 36.1762 214.864 35.3535C215.212 35.2229 215.523 35.0052 215.773 34.7193C216.102 34.2915 216.168 33.7112 216.301 33.1787C216.562 32.1376 217.119 31.2133 217.519 30.2231C218.196 28.5502 218.423 26.713 218.175 24.9132C218.123 24.3615 217.95 23.8301 217.67 23.3606C217.136 22.5559 216.162 22.2298 215.455 21.5896C214.748 20.9494 214.294 19.9712 213.467 19.4956C212.724 19.0588 211.812 19.1127 210.975 19.2622C209.327 19.557 207.748 20.1815 206.324 21.102C205.844 21.4012 205.319 21.7691 204.768 21.6584C204.285 21.5627 203.933 21.1349 203.632 20.7341C203.245 21.6914 203.083 22.7329 203.158 23.7704C203.179 23.9227 203.174 24.0776 203.144 24.2281C203.075 24.4101 202.969 24.5743 202.834 24.7098C202.338 25.3081 202.028 26.2803 202.519 26.8965C202.732 27.1628 203.062 27.3094 203.269 27.5816C203.641 28.0692 203.516 28.7782 203.507 29.4004C203.487 29.6177 203.539 29.8357 203.655 30.0167C203.762 30.1222 203.894 30.1966 204.037 30.2328C204.179 30.2689 204.329 30.2656 204.47 30.2231C204.751 30.1338 205.046 30.1043 205.339 30.1363C205.647 30.2418 205.912 30.4523 206.094 30.7346C207.011 31.994 207.374 33.3641 207.766 34.8659Z" fill="#2D293D"/>
<g opacity="0.1">
<path opacity="0.1" d="M216.008 34.1898C215.759 34.4757 215.447 34.6934 215.1 34.824C213.237 35.6406 211.142 35.5479 209.137 35.4223C208.922 35.4245 208.709 35.3743 208.516 35.2757C208.209 35.0872 208.093 34.6923 207.999 34.3333C207.607 32.8376 207.247 31.4645 206.315 30.2171C206.136 29.9293 205.87 29.7134 205.56 29.6038C205.268 29.5748 204.973 29.6042 204.691 29.6905C204.55 29.7335 204.401 29.7373 204.258 29.7016C204.116 29.666 203.984 29.5921 203.876 29.4871C203.76 29.3061 203.708 29.0882 203.729 28.8709C203.729 28.2427 203.862 27.5397 203.49 27.0521C203.283 26.7798 202.954 26.6332 202.741 26.364C202.602 26.1655 202.517 25.9311 202.494 25.6856C202.472 25.4401 202.513 25.1928 202.613 24.97C202.258 25.5683 202.108 26.3191 202.519 26.8337C202.732 27.0999 203.062 27.2465 203.269 27.5187C203.641 28.0093 203.516 28.7153 203.507 29.3376C203.485 29.5545 203.537 29.7726 203.652 29.9538C203.76 30.0598 203.892 30.1345 204.035 30.1707C204.178 30.2069 204.328 30.2033 204.47 30.1602C204.751 30.0709 205.046 30.0415 205.339 30.0735C205.646 30.1789 205.912 30.3894 206.094 30.6718C207.022 31.9192 207.386 33.2893 207.777 34.791C207.823 35.1606 207.999 35.4988 208.269 35.7394C208.463 35.8382 208.677 35.8874 208.893 35.8829C210.906 36.0146 213.005 36.1103 214.856 35.2846C215.203 35.1549 215.515 34.9371 215.764 34.6504C215.889 34.4819 215.986 34.2916 216.048 34.088C216.051 34.1269 216.031 34.1598 216.008 34.1898Z" fill="black"/>
<path opacity="0.1" d="M203.158 24.0457C203.247 23.9436 203.316 23.8235 203.36 23.6927C203.385 23.5413 203.385 23.3863 203.36 23.235C203.305 22.3821 203.41 21.5261 203.669 20.7161L203.632 20.6713C203.244 21.6271 203.081 22.668 203.158 23.7046C203.167 23.8181 203.167 23.9322 203.158 24.0457Z" fill="black"/>
</g>
<path opacity="0.1" d="M206.588 39.084C206.588 39.084 214.842 40.2387 215.583 38.9314L206.588 39.084Z" fill="black"/>
<path opacity="0.1" d="M222.633 35.4851C222.633 35.4851 227.221 35.4851 228.229 37.3039L222.633 35.4851Z" fill="black"/>
<path d="M248.302 197.071C246.941 198.353 245.173 199.049 243.347 199.021C242.882 199.021 242.237 199.114 242.234 199.605C242.246 199.749 242.293 199.887 242.371 200.006C242.947 201.017 243.856 201.77 244.926 202.121C245.92 202.438 246.982 202.384 248.018 202.327L251.042 202.162C251.609 202.13 252.177 202.1 252.745 202.025C253.313 201.95 253.932 201.827 254.525 201.726C255.983 201.507 257.458 201.435 258.929 201.51C259.321 201.525 259.781 201.51 260.014 201.211C260.246 200.912 260.127 200.341 260.039 199.892C259.857 198.968 260.039 197.998 259.872 197.071C259.588 195.444 258.25 194.196 256.785 193.607C255.423 193.062 253.009 192.437 251.72 193.347C250.36 194.301 249.528 195.895 248.302 197.071Z" fill="#3F3D56"/>
<path d="M251.306 142.548C251.573 143.885 252.802 144.908 252.836 146.272C252.868 147.367 252.126 148.286 251.593 149.222C251.09 150.192 250.665 151.204 250.324 152.249C249.319 154.97 248.071 157.584 246.599 160.057C245.889 161.254 245.094 162.531 245.256 163.922C245.369 164.573 245.587 165.198 245.9 165.771L248.029 170.228C248.496 171.118 248.861 172.063 249.117 173.043C249.301 173.89 249.319 174.766 249.426 175.628C249.761 178.362 250.979 181.114 250.258 183.765C250.196 183.992 249.974 184.267 249.801 184.109C250.505 185.494 251.07 186.888 251.016 188.458C250.988 189.281 250.749 190.14 251.036 190.905C251.158 191.225 251.371 191.525 251.368 191.869C251.368 192.096 251.269 192.308 251.246 192.53C251.187 193.161 251.738 193.687 252.308 193.888C252.879 194.088 253.501 194.073 254.077 194.256C255.184 194.606 255.976 195.611 256.916 196.308C257.88 197.008 259.017 197.398 260.187 197.43C260.354 197.449 260.522 197.413 260.67 197.328C260.753 197.251 260.82 197.157 260.866 197.05C260.912 196.944 260.936 196.829 260.937 196.712C260.988 196.153 260.908 195.59 260.704 195.071C260.5 194.553 260.178 194.095 259.767 193.738C259.586 193.619 259.437 193.455 259.332 193.26C259.279 193.087 259.266 192.904 259.293 192.724C259.464 190.272 259.422 187.809 259.168 185.365C259.053 184.591 259.016 183.806 259.057 183.023C259.117 182.371 259.304 181.725 259.236 181.075C259.168 180.426 258.853 179.834 258.668 179.209C258.339 178.096 258.43 176.899 258.384 175.736C258.327 173.713 257.887 171.727 257.45 169.753C257.277 168.978 257.087 168.167 256.567 167.593C256.124 167.105 255.409 166.638 255.576 165.989C255.669 165.75 255.807 165.533 255.982 165.352C256.188 165.08 256.339 164.767 256.426 164.432C256.512 164.096 256.534 163.746 256.488 163.402C256.674 163.452 256.872 163.432 257.046 163.346C257.221 163.26 257.362 163.112 257.444 162.929C260.903 161.209 263.691 157.769 264.934 153.954C265.008 153.671 265.12 153.401 265.269 153.153C265.59 152.68 266.147 152.477 266.641 152.216C268.191 151.394 269.261 149.853 270.244 148.345C270.811 147.472 271.379 146.568 271.635 145.539C271.769 144.874 271.833 144.195 271.825 143.514L271.913 139.999C271.932 139.768 271.911 139.534 271.851 139.311C271.766 139.102 271.644 138.913 271.49 138.755C270.546 137.702 269.305 136.998 267.952 136.744C267.044 136.574 266.115 136.607 265.195 136.526C263.412 136.37 261.652 135.787 259.869 135.928C257.067 136.146 254.571 138.192 253.251 140.807C252.788 141.728 252.3 142.53 251.306 142.548Z" fill="#464353"/>
<path d="M235.747 119.693C235.785 120.235 235.715 120.78 235.542 121.293C235.324 121.784 234.776 122.167 234.296 121.966C234.441 121.622 234.058 121.23 233.7 121.272C233.524 121.315 233.36 121.402 233.223 121.526C233.086 121.65 232.98 121.807 232.913 121.984C232.676 122.487 232.597 123.055 232.686 123.609C232.8 124.297 233.177 124.958 233.078 125.649C232.999 126.223 232.598 126.795 232.811 127.327C232.949 127.57 233.123 127.789 233.325 127.976C233.606 128.34 233.743 128.804 233.708 129.271C233.674 129.739 233.471 130.175 233.14 130.489L238.512 130.603C238.316 131.548 238.72 132.514 239.18 133.355C240.468 135.666 242.247 137.631 244.377 139.096C246.507 140.562 248.93 141.487 251.456 141.8C251.32 141.884 251.203 141.999 251.113 142.137C251.024 142.274 250.965 142.431 250.94 142.595C250.915 142.76 250.926 142.928 250.97 143.088C251.015 143.248 251.093 143.396 251.198 143.52C251.635 143.978 252.376 143.921 252.924 143.625C253.472 143.329 253.901 142.838 254.401 142.458C255.283 141.799 256.359 141.494 257.436 141.597C258.109 141.665 258.762 141.896 259.437 141.932C261.425 142.042 263.128 140.535 265.042 139.918C266.436 139.467 268.018 139.467 269.187 138.548C269.693 138.153 270.107 137.504 269.96 136.864C269.837 136.496 269.644 136.159 269.392 135.874C268.719 134.955 268.321 133.852 267.839 132.807C266.882 130.74 265.566 128.881 263.957 127.327C262.743 126.209 261.457 125.181 260.108 124.252C259.781 123.998 259.433 123.777 259.068 123.591C258.597 123.372 258.075 123.268 257.649 122.992C257.018 122.574 256.655 121.835 256.169 121.239C255.105 119.929 253.469 119.328 252.158 118.299C251.277 117.608 250.5 116.698 249.449 116.366C248.938 116.202 248.396 116.19 247.885 116.028C246.723 115.657 245.877 114.571 244.739 114.132C243.839 113.785 242.845 113.874 241.9 113.752C240.834 113.613 239.816 113.205 238.933 112.561C238.648 112.317 238.329 112.121 237.987 111.981C236.548 111.52 236.431 114.344 236.283 115.322C236.093 116.776 235.747 118.221 235.747 119.693Z" fill="#EA5B70"/>
<path d="M237.15 129.164C237.391 131.922 235.415 134.593 235.992 137.295C236.114 137.869 236.349 138.417 236.435 139C236.676 140.6 235.767 142.117 234.901 143.457L227.463 154.959C227.164 155.464 226.807 155.929 226.401 156.342C224.981 157.673 222.846 157.538 220.978 157.933C219.665 158.217 218.426 158.795 217.344 159.626C217.295 159.666 217.263 159.724 217.254 159.788C217.246 159.853 217.261 159.918 217.298 159.97C217.607 160.413 218.015 160.767 218.487 161.001C218.958 161.234 219.478 161.34 219.998 161.307C220.194 161.577 219.998 161.978 219.728 162.172C219.331 162.471 218.78 162.54 218.701 163.255C218.674 163.503 218.721 163.754 218.837 163.973C219.138 164.455 219.604 164.796 220.137 164.924C222.713 165.756 225.495 164.296 227.423 162.313C229.351 160.329 230.733 157.825 232.624 155.809C233.672 154.69 234.862 153.736 235.941 152.653C238.093 150.49 239.768 147.867 241.381 145.237C241.866 144.444 242.357 143.631 242.559 142.712C242.76 141.794 242.667 140.864 242.897 139.975C243.198 138.811 244.007 137.881 244.68 136.906C246 134.991 246.883 132.649 246.707 130.289C246.531 127.928 245.145 125.601 243.033 124.799C242.378 124.525 241.656 124.479 240.974 124.668C240.109 124.949 239.47 125.703 238.879 126.427L237.46 128.144C237.114 128.524 236.843 128.972 236.662 129.463C236.57 129.71 236.548 129.98 236.599 130.24C236.649 130.5 236.769 130.739 236.946 130.929" fill="#FBBEBE"/>
<path d="M240.92 117.85C239.944 117.91 238.868 118.012 238.178 118.747C237.888 119.085 237.654 119.472 237.485 119.89C236.815 121.329 236.162 122.834 236.113 124.437C236.074 125.718 236.426 126.971 236.61 128.236C236.764 129.29 236.375 130.363 236.301 131.428C237.513 131.037 239.115 130.504 240.213 129.843C240.963 129.391 241.687 128.877 242.505 128.589C243.672 128.18 245.628 128.889 246.738 129.457C246.798 128.637 246.213 127.207 246.275 126.385C246.284 126.038 246.342 125.696 246.448 125.368C246.614 125.021 246.811 124.691 247.036 124.383C247.459 123.66 247.653 122.813 247.591 121.966C247.53 121.118 247.215 120.313 246.692 119.666C245.707 118.499 244.166 118.062 242.695 117.871C241.769 117.758 240.835 117.724 239.904 117.769" fill="#EA5B70"/>
</g>
<defs>
<linearGradient id="paint0_linear" x1="200.513" y1="163.39" x2="200.513" y2="17.2071" gradientUnits="userSpaceOnUse">
<stop stop-color="#808080" stop-opacity="0.25"/>
<stop offset="0.54" stop-color="#808080" stop-opacity="0.12"/>
<stop offset="1" stop-color="#808080" stop-opacity="0.1"/>
</linearGradient>
<clipPath id="clip0">
<rect width="298" height="203" fill="white"/>
</clipPath>
</defs>
</svg>
