<svg width="304" height="203" viewBox="0 0 304 203" fill="none" xmlns="http://www.w3.org/2000/svg">
<path d="M143.19 31.9288H114.617C114.186 31.9288 113.773 31.7517 113.469 31.4366C113.164 31.1215 112.993 30.694 112.993 30.2483C112.993 29.8026 113.164 29.3752 113.469 29.0601C113.773 28.7449 114.186 28.5679 114.617 28.5679H143.19C143.62 28.5679 144.033 28.7449 144.338 29.0601C144.642 29.3752 144.813 29.8026 144.813 30.2483C144.813 30.694 144.642 31.1215 144.338 31.4366C144.033 31.7517 143.62 31.9288 143.19 31.9288Z" fill="#CCCCCC"/>
<path d="M165.269 43.6921H114.617C114.186 43.6921 113.773 43.515 113.469 43.1999C113.164 42.8848 112.993 42.4573 112.993 42.0116C112.993 41.566 113.164 41.1385 113.469 40.8234C113.773 40.5082 114.186 40.3312 114.617 40.3312H165.269C165.699 40.3312 166.112 40.5082 166.417 40.8234C166.721 41.1385 166.892 41.566 166.892 42.0116C166.892 42.4573 166.721 42.8848 166.417 43.1999C166.112 43.515 165.699 43.6921 165.269 43.6921Z" fill="#CCCCCC"/>
<path d="M152.606 55.4553H114.617C114.186 55.4553 113.773 55.2782 113.469 54.9631C113.164 54.6479 112.993 54.2205 112.993 53.7748C112.993 53.3291 113.164 52.9017 113.469 52.5866C113.773 52.2714 114.186 52.0944 114.617 52.0944H152.606C153.036 52.0944 153.449 52.2714 153.754 52.5866C154.058 52.9017 154.229 53.3291 154.229 53.7748C154.229 54.2205 154.058 54.6479 153.754 54.9631C153.449 55.2782 153.036 55.4553 152.606 55.4553Z" fill="#CCCCCC"/>
<path d="M165.269 67.2186H114.617C114.186 67.2186 113.773 67.0415 113.469 66.7264C113.164 66.4112 112.993 65.9838 112.993 65.5381C112.993 65.0924 113.164 64.665 113.469 64.3499C113.773 64.0347 114.186 63.8577 114.617 63.8577H165.269C165.699 63.8577 166.112 64.0347 166.417 64.3499C166.721 64.665 166.892 65.0924 166.892 65.5381C166.892 65.9838 166.721 66.4112 166.417 66.7264C166.112 67.0415 165.699 67.2186 165.269 67.2186Z" fill="#CCCCCC"/>
<path d="M48.4781 77.3065C64.5222 77.3065 77.5285 63.8436 77.5285 47.2363C77.5285 30.6289 64.5222 17.166 48.4781 17.166C32.434 17.166 19.4277 30.6289 19.4277 47.2363C19.4277 63.8436 32.434 77.3065 48.4781 77.3065Z" fill="#FF867F"/>
<path d="M50.1014 18.863H46.8545V15.5021H50.1014V18.863ZM47.5039 18.1908H49.4521V16.1743H47.5039V18.1908Z" fill="#3F3D56"/>
<path d="M66.7371 16.8464H49.5283V17.5186H66.7371V16.8464Z" fill="#3F3D56"/>
<path d="M66.7368 17.8825C67.1103 17.8825 67.4131 17.5691 67.4131 17.1825C67.4131 16.7959 67.1103 16.4825 66.7368 16.4825C66.3633 16.4825 66.0605 16.7959 66.0605 17.1825C66.0605 17.5691 66.3633 17.8825 66.7368 17.8825Z" fill="#3F3D56"/>
<path d="M47.2552 16.8464H30.3711V17.5186H47.2552V16.8464Z" fill="#3F3D56"/>
<path d="M30.3716 17.8825C30.745 17.8825 31.0478 17.5691 31.0478 17.1825C31.0478 16.7959 30.745 16.4825 30.3716 16.4825C29.9981 16.4825 29.6953 16.7959 29.6953 17.1825C29.6953 17.5691 29.9981 17.8825 30.3716 17.8825Z" fill="#3F3D56"/>
<path d="M79.0761 48.8376H75.8291V45.4767H79.0761V48.8376ZM76.4785 48.1654H78.4267V46.1489H76.4785V48.1654Z" fill="#3F3D56"/>
<path d="M77.7764 48.5806H77.127V66.0574H77.7764V48.5806Z" fill="#3F3D56"/>
<path d="M77.4526 66.7575C77.8261 66.7575 78.1289 66.4441 78.1289 66.0575C78.1289 65.6709 77.8261 65.3575 77.4526 65.3575C77.0791 65.3575 76.7764 65.6709 76.7764 66.0575C76.7764 66.4441 77.0791 66.7575 77.4526 66.7575Z" fill="#3F3D56"/>
<path d="M77.7764 28.415H77.127V45.8919H77.7764V28.415Z" fill="#3F3D56"/>
<path d="M77.4526 29.1151C77.8261 29.1151 78.1289 28.8017 78.1289 28.4151C78.1289 28.0285 77.8261 27.7151 77.4526 27.7151C77.0791 27.7151 76.7764 28.0285 76.7764 28.4151C76.7764 28.8017 77.0791 29.1151 77.4526 29.1151Z" fill="#3F3D56"/>
<path d="M20.9559 48.8376H17.709V45.4767H20.9559V48.8376ZM18.3584 48.1654H20.3065V46.1489H18.3584V48.1654Z" fill="#3F3D56"/>
<path d="M19.6562 48.5806H19.0068V66.0574H19.6562V48.5806Z" fill="#3F3D56"/>
<path d="M19.3315 66.7575C19.705 66.7575 20.0078 66.4441 20.0078 66.0575C20.0078 65.6709 19.705 65.3575 19.3315 65.3575C18.958 65.3575 18.6553 65.6709 18.6553 66.0575C18.6553 66.4441 18.958 66.7575 19.3315 66.7575Z" fill="#3F3D56"/>
<path d="M19.6562 27.7429H19.0068V45.8919H19.6562V27.7429Z" fill="#3F3D56"/>
<path d="M19.3315 29.1151C19.705 29.1151 20.0078 28.8017 20.0078 28.4151C20.0078 28.0285 19.705 27.7151 19.3315 27.7151C18.958 27.7151 18.6553 28.0285 18.6553 28.4151C18.6553 28.8017 18.958 29.1151 19.3315 29.1151Z" fill="#3F3D56"/>
<path d="M50.1014 79.0236H46.8545V75.6627H50.1014V79.0236ZM47.5039 78.3515H49.4521V76.3349H47.5039V78.3515Z" fill="#3F3D56"/>
<path d="M67.0623 77.0071H49.8535V77.6793H67.0623V77.0071Z" fill="#3F3D56"/>
<path d="M66.7368 78.0432C67.1103 78.0432 67.4131 77.7298 67.4131 77.3432C67.4131 76.9566 67.1103 76.6432 66.7368 76.6432C66.3633 76.6432 66.0605 76.9566 66.0605 77.3432C66.0605 77.7298 66.3633 78.0432 66.7368 78.0432Z" fill="#3F3D56"/>
<path d="M47.2552 77.0071H30.3711V77.6793H47.2552V77.0071Z" fill="#3F3D56"/>
<path d="M30.3716 78.0432C30.7451 78.0432 31.0478 77.7298 31.0478 77.3432C31.0478 76.9566 30.7451 76.6432 30.3716 76.6432C29.9981 76.6432 29.6953 76.9566 29.6953 77.3432C29.6953 77.7298 29.9981 78.0432 30.3716 78.0432Z" fill="#3F3D56"/>
<path d="M182.478 102.508H5.51979C4.05635 102.507 2.65332 101.904 1.61852 100.833C0.583712 99.7618 0.00164059 98.3095 0 96.7947V5.71358C0.00164059 4.19876 0.583712 2.74648 1.61852 1.67535C2.65332 0.60421 4.05635 0.00169819 5.51979 0H182.478C183.941 0.00170529 185.344 0.604217 186.379 1.67535C187.414 2.74648 187.996 4.19876 187.998 5.71358V96.7947C187.996 98.3095 187.414 99.7618 186.379 100.833C185.344 101.904 183.941 102.507 182.478 102.508ZM5.51979 0.672185C4.22853 0.673698 2.99057 1.20533 2.07751 2.15044C1.16445 3.09556 0.650848 4.37698 0.649387 5.71358V96.7947C0.650848 98.1313 1.16445 99.4127 2.07751 100.358C2.99057 101.303 4.22853 101.835 5.51979 101.836H182.478C183.769 101.835 185.007 101.303 185.92 100.358C186.833 99.4127 187.347 98.1313 187.348 96.7947V5.71358C187.347 4.37698 186.833 3.09556 185.92 2.15044C185.007 1.20533 183.769 0.673698 182.478 0.672185H5.51979Z" fill="#3F3D56"/>
<path d="M107.149 31.9288C108.045 31.9288 108.772 31.1764 108.772 30.2483C108.772 29.3202 108.045 28.5679 107.149 28.5679C106.252 28.5679 105.525 29.3202 105.525 30.2483C105.525 31.1764 106.252 31.9288 107.149 31.9288Z" fill="#CCCCCC"/>
<path d="M107.149 43.6921C108.045 43.6921 108.772 42.9397 108.772 42.0116C108.772 41.0835 108.045 40.3312 107.149 40.3312C106.252 40.3312 105.525 41.0835 105.525 42.0116C105.525 42.9397 106.252 43.6921 107.149 43.6921Z" fill="#CCCCCC"/>
<path d="M107.149 55.4553C108.045 55.4553 108.772 54.7029 108.772 53.7748C108.772 52.8467 108.045 52.0944 107.149 52.0944C106.252 52.0944 105.525 52.8467 105.525 53.7748C105.525 54.7029 106.252 55.4553 107.149 55.4553Z" fill="#CCCCCC"/>
<path d="M107.149 67.2186C108.045 67.2186 108.772 66.4662 108.772 65.5381C108.772 64.61 108.045 63.8577 107.149 63.8577C106.252 63.8577 105.525 64.61 105.525 65.5381C105.525 66.4662 106.252 67.2186 107.149 67.2186Z" fill="#CCCCCC"/>
<path d="M163.824 35.6819H153.909C153.585 35.6816 153.274 35.5483 153.046 35.3113C152.817 35.0744 152.688 34.7531 152.688 34.418V22.3067C152.688 21.9716 152.817 21.6503 153.046 21.4133C153.274 21.1764 153.585 21.0431 153.909 21.0427H163.824C164.147 21.0431 164.458 21.1764 164.687 21.4133C164.916 21.6503 165.044 21.9716 165.045 22.3067V34.418C165.044 34.7531 164.916 35.0744 164.687 35.3113C164.458 35.5483 164.147 35.6816 163.824 35.6819Z" fill="#FF6584"/>
<path d="M245.729 202.513L244.629 202.792C245.125 202.866 245.622 202.936 246.119 203H264.477C265.854 202.818 267.223 202.594 268.585 202.328C276.786 200.762 284.613 197.553 291.625 192.88C295.933 189.98 300.041 186.414 302.271 181.624C305.301 175.121 304.242 166.887 299.917 161.224C298.343 159.18 296.404 157.469 294.206 156.182C293.878 155.987 293.547 155.802 293.209 155.628C289.548 153.723 285.437 152.944 281.361 153.383C274.429 154.166 268.033 158.548 264.341 164.672C260.259 171.434 259.477 179.709 258.795 187.651C257.558 183.53 252.915 181.013 248.84 181.924C244.768 182.831 241.625 186.767 241.119 191.049C240.622 195.236 242.46 199.535 245.522 202.328C245.59 202.388 245.658 202.452 245.729 202.513Z" fill="#43BEA7"/>
<path d="M259.886 203H260.805C260.896 202.925 260.967 202.826 261.01 202.714C261.062 202.587 261.11 202.455 261.166 202.328C268.278 184.528 279.558 168.84 293.989 156.68C294.064 156.624 294.124 156.549 294.163 156.461C294.201 156.374 294.216 156.278 294.206 156.182C294.188 156.055 294.137 155.935 294.059 155.834C293.982 155.734 293.88 155.656 293.764 155.61C293.648 155.563 293.522 155.549 293.399 155.568C293.276 155.588 293.16 155.641 293.064 155.722C287.343 160.544 282.095 165.939 277.397 171.827C270.047 181.002 264.098 191.288 259.756 202.328C259.753 202.338 259.75 202.345 259.747 202.355C259.695 202.462 259.68 202.585 259.706 202.703C259.731 202.821 259.795 202.925 259.886 203Z" fill="#128C75"/>
<path d="M227.699 128.399C227.7 127.385 228.09 126.412 228.783 125.695C229.476 124.977 230.416 124.574 231.396 124.573C231.432 124.573 231.467 124.575 231.502 124.577L242.934 115.145L234.742 106.664C234.405 106.317 234.138 105.905 233.955 105.451C233.773 104.997 233.679 104.51 233.678 104.018C233.678 103.526 233.771 103.039 233.953 102.585C234.134 102.13 234.401 101.717 234.737 101.37C235.073 101.022 235.472 100.746 235.911 100.558C236.35 100.37 236.82 100.274 237.296 100.274C237.771 100.275 238.241 100.372 238.68 100.561C239.118 100.75 239.517 101.026 239.852 101.375L253.02 115.005L235.091 128.502C235.065 129.508 234.657 130.462 233.956 131.159C233.255 131.856 232.318 132.239 231.346 132.225C230.374 132.212 229.447 131.803 228.764 131.087C228.082 130.371 227.699 129.405 227.699 128.399Z" fill="#FFB8B8"/>
<path d="M214.279 198.311L210.413 196.817L214.141 180.67L219.846 182.875L214.279 198.311Z" fill="#FFB8B8"/>
<path d="M207.898 194.543L215.521 197.488L213.768 202.348L201.618 197.652L201.68 197.48C202.128 196.237 203.035 195.229 204.201 194.678C205.368 194.127 206.697 194.078 207.898 194.543Z" fill="#2F2E41"/>
<path d="M249.062 198.372H244.935L242.972 181.895L249.063 181.895L249.062 198.372Z" fill="#FFB8B8"/>
<path d="M241.809 197.151H249.946V202.338H236.976V202.154C236.976 201.497 237.101 200.847 237.344 200.24C237.586 199.633 237.942 199.081 238.391 198.617C238.84 198.152 239.373 197.783 239.959 197.532C240.546 197.281 241.174 197.151 241.809 197.151Z" fill="#2F2E41"/>
<path d="M243.594 192.108C243.442 191.956 243.324 191.772 243.248 191.568C243.171 191.365 243.138 191.147 243.151 190.929C243.888 178.345 237.48 155.472 235.499 148.762C235.446 148.575 235.347 148.405 235.213 148.268C235.079 148.131 234.913 148.032 234.731 147.98C234.546 147.925 234.35 147.919 234.162 147.963C233.974 148.007 233.799 148.099 233.655 148.23C222.952 157.88 219.758 185.105 219.227 190.465C219.207 190.665 219.148 190.859 219.055 191.035C218.961 191.212 218.835 191.367 218.683 191.493C218.53 191.618 218.355 191.71 218.168 191.764C217.981 191.819 217.785 191.834 217.592 191.808L212.251 191.117C212.049 191.091 211.856 191.022 211.682 190.914C211.508 190.807 211.357 190.662 211.24 190.491C211.123 190.32 211.041 190.125 211 189.92C210.96 189.714 210.961 189.502 211.004 189.297L225.01 122.266L225.018 122.226L225.044 122.194C228.431 117.987 238.244 119.625 238.66 119.697L238.703 119.704L238.737 119.733C251.338 130.55 250.699 180.689 250.443 190.63C250.433 190.999 250.293 191.351 250.05 191.621C249.806 191.89 249.476 192.058 249.121 192.093L244.747 192.524C244.7 192.529 244.654 192.531 244.607 192.531C244.229 192.531 243.866 192.38 243.594 192.108Z" fill="#2F2E41"/>
<path d="M236.188 92.7105C240.592 92.7105 244.163 89.0147 244.163 84.4557C244.163 79.8967 240.592 76.2009 236.188 76.2009C231.783 76.2009 228.213 79.8967 228.213 84.4557C228.213 89.0147 231.783 92.7105 236.188 92.7105Z" fill="#FFB8B8"/>
<path d="M244.018 100.002C244.018 100.002 236.613 90.9428 230.554 98.2599C226.655 102.968 224.594 109.012 224.771 115.21L225 123.173L238.969 120.908L244.018 100.002Z" fill="#C67C7C"/>
<path d="M234.896 85.8838L231.47 81.7056C230.587 80.6289 229.663 79.4561 229.538 78.0496C229.401 76.5079 230.307 75.0093 231.546 74.1413C232.784 73.2733 234.305 72.9466 235.796 72.8268C238.562 72.6045 241.473 73.0776 243.746 74.7228C246.02 76.368 247.507 79.3382 246.953 82.1518C246.517 84.3672 244.908 86.4895 245.533 88.6559C246.217 91.0264 249.023 91.7536 251.313 92.4605C255.157 93.647 258.828 95.9828 260.843 99.5737C262.858 103.165 262.849 108.116 260.163 111.201C258.424 113.198 255.801 114.208 253.208 114.36C250.614 114.512 248.033 113.88 245.573 113.015C243.308 112.219 241.067 111.194 239.284 109.544C237.5 107.893 236.216 105.531 236.271 103.055C236.324 100.696 237.545 98.5467 238.047 96.2445C238.442 94.3168 238.339 92.315 237.746 90.4421C237.153 88.5693 236.092 86.892 234.671 85.5803" fill="#2F2E41"/>
<path d="M226.427 160.429H216.512C216.188 160.428 215.878 160.295 215.649 160.058C215.42 159.821 215.291 159.5 215.291 159.165V147.053C215.291 146.718 215.42 146.397 215.649 146.16C215.878 145.923 216.188 145.79 216.512 145.79H226.427C226.751 145.79 227.061 145.923 227.29 146.16C227.519 146.397 227.648 146.718 227.648 147.053V159.165C227.648 159.5 227.519 159.821 227.29 160.058C227.061 160.295 226.751 160.428 226.427 160.429Z" fill="#FB1D1D"/>
<path d="M223.489 150.07C223.015 149.306 222.827 148.39 222.959 147.492C223.091 146.595 223.533 145.778 224.204 145.194L229.631 100.933C229.749 99.9876 230.194 99.1185 230.885 98.4882C231.576 97.8578 232.465 97.5093 233.386 97.5076L233.437 97.5079C233.987 97.5154 234.529 97.6468 235.025 97.893C235.521 98.1393 235.959 98.4944 236.308 98.9337C236.658 99.373 236.911 99.8859 237.05 100.437C237.189 100.988 237.211 101.563 237.113 102.123L229.482 145.836L229.484 145.838C229.803 146.289 230.021 146.807 230.122 147.355C230.223 147.904 230.204 148.469 230.068 149.009C229.931 149.549 229.68 150.051 229.332 150.478C228.985 150.905 228.55 151.246 228.058 151.477C227.597 151.694 227.095 151.805 226.588 151.804C225.973 151.807 225.366 151.649 224.825 151.346C224.283 151.043 223.824 150.604 223.489 150.07Z" fill="#FFB8B8"/>
<path d="M277.425 203H193.979C193.893 203 193.81 202.965 193.749 202.902C193.689 202.839 193.654 202.753 193.654 202.664C193.654 202.575 193.689 202.489 193.749 202.426C193.81 202.363 193.893 202.328 193.979 202.328H277.425C277.511 202.328 277.594 202.363 277.655 202.426C277.716 202.489 277.75 202.575 277.75 202.664C277.75 202.753 277.716 202.839 277.655 202.902C277.594 202.965 277.511 203 277.425 203Z" fill="#3F3D56"/>
<path d="M44.2891 50.5469H37.1406L35.5352 55H33.2148L39.7305 37.9375H41.6992L48.2266 55H45.918L44.2891 50.5469ZM37.8203 48.6953H43.6211L40.7148 40.7148L37.8203 48.6953ZM62.3477 45.8477H67.1055V47.8984H62.3477V53.2891H60.168V47.8984H55.4102V45.8477H60.168V40.8672H62.3477V45.8477Z" fill="white"/>
</svg>
