<svg width="290" height="233" viewBox="0 0 290 233" fill="none" xmlns="http://www.w3.org/2000/svg">
<g clip-path="url(#clip0)">
<g opacity="0.2">
<path opacity="0.2" d="M244.466 201.365C242.469 202.893 240.431 204.372 238.355 205.803C238.032 206.024 237.71 206.246 237.388 206.474C235.827 207.536 234.242 208.569 232.632 209.573C232.644 209.412 232.66 209.251 232.679 209.09C232.864 207.424 233.273 205.81 233.89 204.32C234.179 203.607 234.524 202.933 234.92 202.308C236.492 199.815 238.674 198.423 240.904 198.829C242.294 199.1 243.559 200.001 244.466 201.365Z" fill="#3F3D56"/>
<path opacity="0.2" d="M248.127 197.551C248.088 197.91 248.038 198.262 247.977 198.611C246.823 199.553 245.653 200.471 244.465 201.365C242.468 202.893 240.431 204.372 238.354 205.803C238.032 206.024 237.709 206.246 237.387 206.474C237 206.113 236.645 205.698 236.33 205.236C235.739 204.369 235.265 203.384 234.927 202.321C234.221 200.001 233.996 197.489 234.274 195.026C234.551 192.563 235.322 190.232 236.513 188.256C238.098 185.764 240.267 184.372 242.497 184.778C244.727 185.184 246.513 187.3 247.47 190.252C248.196 192.568 248.423 195.087 248.127 197.551Z" fill="#3F3D56"/>
<path opacity="0.2" d="M249.73 183.497C250.449 177.142 247.932 171.424 244.107 170.726C240.283 170.028 236.599 174.614 235.879 180.97C235.16 187.326 237.677 193.044 241.501 193.742C245.326 194.44 249.01 189.853 249.73 183.497Z" fill="#3F3D56"/>
<path opacity="0.2" d="M289.654 65.9633C288.974 72.0425 287.261 77.8613 284.634 83.0169L264.977 79.2399L282.743 86.3545C281.78 87.8968 280.736 89.3537 279.617 90.7151C283.375 98.9759 284.836 108.6 283.768 118.043C282.699 127.485 279.162 136.198 273.725 142.781C276.903 149.744 278.453 157.712 278.193 165.752C269.836 178.099 259.64 189.175 247.985 198.625C246.826 199.557 245.653 200.471 244.466 201.365C242.468 202.892 240.431 204.372 238.354 205.803C237.67 205.635 236.996 205.444 236.33 205.223C235.503 204.958 234.692 204.649 233.897 204.307C228.448 201.946 223.57 197.843 219.733 192.392C215.896 186.942 213.231 180.329 211.993 173.19C210.755 166.051 210.987 158.628 212.666 151.636C214.345 144.644 217.415 138.319 221.579 133.272C221.241 132.532 220.921 131.779 220.62 131.014C220.53 130.793 220.446 130.572 220.356 130.343C217.914 123.88 216.805 116.736 217.133 109.58L217.172 108.839C217.196 108.44 217.225 108.037 217.257 107.638C217.304 107.074 217.36 106.507 217.423 105.941V105.887C217.94 101.312 219.045 96.8753 220.694 92.7546L244.661 108.077L222.808 88.1926C224.156 85.6573 225.715 83.3136 227.458 81.2022C225.18 76.1456 223.743 70.5489 223.238 64.7588C222.733 58.9686 223.17 53.1086 224.523 47.5417C225.875 41.9748 228.113 36.8197 231.098 32.396C234.084 27.9723 237.753 24.3741 241.879 21.8245C246.005 19.275 250.499 17.8283 255.084 17.5742C259.668 17.3201 264.244 18.2639 268.529 20.3473C272.815 22.4306 276.717 25.6091 279.995 29.6856C283.273 33.7622 285.857 38.6499 287.586 44.046L260.67 62.3239L289.036 49.7551C290.062 55.057 290.272 60.5604 289.654 65.9633Z" fill="#6C63FF"/>
<path opacity="0.1" d="M278.185 165.739C269.828 178.086 259.632 189.162 247.977 198.611C246.823 199.553 245.653 200.471 244.466 201.365C242.468 202.892 240.431 204.372 238.354 205.803C237.67 205.635 236.996 205.444 236.331 205.223C235.504 204.958 234.692 204.649 233.897 204.307C228.448 201.946 223.57 197.843 219.733 192.393C215.896 186.942 213.231 180.329 211.993 173.19C210.755 166.051 210.987 158.628 212.666 151.636C214.345 144.644 217.415 138.319 221.579 133.272C221.241 132.532 220.921 131.779 220.62 131.014C220.53 130.793 220.446 130.572 220.356 130.343C217.914 123.88 216.805 116.736 217.133 109.58L217.172 108.839C217.196 108.44 217.225 108.037 217.257 107.638C217.304 107.074 217.36 106.507 217.423 105.941V105.887C217.629 104.981 220.356 105.743 224.51 107.564L225.387 107.96C226.306 108.379 227.286 108.842 228.317 109.349C230.565 110.449 233.049 111.747 235.67 113.183L235.842 113.277L236.206 113.478C253.83 123.179 277.012 138.743 273.688 142.761C276.878 149.722 278.438 157.692 278.185 165.739Z" fill="black"/>
</g>
<g opacity="0.2">
<path opacity="0.2" d="M84.2611 220.19C83.1514 219.702 82.0496 219.201 80.9558 218.687C78.4087 217.497 75.9014 216.239 73.4336 214.913C73.934 214.398 74.5019 213.998 75.1113 213.733C77.3123 212.773 79.7298 213.689 81.6982 215.896C82.7606 217.106 83.6306 218.564 84.2611 220.19Z" fill="#3F3D56"/>
<path opacity="0.2" d="M81.6976 215.896C81.5479 216.864 81.2982 217.802 80.9551 218.687C78.4081 217.497 75.9007 216.239 73.4329 214.913C71.2857 213.766 69.172 212.569 67.0918 211.321C67.0009 210.52 66.9602 209.711 66.9702 208.902C66.9791 208.059 67.0499 207.219 67.1816 206.393C67.71 203.096 69.2055 200.469 71.409 199.51C73.6126 198.551 76.0275 199.466 77.9959 201.677C78.4725 202.213 78.9095 202.804 79.3011 203.441C80.1688 204.86 80.8373 206.458 81.2775 208.164C81.9445 210.651 82.0893 213.316 81.6976 215.896Z" fill="#3F3D56"/>
<path opacity="0.2" d="M73.6322 208.615C77.4334 207.09 79.2119 200.619 77.6046 194.163C75.9972 187.707 71.6127 183.709 67.8115 185.235C64.0102 186.76 62.2317 193.23 63.8391 199.687C65.4464 206.143 69.831 210.14 73.6322 208.615Z" fill="#3F3D56"/>
<path opacity="0.2" d="M69.3851 193.725C73.1723 192.206 74.9454 185.761 73.3454 179.328C71.7453 172.896 67.3781 168.912 63.5908 170.43C59.8036 171.949 58.0305 178.394 59.6305 184.827C61.2305 191.259 65.5978 195.243 69.3851 193.725Z" fill="#3F3D56"/>
<path opacity="0.2" d="M79.2883 203.441C78.5538 203.987 77.7999 204.498 77.0266 204.974C75.7802 205.743 74.4982 206.415 73.1876 206.987C71.9917 207.511 70.7735 207.949 69.5388 208.299C68.6809 208.545 67.8223 208.745 66.9627 208.899C65.8952 209.094 64.8305 209.221 63.7683 209.281C51.0014 201.231 39.5398 191.383 29.7585 180.135C29.6185 179.659 29.4943 179.179 29.3595 178.693C26.8521 169.148 26.8948 158.82 29.4811 149.309C22.9405 143.733 18.056 135.542 15.6045 126.036C14.3849 121.385 13.7605 116.515 13.755 111.613H41.4263L14.0245 106.051C14.3289 102.853 14.8992 99.7047 15.726 96.659C9.18503 91.0855 4.30037 82.8946 1.84944 73.3899C-4.29621 49.8725 5.36614 24.4163 23.4305 16.5202C35.5237 11.2404 48.3144 15.1785 57.295 25.4092L39.2888 58.8722L60.7272 29.9175C63.6279 34.3142 65.8443 39.3706 67.2586 44.8175C68.8711 50.9699 69.4367 57.4868 68.9179 63.9373L49.4637 72.2226L68.4079 68.2208C68.0923 70.25 67.6677 72.2494 67.1371 74.205C73.6775 79.7792 78.562 87.9699 81.0136 97.4741C82.2012 102.002 82.8252 106.737 82.8631 111.509V111.546C82.8631 111.915 82.8631 112.284 82.8631 112.653C82.8631 112.81 82.8631 112.965 82.8631 113.122C82.7708 117.807 82.1105 122.446 80.9053 126.875C83.5635 129.136 85.9639 131.85 88.0391 134.942C88.092 135.016 88.1422 135.09 88.1897 135.167C91.1159 139.581 93.35 144.665 94.7713 150.144C100.18 170.841 93.334 193.046 79.2883 203.441Z" fill="#6C63FF"/>
<path opacity="0.1" d="M79.2885 203.441C78.5539 203.987 77.8 204.498 77.0268 204.974C75.7804 205.743 74.4983 206.415 73.1877 206.987C71.9919 207.511 70.7737 207.949 69.5389 208.298C68.6811 208.544 67.8224 208.745 66.9628 208.899C65.8954 209.093 64.8306 209.221 63.7685 209.281C51.0016 201.231 39.5399 191.382 29.7587 180.135C29.6186 179.659 29.4944 179.179 29.3597 178.693C26.8523 169.148 26.895 158.82 29.4812 149.309C22.9406 143.733 18.0562 135.542 15.6047 126.036C14.6561 122.407 54.2118 119.479 72.2286 122.286L72.6487 122.353C78.118 123.249 81.4762 124.701 80.8922 126.851C83.5504 129.112 85.9508 131.827 88.026 134.919C88.0789 134.992 88.1291 135.066 88.1767 135.143C91.1029 139.557 93.3369 144.641 94.7583 150.121C100.18 170.84 93.3341 193.046 79.2885 203.441Z" fill="black"/>
</g>
<path opacity="0.1" d="M100.986 77.7069C101.129 77.4471 101.209 77.1387 101.213 76.8213C101.213 74.8926 98.1191 73.3328 94.3038 73.3328C90.4885 73.3328 87.3999 74.906 87.3999 76.8213C87.4052 77.1869 87.5045 77.5403 87.6826 77.8276C83.4366 78.4281 80.5752 79.5585 80.5752 80.8466C80.5752 82.7719 86.9164 84.3317 94.7239 84.3317C102.531 84.3317 108.873 82.7719 108.873 80.8466C108.87 79.4646 105.657 78.2771 100.986 77.7069Z" fill="#6C63FF"/>
<path opacity="0.1" d="M210.614 6.94687C210.842 6.53208 210.968 6.04055 210.976 5.53468C210.976 2.47887 206.066 0 200.011 0C193.955 0 189.046 2.47887 189.046 5.53468C189.057 6.10771 189.215 6.66035 189.498 7.10787C182.755 8.06386 178.213 9.85509 178.213 11.908C178.213 14.9638 188.253 17.4426 200.671 17.4426C213.089 17.4426 223.13 14.9638 223.13 11.908C223.13 9.73098 218.028 7.84919 210.614 6.94687Z" fill="#6C63FF"/>
<path opacity="0.1" d="M122.63 6.94687C122.858 6.53208 122.984 6.04055 122.992 5.53468C122.992 2.47887 118.083 0 112.027 0C105.971 0 101.062 2.47887 101.062 5.53468C101.073 6.10771 101.232 6.66035 101.514 7.10787C94.7714 8.06386 90.2295 9.85509 90.2295 11.908C90.2295 14.9638 100.283 17.4426 112.688 17.4426C125.093 17.4426 135.146 14.9638 135.146 11.908C135.146 9.73098 130.044 7.84919 122.63 6.94687Z" fill="#6C63FF"/>
<path opacity="0.1" d="M94.832 35.8412C95.4503 35.3884 96.2799 35.8211 96.7027 36.549C97.1254 37.2769 97.247 38.2262 97.3527 39.1084C97.5878 41.0908 97.7569 43.3684 96.7053 44.8644C98.4254 38.2329 103.379 33.151 108.859 32.4097" stroke="#6C63FF" stroke-width="3" stroke-miterlimit="10"/>
<path opacity="0.1" d="M163.916 2.96191C164.312 2.67008 164.849 2.96191 165.121 3.41475C165.363 3.91263 165.505 4.47803 165.536 5.06174C165.686 6.33639 165.8 7.79889 165.121 8.75152C165.701 6.62264 166.741 4.7434 168.121 3.32783C169.501 1.91225 171.167 1.01723 172.928 0.74469" stroke="#6C63FF" stroke-width="3" stroke-miterlimit="10"/>
<path opacity="0.1" d="M209.361 65.0174C209.758 64.7256 210.294 65.0174 210.566 65.4702C210.808 65.9681 210.95 66.5335 210.981 67.1172C211.132 68.3919 211.245 69.8544 210.566 70.807C211.146 68.6781 212.186 66.7989 213.566 65.3833C214.947 63.9677 216.612 63.0727 218.374 62.8002" stroke="#6C63FF" stroke-width="3" stroke-miterlimit="10"/>
<path d="M144.574 21.7999C143.443 23.0008 142.645 24.5404 141.403 25.6239C139.908 26.9321 137.945 27.4285 136.119 28.1296C134.293 28.8306 132.42 29.9309 131.685 31.8395C131.062 33.473 131.421 35.3683 130.893 37.0387C130.325 38.8132 128.85 40.0576 127.722 41.49C125.492 44.3143 124.501 48.1987 125.08 51.8214C125.479 54.3271 126.57 56.6416 127.218 59.0869C128.01 62.079 128.121 65.2153 128.232 68.3181C128.438 74.1446 128.642 80.0281 127.609 85.7607C127.344 87.1997 126.631 109.08 125.249 109.037C128.917 108.637 132.605 108.594 136.291 108.547L191.512 107.876C188.967 103.649 187.342 78.673 186.803 73.6917C185.873 65.1046 188.124 56.5074 188.389 47.8632C188.426 46.7496 188.426 45.6057 188.064 44.5592C187.683 43.4623 186.922 42.5264 186.669 41.3893C186.304 39.7625 187.036 38.0953 187.06 36.4249C187.107 33.0705 184.417 30.4977 182.285 28.0122C180.23 25.6205 178.52 22.9035 176.399 20.5722C174.277 18.2409 171.611 16.2652 168.578 15.9063C166.086 15.6145 163.611 16.4363 161.225 17.248C158.379 18.2141 155.676 19.4351 152.656 19.3747C149.324 19.3009 147.272 19.6531 144.574 21.7999Z" fill="#2F2E41"/>
<g opacity="0.1">
<path opacity="0.1" d="M182.61 35.0127C182.687 35.3797 182.799 35.7334 182.943 36.066C182.908 35.3113 182.764 34.5711 182.518 33.8823C182.506 34.2628 182.538 34.6434 182.61 35.0127Z" fill="black"/>
<path opacity="0.1" d="M129.057 88.8735L128.75 88.9086C128.853 88.9115 128.956 88.8997 129.057 88.8735Z" fill="black"/>
</g>
<path d="M186.399 209.751C186.062 210.083 185.66 210.29 185.237 210.352C178.481 212.113 171.664 213.615 164.776 214.092C158.699 214.514 152.603 214.135 146.524 213.756C140.444 213.377 134.37 212.995 128.436 211.435C130.894 205.15 132.443 198.354 133.006 191.373C133.256 188.308 133.317 185.224 133.189 182.148C133.169 181.778 133.134 181.41 133.083 181.044C132.8 178.837 132.103 175.641 132.737 174.044C133.551 171.991 136.676 171.924 138.204 171.542C140.798 170.894 143.406 170.354 146.024 169.901C156.416 168.107 166.913 167.697 177.384 167.298C178.79 167.245 180.465 167.365 181.197 168.892C181.606 169.747 181.585 170.814 181.564 171.817C181.516 173.988 181.533 176.159 181.614 178.331C181.981 187.959 183.605 197.443 186.418 206.397C186.766 207.494 187.086 208.929 186.399 209.751Z" fill="#FBBEBE"/>
<path d="M145.287 90.2992C144.182 92.0267 142.626 93.1873 141.059 94.207C139.188 95.4346 137.26 96.5189 135.286 97.454C134.887 98.2222 135.204 99.2419 135.551 100.06C138.65 107.702 142.798 115.296 149.055 118.58C152.265 120.257 155.787 120.676 159.248 121.069C160.326 121.189 161.425 121.31 162.477 120.982C163.528 120.653 164.506 119.858 165.383 119.016C171.115 113.509 174.89 105.337 175.878 96.2968C175.962 95.4951 175.962 94.5123 175.421 94.0829C175.09 93.8246 174.67 93.8749 174.282 93.8783C171.748 93.9118 169.502 91.5303 168.332 88.6824C167.161 85.8346 166.849 82.5506 166.561 79.3539C166.561 79.2835 151.665 78.8843 150.32 78.8709C148.222 78.8474 147.53 79.1594 147.327 81.8898C147.113 84.902 146.848 87.8438 145.287 90.2992Z" fill="#FBBEBE"/>
<path opacity="0.1" d="M145.287 90.2992C144.182 92.0267 142.626 93.1873 141.059 94.207C139.188 95.4346 137.26 96.5189 135.286 97.454C134.887 98.2222 135.204 99.2419 135.551 100.06C138.65 107.702 142.798 115.296 149.055 118.58C152.265 120.257 155.787 120.676 159.248 121.069C160.326 121.189 161.425 121.31 162.477 120.982C163.528 120.653 164.506 119.858 165.383 119.016C171.115 113.509 174.89 105.337 175.878 96.2968C175.962 95.4951 175.962 94.5123 175.421 94.0829C175.09 93.8246 174.67 93.8749 174.282 93.8783C171.748 93.9118 169.502 91.5303 168.332 88.6824C167.161 85.8346 166.849 82.5506 166.561 79.3539C166.561 79.2835 151.665 78.8843 150.32 78.8709C148.222 78.8474 147.53 79.1594 147.327 81.8898C147.113 84.902 146.848 87.8438 145.287 90.2992Z" fill="black"/>
<path d="M157.126 86.7267C168.362 86.7267 177.47 75.1629 177.47 60.8982C177.47 46.6335 168.362 35.0697 157.126 35.0697C145.89 35.0697 136.781 46.6335 136.781 60.8982C136.781 75.1629 145.89 86.7267 157.126 86.7267Z" fill="#FBBEBE"/>
<path d="M172.047 91.5201C172.271 95.1428 141.604 98.5341 140.447 94.0661C139.76 95.0959 138.499 95.1797 137.495 94.737C136.491 94.2942 135.646 93.4422 134.695 92.8149C133.109 91.765 131.323 91.3759 129.566 90.9969C126.705 90.383 123.381 89.9335 121.262 92.4526C120.53 93.3214 120.031 94.4653 119.296 95.3374C118.012 96.8536 116.197 97.3265 114.54 98.0209C112.149 99.0272 109.946 100.637 107.687 102.046C102.412 105.343 96.7879 107.651 90.9908 108.896C89.7569 109.161 88.5151 109.375 87.2918 109.748C85.5744 110.271 83.857 111.167 82.6865 112.847C84.0552 115.068 86.0209 116.279 88.132 117.154L108.503 125.607C111.568 126.878 114.68 128.176 117.362 130.454C121.83 134.238 124.736 140.457 126.327 146.968C127.918 153.478 128.327 160.348 128.723 167.147C128.895 170.103 129.051 173.185 128.137 175.922C132.882 176.632 137.68 176.532 142.404 175.624C146.952 174.745 151.449 173.115 156.049 173.168C161.069 173.232 165.933 175.298 170.882 176.415C175.83 177.532 181.292 177.566 185.461 174C184.573 172.481 184.438 170.311 184.404 168.425L184.298 159.493C184.251 158.415 184.308 157.333 184.468 156.273C184.822 154.361 185.818 152.757 186.454 150.969C187.683 147.518 187.511 143.573 187.58 139.786C187.649 135.999 188.066 131.93 190.082 129.159C191.403 127.351 193.253 126.325 195.129 125.691C198.336 124.604 201.692 124.534 205.005 124.235C215.807 123.252 226.375 119.758 236.182 113.927C235.596 112.354 234.232 111.462 232.988 110.731C230.045 109.003 226.927 107.232 223.698 107.618C222.137 107.806 220.591 108.497 219.035 108.245C217.561 108.003 216.255 106.943 214.823 106.437C213.737 106.055 212.601 105.998 211.486 105.783C208.913 105.283 206.498 103.938 204.117 102.606L198.104 99.2519C196.518 98.363 194.867 97.4137 193.778 95.6963C193.424 95.1361 193.139 94.5055 192.753 93.9789C192.09 93.0765 191.168 92.5432 190.246 92.1709C189.087 91.659 187.853 91.487 186.634 91.6677C185.798 91.8785 184.973 92.1529 184.164 92.4895C180.19 93.8514 176.089 92.4359 172.047 91.5201Z" fill="#FF867F"/>
<path d="M195.316 226.617C184.487 229.922 173.456 232.054 162.342 232.99H162.324H134.42H134.404C129.41 232.558 124.489 231.899 119.64 231.011C121.071 225.603 123.043 220.451 125.508 215.681C125.902 215.007 126.211 214.257 126.422 213.461C126.538 212.72 126.598 211.966 126.599 211.21C126.728 208.895 127.435 206.693 128.618 204.924C129.167 205.304 129.722 205.67 130.282 206.021C136.628 210.023 143.539 212.378 150.611 212.948C154.331 213.19 158.06 213.094 161.769 212.662C170.134 211.807 178.832 209.835 185.569 203.572C185.852 203.311 186.132 203.039 186.41 202.76C189.683 206.45 191.578 212.106 192.933 217.392C193.739 220.485 194.484 223.571 195.316 226.617Z" fill="#2F2E41"/>
<path opacity="0.1" d="M157.016 205.276C156.884 205.818 156.852 206.391 156.922 206.951C156.991 207.51 157.161 208.043 157.418 208.506C157.589 208.022 157.64 207.482 157.563 206.959C157.487 206.436 157.287 205.956 156.989 205.582L157.016 205.276Z" fill="black"/>
<path d="M145.456 96.8434C146.481 96.1323 147.588 95.5017 148.756 95.4815C150.511 95.4614 152.08 96.8233 153.38 98.326C154.582 99.7041 155.669 101.235 156.625 102.895C157.1 103.716 157.555 104.619 157.626 105.635C157.697 106.652 157.259 107.795 156.477 108.037C155.983 108.143 155.475 108.012 155.052 107.671C153.245 106.41 151.906 103.522 149.855 103.804C148.45 103.995 147.499 105.655 146.73 107.158C146.045 108.5 145.353 109.878 145.047 111.428C144.74 112.978 144.888 114.782 145.739 115.95C146.399 116.866 147.364 117.292 148.265 117.768C150.258 118.815 152.082 120.318 153.647 122.202C154.405 123.121 155.126 124.215 155.232 125.557C155.338 126.898 154.537 128.374 153.491 128.28C153.019 128.187 152.574 127.941 152.199 127.566C150.307 125.979 148.376 124.316 146.156 123.732C143.897 123.138 141.564 123.732 139.287 124.175C136.789 124.649 134.279 124.986 131.757 125.188C131.008 125.297 130.25 125.234 129.519 125.003C127.025 124.024 126.298 119.995 126.589 117.084C126.898 113.971 128.702 113.263 130.589 111.717C135.894 107.309 139.831 100.734 145.456 96.8434Z" fill="#FBBEBE"/>
<path d="M165 96.8434C163.972 96.1323 162.868 95.5017 161.697 95.4815C159.943 95.4614 158.373 96.8233 157.073 98.326C155.873 99.7042 154.786 101.235 153.832 102.895C153.359 103.716 152.904 104.619 152.833 105.635C152.761 106.652 153.197 107.795 153.979 108.037C154.474 108.143 154.982 108.012 155.406 107.671C157.213 106.41 158.553 103.522 160.601 103.804C162.009 103.995 162.96 105.655 163.726 107.158C164.411 108.5 165.106 109.878 165.409 111.428C165.713 112.978 165.568 114.782 164.717 115.95C164.059 116.866 163.092 117.292 162.191 117.768C160.198 118.815 158.373 120.318 156.807 122.202C156.048 123.121 155.33 124.215 155.221 125.557C155.113 126.898 155.916 128.374 156.962 128.28C157.434 128.187 157.879 127.941 158.254 127.566C160.146 125.979 162.078 124.316 164.297 123.732C166.556 123.138 168.889 123.732 171.167 124.175C173.658 124.671 176.171 125.017 178.689 125.208C179.438 125.317 180.197 125.254 180.929 125.023C183.421 124.044 184.148 120.015 183.86 117.104C183.548 113.991 181.746 113.283 179.857 111.737C174.562 107.309 170.628 100.734 165 96.8434Z" fill="#FBBEBE"/>
<path d="M143.059 51.5664C144.243 49.1915 145.649 46.6154 147.569 46.3403C150.251 45.9546 152.346 50.2113 155.015 50.7614C158.45 51.4725 161.827 45.8908 165.055 47.9303C166.641 48.9366 167.824 51.7274 169.547 51.6737C170.738 51.6402 171.708 50.2213 172.498 48.8293C173.831 46.4822 175.011 44.0007 176.025 41.4094C172.747 36.6362 167.977 35.546 163.525 34.6772L156.04 33.2181C154.238 32.8659 152.405 32.517 150.613 33.0034C148.994 33.4428 147.482 34.5498 146.016 35.7137C144.267 37.1091 140.153 39.3499 139.08 41.9461C138.332 43.7474 139.36 44.586 140.325 46.4007C141.232 48.1226 142.143 49.8445 143.059 51.5664Z" fill="#2F2E41"/>
<path opacity="0.1" d="M131.721 109.865C128.474 110.688 125.159 110.988 121.853 110.757C120.556 110.67 119.253 110.499 117.961 110.653C116.402 110.841 114.904 111.495 113.385 111.972C105.514 114.43 97.2887 112.029 89.2539 110.68C87.8351 110.442 86.3846 110.237 84.9789 110.586C83.6922 110.905 82.5033 111.67 81.3645 112.492C79.5194 113.824 77.7533 115.325 76.0802 116.983C74.3284 118.721 72.5608 120.934 72.4393 123.749C72.3336 126.171 73.4962 128.401 74.9044 130.048C78.7091 134.52 84.358 135.865 89.4521 134.654C91.3888 134.194 93.2779 133.403 95.2358 133.128C97.2412 132.846 99.2677 133.128 101.284 133.007C105.379 132.775 109.3 130.967 113.276 129.709C119.486 127.747 125.909 127.107 132.284 127.818C132.229 127.848 132.168 127.863 132.108 127.86C132.048 127.858 131.988 127.838 131.935 127.803C131.881 127.768 131.834 127.719 131.797 127.658C131.76 127.597 131.734 127.527 131.721 127.452C131.254 125.815 131.23 124.034 131.238 122.293C131.259 118.07 131.415 114.071 131.721 109.865Z" fill="black"/>
<path d="M131.193 110.201C127.946 111.024 124.63 111.323 121.324 111.093C120.027 111.006 118.725 110.834 117.433 110.989C115.874 111.177 114.376 111.831 112.856 112.307C104.985 114.766 96.7604 112.364 88.7256 111.016C87.3068 110.777 85.8562 110.573 84.4506 110.922C83.1639 111.24 81.9749 112.005 80.8362 112.827C78.9911 114.159 77.225 115.66 75.5519 117.318C73.8001 119.056 72.0325 121.27 71.911 124.084C71.8053 126.506 72.9678 128.737 74.3761 130.384C78.1808 134.855 83.8297 136.2 88.9238 134.989C90.8605 134.53 92.7496 133.738 94.7075 133.463C96.7128 133.181 98.7394 133.463 100.755 133.342C104.851 133.111 108.772 131.303 112.748 130.045C118.958 128.082 125.381 127.443 131.756 128.153C131.7 128.183 131.64 128.198 131.58 128.196C131.519 128.193 131.46 128.174 131.406 128.139C131.353 128.104 131.306 128.054 131.269 127.993C131.232 127.933 131.206 127.862 131.193 127.787C130.725 126.15 130.701 124.369 130.709 122.628C130.731 118.405 130.886 114.407 131.193 110.201Z" fill="#FF867F"/>
<path opacity="0.1" d="M179.347 108.07C183.373 109.234 193.065 109.748 197.192 109.573C199.076 109.499 200.954 109.285 202.838 109.291C206.067 109.291 209.29 109.962 212.511 109.691C216.672 109.328 220.76 107.386 224.911 107.886C226.95 108.134 228.913 108.959 230.858 109.785C232.803 110.61 234.922 111.542 236.29 113.548C237.559 115.406 238.021 117.909 238.441 120.311C238.676 121.652 238.911 123.038 238.705 124.383C238.312 126.935 236.459 128.663 234.681 129.951C232.568 131.48 230.248 132.795 227.812 132.725C226.366 132.685 224.961 132.155 223.584 131.605C219.64 130.031 215.608 128.25 211.486 128.643C208.603 128.924 205.723 130.273 202.888 129.545C201.221 129.116 199.718 127.995 198.132 127.251C194.27 125.456 184.465 125.932 180.369 126.429C180.607 123.507 180.578 120.562 180.816 117.637C181.001 115.4 181.178 113.082 180.612 110.949C180.258 109.671 180.139 108.976 179.347 108.07Z" fill="black"/>
<path d="M179.611 108.741C183.638 109.905 193.329 110.419 197.456 110.244C199.34 110.17 201.219 109.956 203.103 109.962C206.331 109.962 209.555 110.633 212.776 110.361C216.937 109.999 221.024 108.057 225.175 108.557C227.215 108.805 229.178 109.63 231.123 110.455C233.067 111.281 235.186 112.213 236.555 114.219C237.823 116.077 238.286 118.58 238.706 120.981C238.941 122.323 239.176 123.708 238.97 125.054C238.576 127.606 236.724 129.334 234.946 130.622C232.832 132.151 230.512 133.466 228.076 133.396C226.631 133.356 225.225 132.826 223.849 132.275C219.904 130.702 215.872 128.921 211.75 129.314C208.868 129.595 205.988 130.944 203.153 130.216C201.486 129.787 199.982 128.666 198.397 127.921C194.534 126.127 184.729 126.603 180.634 127.1C180.872 124.178 180.843 121.233 181.08 118.308C181.265 116.071 181.442 113.753 180.877 111.619C180.523 110.341 180.404 109.647 179.611 108.741Z" fill="#FF867F"/>
<path d="M137.63 57.6613C137.012 57.4566 136.774 56.4638 136.217 56.0646C135.659 55.6654 134.962 55.9807 134.56 56.5745C134.187 57.2028 133.985 57.968 133.984 58.7548C133.934 60.4515 134.299 62.1263 135.027 63.5504C135.755 64.9745 136.812 66.0784 138.053 66.7113C137.5 63.6579 137.287 60.5214 137.419 57.3929L137.63 57.6613Z" fill="#FBBEBE"/>
<path d="M176.62 57.6613C177.238 57.4566 177.473 56.4638 178.031 56.0646C178.588 55.6654 179.286 55.9807 179.687 56.5745C180.062 57.2019 180.264 57.9677 180.263 58.7548C180.313 60.4515 179.949 62.1263 179.22 63.5504C178.492 64.9745 177.435 66.0784 176.194 66.7113C176.747 63.6579 176.96 60.5214 176.828 57.3929L176.62 57.6613Z" fill="#FBBEBE"/>
<g opacity="0.1">
<path opacity="0.1" d="M151.294 132.044C151.798 134.382 152.043 136.798 152.021 139.222C152.021 143.439 151.368 147.119 150.396 149.094C150.314 150.034 150.222 150.966 150.132 151.882C151.503 150.54 152.51 146.132 152.51 140.9C152.499 137.324 152.029 134.134 151.294 132.044Z" fill="black"/>
</g>
<path opacity="0.1" d="M172.477 47.1521C171.684 48.5442 170.717 49.9631 169.526 49.9966C167.801 50.0503 166.619 47.2662 165.034 46.2531C161.819 44.2137 158.45 49.7953 154.994 49.0842C152.325 48.5341 150.238 44.2774 147.548 44.6632C145.628 44.9382 144.222 47.5144 143.038 49.8893C142.122 48.1696 141.207 46.4477 140.293 44.7236C139.765 43.7172 139.191 42.9961 138.935 42.2514C138.422 43.8481 139.384 44.6934 140.293 46.4007C141.202 48.1081 142.121 49.8457 143.038 51.5664C144.222 49.1916 145.628 46.6154 147.548 46.3404C150.23 45.9546 152.325 50.2113 154.994 50.7614C158.429 51.4725 161.805 45.8909 165.034 47.9303C166.619 48.9366 167.803 51.7274 169.526 51.6738C170.717 51.6402 171.687 50.2213 172.477 48.8293C173.81 46.4822 174.99 44.0007 176.004 41.4094C175.862 41.2015 175.714 41.0002 175.563 40.8057C174.652 43.0096 173.621 45.1302 172.477 47.1521Z" fill="black"/>
</g>
<defs>
<clipPath id="clip0">
<rect width="290" height="233" fill="white"/>
</clipPath>
</defs>
</svg>
