<svg width="500" height="500" viewBox="0 0 500 500" fill="none" xmlns="http://www.w3.org/2000/svg">
<path d="M60.0002 144.68C58.0002 94.4299 92.7802 69.4399 133.16 79.2399C152.52 83.9399 172 110.24 190.29 118.94C214.15 130.33 237.22 126.67 261.29 130.4C321.21 139.67 316.14 163.84 350.65 203.4C374.91 231.24 420.65 238.15 428.93 279.86C439.02 330.86 382.25 342.78 343.37 327.54C298.72 310.04 275.82 364.96 206.58 344.11C138.47 323.63 62.0002 220.17 60.0002 144.68Z" fill="#FF867F"/>
<path d="M250 427.56C357.083 427.56 443.89 422.492 443.89 416.24C443.89 409.988 357.083 404.92 250 404.92C142.918 404.92 56.1104 409.988 56.1104 416.24C56.1104 422.492 142.918 427.56 250 427.56Z" fill="#43BEA7"/>
<path d="M304.14 273.13C307.6 289.42 289.04 296.31 281.33 289.13C273.62 281.95 274 260 263.6 259.42C278.61 247.8 300.77 257.28 304.14 273.13Z" fill="#43BEA7"/>
<path d="M289 374.76C288.576 374.76 288.166 374.605 287.849 374.322C287.531 374.04 287.329 373.652 287.28 373.23C283.44 340.92 288.28 263.74 327.86 231.38C328.035 231.221 328.24 231.099 328.463 231.022C328.687 230.945 328.923 230.914 329.159 230.931C329.395 230.948 329.624 231.013 329.834 231.122C330.044 231.231 330.229 231.382 330.379 231.565C330.528 231.748 330.639 231.959 330.704 232.186C330.769 232.413 330.788 232.651 330.758 232.886C330.728 233.12 330.651 233.346 330.531 233.55C330.411 233.753 330.251 233.93 330.06 234.07C291.62 265.51 286.96 341.13 290.73 372.82C290.781 373.277 290.65 373.735 290.366 374.096C290.081 374.458 289.666 374.692 289.21 374.75L289 374.76Z" fill="#43BEA7"/>
<path d="M274.899 416.24H303.079C304.025 416.24 304.942 415.919 305.68 415.328C306.418 414.737 306.933 413.913 307.139 412.99L318.899 360.86C319.036 360.25 319.033 359.618 318.892 359.009C318.751 358.4 318.475 357.831 318.084 357.343C317.693 356.855 317.198 356.462 316.635 356.191C316.071 355.921 315.454 355.78 314.829 355.78H263.149C262.525 355.78 261.908 355.92 261.345 356.191C260.782 356.461 260.287 356.855 259.897 357.343C259.507 357.831 259.232 358.401 259.092 359.01C258.952 359.618 258.951 360.251 259.089 360.86L270.839 413C271.05 413.92 271.566 414.741 272.303 415.33C273.041 415.918 273.956 416.239 274.899 416.24Z" fill="#979797"/>
<path d="M301 276.38C300.865 276.378 300.731 276.361 300.6 276.33C300.378 276.278 300.169 276.183 299.985 276.051C299.8 275.918 299.643 275.751 299.524 275.557C299.404 275.364 299.323 275.149 299.286 274.925C299.25 274.701 299.258 274.471 299.31 274.25C299.31 274 304.96 249.41 296.37 234.96C296.135 234.562 296.068 234.088 296.183 233.64C296.298 233.193 296.587 232.81 296.985 232.575C297.382 232.34 297.857 232.273 298.304 232.389C298.752 232.504 299.135 232.792 299.37 233.19C308.71 248.84 303 274 302.73 275C302.646 275.395 302.428 275.749 302.112 276.001C301.797 276.252 301.403 276.387 301 276.38Z" fill="#43BEA7"/>
<path d="M315.62 225.36C314.92 241.06 349 248.55 359.92 241.91C370.84 235.27 363.13 213.91 380.78 213.75C351.27 201.8 316.3 210.08 315.62 225.36Z" fill="#43BEA7"/>
<path d="M307.37 227.65C313.85 240.44 296 248 286.85 243C277.7 238 274.07 220.22 263.31 220.87C276.62 209.9 301.06 215.2 307.37 227.65Z" fill="#43BEA7"/>
<path d="M288 348.35H287.93C287.471 348.329 287.039 348.129 286.727 347.792C286.414 347.455 286.247 347.009 286.26 346.55C286.26 346.29 287.03 320.39 272.48 317.26C272.031 317.163 271.638 316.892 271.389 316.505C271.139 316.119 271.053 315.649 271.15 315.2C271.247 314.75 271.518 314.358 271.905 314.108C272.291 313.859 272.761 313.773 273.21 313.87C290.6 317.6 289.78 345.49 289.73 346.68C289.715 347.128 289.526 347.553 289.203 347.865C288.88 348.176 288.449 348.35 288 348.35Z" fill="#43BEA7"/>
<path d="M283.1 311.3C287.62 319.68 273.76 329.89 266.91 328.3C260.06 326.71 257.91 313.68 249.68 316.82C260.22 305 278.7 303.15 283.1 311.3Z" fill="#43BEA7"/>
<path d="M289.79 323.85C289.664 323.865 289.536 323.865 289.41 323.85C288.962 323.748 288.573 323.473 288.326 323.086C288.079 322.698 287.994 322.23 288.09 321.78C288.35 320.6 294.69 292.83 313.63 285.44C313.845 285.345 314.077 285.295 314.313 285.292C314.548 285.289 314.781 285.334 314.998 285.423C315.216 285.513 315.413 285.646 315.577 285.814C315.742 285.982 315.871 286.182 315.956 286.401C316.041 286.62 316.081 286.854 316.073 287.089C316.065 287.324 316.01 287.555 315.91 287.768C315.811 287.981 315.669 288.172 315.494 288.329C315.318 288.486 315.113 288.605 314.89 288.68C297.66 295.4 291.54 322.26 291.48 322.53C291.388 322.908 291.171 323.244 290.864 323.484C290.558 323.723 290.179 323.852 289.79 323.85Z" fill="#43BEA7"/>
<path d="M310.589 276.32C296.939 283.46 306.149 298.72 316.789 299.32C327.429 299.92 342.089 287.23 350.259 293.25C346.919 277.52 323.889 269.37 310.589 276.32Z" fill="#43BEA7"/>
<path d="M197.77 216.09C197.334 215.767 197.045 215.285 196.964 214.749C196.884 214.213 197.019 213.667 197.34 213.23L283.4 96.1499C283.723 95.7147 284.205 95.4252 284.741 95.3446C285.277 95.264 285.823 95.3989 286.26 95.7199C286.695 96.0429 286.984 96.5252 287.065 97.0611C287.145 97.5971 287.01 98.1431 286.69 98.5799L200.63 215.65C200.475 215.872 200.276 216.06 200.047 216.203C199.817 216.346 199.561 216.441 199.294 216.482C199.026 216.523 198.753 216.509 198.491 216.442C198.229 216.375 197.984 216.255 197.77 216.09Z" fill="#F6725D"/>
<path d="M328.326 147.978L325.134 152.36L325.96 152.962L329.152 148.58L328.326 147.978Z" fill="#F6725D"/>
<path d="M332.569 146L331.739 145.4C332.756 144.012 333.182 142.277 332.924 140.575C332.665 138.874 331.743 137.344 330.359 136.32L308.439 120.21L309.039 119.39L330.999 135.47C331.795 136.058 332.466 136.797 332.976 137.644C333.485 138.492 333.823 139.431 333.969 140.409C334.114 141.388 334.066 142.385 333.826 143.344C333.586 144.303 333.159 145.206 332.569 146Z" fill="#F6725D"/>
<path d="M295.999 183.09L199.999 112.54C199.582 112.233 199.23 111.848 198.962 111.405C198.694 110.962 198.516 110.471 198.438 109.959C198.36 109.447 198.383 108.925 198.507 108.423C198.631 107.92 198.852 107.447 199.159 107.03L227.379 68.6399C227.685 68.2218 228.07 67.8682 228.513 67.5995C228.956 67.3308 229.447 67.1522 229.96 67.0742C230.472 66.9961 230.994 67.0201 231.497 67.1446C232 67.2692 232.473 67.4919 232.889 67.7999L328.889 138.35C329.306 138.656 329.658 139.04 329.926 139.482C330.194 139.924 330.372 140.415 330.45 140.926C330.528 141.437 330.505 141.958 330.381 142.46C330.257 142.961 330.036 143.434 329.729 143.85L301.509 182.25C301.204 182.668 300.818 183.022 300.375 183.29C299.933 183.559 299.441 183.738 298.929 183.816C298.417 183.894 297.894 183.87 297.392 183.745C296.889 183.621 296.416 183.398 295.999 183.09Z" fill="white"/>
<path d="M298.28 184.37C297.334 184.369 296.414 184.068 295.65 183.51L199.65 112.95C199.177 112.605 198.777 112.171 198.473 111.671C198.169 111.171 197.967 110.616 197.879 110.038C197.791 109.46 197.818 108.87 197.959 108.302C198.1 107.734 198.352 107.2 198.7 106.73L226.92 68.3299C227.613 67.3736 228.657 66.7313 229.823 66.5439C230.989 66.3564 232.182 66.6391 233.14 67.3299L329.14 137.89C330.087 138.59 330.72 139.636 330.9 140.8C330.99 141.378 330.965 141.969 330.824 142.538C330.683 143.106 330.43 143.64 330.08 144.11L301.86 182.51C301.16 183.457 300.114 184.09 298.95 184.27C298.729 184.317 298.505 184.351 298.28 184.37ZM296.28 182.68C297 183.206 297.896 183.429 298.779 183.302C299.661 183.175 300.458 182.708 301 182L329.23 143.6C329.767 142.869 329.992 141.955 329.855 141.059C329.718 140.162 329.231 139.357 328.5 138.82L232.5 68.2599C232.139 67.9928 231.728 67.7997 231.292 67.6918C230.856 67.5839 230.402 67.5633 229.958 67.6312C229.514 67.699 229.088 67.854 228.704 68.0871C228.319 68.3203 227.985 68.6271 227.72 68.9899L199.49 107.39C198.953 108.12 198.726 109.033 198.86 109.93C198.926 110.375 199.081 110.802 199.314 111.187C199.548 111.572 199.856 111.906 200.22 112.17L296.28 182.68Z" fill="#F6725D"/>
<path d="M218.369 96.4297L223.089 99.4297C222.693 100.064 222.473 100.792 222.449 101.54C222.47 102.034 222.609 102.516 222.855 102.946C223.1 103.376 223.444 103.74 223.859 104.01C224.394 104.457 225.073 104.695 225.769 104.68C226.034 104.672 226.294 104.605 226.529 104.484C226.764 104.363 226.97 104.191 227.129 103.98C227.276 103.771 227.375 103.534 227.419 103.283C227.464 103.033 227.454 102.776 227.389 102.53C227.001 101.521 226.397 100.61 225.619 99.8597C224.208 98.4125 223.153 96.656 222.539 94.7297C222.368 94.0429 222.354 93.3261 222.5 92.6332C222.645 91.9403 222.946 91.2895 223.379 90.7297C223.969 89.9391 224.78 89.3407 225.709 89.0097C226.78 88.6721 227.927 88.6686 228.999 88.9997C230.536 89.4293 231.968 90.1677 233.209 91.1697C234.854 92.2199 236.139 93.7483 236.889 95.5497C237.125 96.3591 237.183 97.2099 237.059 98.0436C236.934 98.8774 236.631 99.6743 236.169 100.38L231.509 97.3797C231.706 97.085 231.84 96.7532 231.903 96.4047C231.966 96.0561 231.957 95.6983 231.877 95.3534C231.796 95.0085 231.646 94.6838 231.435 94.3994C231.223 94.1149 230.956 93.8768 230.649 93.6997C230.228 93.3389 229.694 93.1372 229.139 93.1297C228.942 93.14 228.75 93.1949 228.576 93.2901C228.403 93.3854 228.254 93.5186 228.139 93.6797C228.045 93.8091 227.983 93.9593 227.959 94.1177C227.934 94.276 227.948 94.4379 227.999 94.5897C228.254 95.2472 228.654 95.8386 229.169 96.3197C230.503 97.7201 231.664 99.2744 232.629 100.95C233.154 101.906 233.397 102.991 233.329 104.08C233.238 105.066 232.874 106.008 232.279 106.8C231.573 107.773 230.591 108.512 229.459 108.92C228.287 109.351 227.013 109.424 225.799 109.13C224.279 108.741 222.859 108.035 221.629 107.06C219.019 105.15 217.629 103.32 217.319 101.58C217.029 99.7925 217.403 97.9608 218.369 96.4297Z" fill="#263238"/>
<path d="M235.999 105.38C236.677 104.235 237.6 103.254 238.702 102.509C239.805 101.764 241.058 101.272 242.373 101.069C243.688 100.866 245.032 100.958 246.307 101.336C247.583 101.715 248.758 102.372 249.749 103.26C252.303 105.14 253.766 107.27 254.139 109.65C254.292 110.947 254.178 112.262 253.805 113.514C253.432 114.766 252.807 115.928 251.969 116.93C250.912 118.496 249.492 119.783 247.829 120.68C246.41 121.377 244.817 121.638 243.249 121.43C241.424 121.15 239.701 120.402 238.249 119.26C236.735 118.223 235.477 116.855 234.569 115.26C233.83 113.833 233.537 112.216 233.729 110.62C233.999 108.7 234.783 106.89 235.999 105.38ZM240.719 108.88C239.742 109.989 239.18 111.403 239.129 112.88C239.191 113.425 239.363 113.951 239.636 114.427C239.909 114.902 240.277 115.316 240.717 115.643C241.156 115.971 241.659 116.204 242.193 116.329C242.726 116.454 243.28 116.468 243.819 116.37C244.869 116.12 246.019 115.13 247.279 113.37C248.204 112.315 248.719 110.963 248.729 109.56C248.679 109.011 248.507 108.479 248.225 108.005C247.943 107.531 247.558 107.126 247.099 106.82C246.68 106.493 246.194 106.264 245.675 106.148C245.156 106.032 244.618 106.033 244.099 106.15C242.678 106.632 241.471 107.598 240.689 108.88H240.719Z" fill="#263238"/>
<path d="M248.84 126.64L260.11 111.3L268 117.11C269.163 117.897 270.201 118.854 271.08 119.95C271.666 120.751 271.966 121.727 271.93 122.72C271.855 123.739 271.512 124.721 270.936 125.565C270.36 126.41 269.571 127.087 268.65 127.53C267.832 127.884 266.936 128.022 266.05 127.93C265.32 127.834 264.608 127.628 263.94 127.32C264.285 127.766 264.561 128.262 264.76 128.79C264.868 129.235 264.925 129.691 264.93 130.15C264.971 130.629 264.971 131.111 264.93 131.59L263.93 137.72L258.58 133.79L259.49 127.24C259.613 126.643 259.613 126.027 259.49 125.43C259.322 124.943 259.007 124.521 258.59 124.22L258.17 123.91L253.6 130.13L248.84 126.64ZM260.3 121L262.3 122.47C262.746 122.754 263.218 122.995 263.71 123.19C264.061 123.351 264.459 123.379 264.83 123.27C265.273 123.129 265.651 122.833 265.893 122.436C266.136 122.04 266.227 121.568 266.15 121.11C265.854 120.4 265.335 119.806 264.67 119.42L262.59 117.89L260.3 121Z" fill="#263238"/>
<path d="M265.5 138.88L276.77 123.55L284.66 129.35C285.822 130.142 286.86 131.103 287.74 132.2C288.324 133.003 288.623 133.978 288.59 134.97C288.536 136.061 288.144 137.11 287.47 137.97C286.928 138.756 286.181 139.378 285.31 139.77C284.491 140.12 283.597 140.257 282.71 140.17C281.979 140.075 281.267 139.865 280.6 139.55C280.941 139.999 281.217 140.494 281.42 141.02C281.528 141.469 281.585 141.928 281.59 142.39C281.631 142.869 281.631 143.351 281.59 143.83L280.59 149.96L275.23 146L276.14 139.46C276.263 138.859 276.263 138.24 276.14 137.64C275.969 137.155 275.655 136.733 275.24 136.43L274.82 136.13L270.25 142.35L265.5 138.88ZM277 133.26L279 134.73C279.445 135.013 279.917 135.251 280.41 135.44C280.759 135.609 281.159 135.641 281.53 135.53C281.911 135.416 282.245 135.18 282.48 134.86C282.65 134.655 282.771 134.415 282.835 134.157C282.899 133.899 282.904 133.63 282.85 133.37C282.556 132.657 282.036 132.06 281.37 131.67L279.29 130.14L277 133.26Z" fill="#263238"/>
<path d="M290.9 133.94L296.16 137.8L295.44 145.25L302.34 142.35L307.58 146.2L295.07 150.73L290.35 157.15L285.6 153.66L290.32 147.24L290.9 133.94Z" fill="#263238"/>
<path d="M308.83 147.12L313.38 150.46L310.81 153.96L304.81 160.33L302 158.26L306.3 150.61L308.83 147.12ZM300.48 158.81L304.72 161.93L302 165.69L297.76 162.57L300.48 158.81Z" fill="#263238"/>
<path d="M223.45 146.34C223.84 147.18 224.1 147.78 224.39 148.48C224.68 149.18 224.93 149.83 225.19 150.48C225.71 151.82 226.19 153.18 226.59 154.54C227.444 157.267 228.152 160.037 228.71 162.84C229.01 164.24 229.24 165.66 229.47 167.08C229.7 168.5 229.85 169.95 229.96 171.4C230.219 174.326 230.282 177.266 230.15 180.2V180.7C230.14 181.021 230.093 181.34 230.01 181.65C229.492 183.63 228.632 185.505 227.47 187.19C226.565 188.519 225.562 189.779 224.47 190.96C222.526 193.084 220.424 195.056 218.18 196.86C216.02 198.61 213.81 200.23 211.55 201.74C209.288 203.256 206.952 204.658 204.55 205.94C203.749 206.37 202.821 206.501 201.932 206.31C201.044 206.118 200.252 205.617 199.699 204.896C199.146 204.174 198.867 203.279 198.913 202.372C198.959 201.464 199.327 200.602 199.95 199.94L200.03 199.85L205.21 194.26C206.92 192.38 208.6 190.51 210.21 188.62C211.743 186.822 213.178 184.942 214.51 182.99C215.084 182.154 215.592 181.275 216.03 180.36C216.313 179.858 216.49 179.303 216.55 178.73L216.4 180.19C216.2 177.87 215.96 175.55 215.53 173.19C215.1 170.83 214.62 168.51 214 166.19C213.38 163.87 212.72 161.52 212 159.19C211.62 158.04 211.21 156.9 210.82 155.77L210.2 154.1L209.62 152.58L209.47 152.19C208.789 150.344 208.846 148.307 209.629 146.503C210.412 144.698 211.861 143.266 213.674 142.503C215.487 141.74 217.525 141.706 219.363 142.407C221.2 143.109 222.696 144.493 223.54 146.27L223.45 146.34Z" fill="#F9B090"/>
<path d="M173.74 89.1998C167.27 95.3998 168.08 125.71 170.74 154.55C173.4 183.39 197.83 178.62 206.9 166.12C218.9 149.5 205.4 124.62 207.34 114.82C209.45 104.17 211.03 92.1198 198.25 84.8198C184.37 76.8698 172.34 82.8698 173.74 89.1998Z" fill="#263238"/>
<path d="M169.179 157.29H169.129C168.985 157.275 168.853 157.203 168.761 157.091C168.669 156.978 168.625 156.834 168.639 156.69C169.449 148.69 168.709 138.28 167.999 128.22C166.659 109.32 165.389 91.4599 173.879 88.6799C173.948 88.6566 174.02 88.6472 174.092 88.6522C174.164 88.6573 174.234 88.6767 174.298 88.7093C174.363 88.7419 174.42 88.7871 174.466 88.8421C174.513 88.8972 174.548 88.961 174.569 89.0299C174.614 89.1678 174.602 89.3176 174.536 89.4468C174.471 89.576 174.357 89.6741 174.219 89.7199C166.549 92.2299 167.839 110.49 169.089 128.15C169.809 138.25 170.549 148.69 169.729 156.8C169.715 156.935 169.65 157.06 169.549 157.151C169.447 157.241 169.315 157.291 169.179 157.29Z" fill="#263238"/>
<path d="M181.16 150.83L178.69 157.83C177.86 160.2 177.08 162.57 176.31 164.93C175.54 167.29 174.84 169.65 174.2 171.93C173.56 174.21 173.02 176.56 172.63 178.76V177.62C172.581 178.859 172.747 180.097 173.12 181.28C173.34 181.95 173.6 182.64 173.91 183.36C174.22 184.08 174.63 184.77 175.05 185.5C175.944 187.007 176.946 188.448 178.05 189.81C178.62 190.52 179.22 191.23 179.85 191.92L181.68 193.92L182.08 194.35C182.658 194.991 183.002 195.809 183.055 196.671C183.108 197.532 182.866 198.387 182.37 199.093C181.874 199.8 181.152 200.317 180.324 200.56C179.495 200.802 178.609 200.757 177.81 200.43C177.15 200.15 176.67 199.96 176.13 199.71C175.59 199.46 175.13 199.22 174.58 198.95C173.573 198.416 172.573 197.836 171.58 197.21C169.593 195.919 167.743 194.428 166.06 192.76C164.238 190.943 162.677 188.884 161.42 186.64C160.758 185.41 160.196 184.129 159.74 182.81C159.264 181.41 158.929 179.966 158.74 178.5C158.725 178.333 158.725 178.166 158.74 178V177.36C159.145 171.716 160.103 166.126 161.6 160.67C162.28 158.02 163.09 155.42 163.93 152.84C164.77 150.26 165.68 147.78 166.79 145.14C167.545 143.289 168.996 141.809 170.83 141.015C172.665 140.222 174.738 140.179 176.603 140.896C178.469 141.613 179.98 143.033 180.811 144.851C181.642 146.668 181.728 148.74 181.05 150.62L181.16 150.83Z" fill="#F9B090"/>
<path d="M178 135.78C170 137.29 168.33 140.55 162.46 152.66C164.23 160.66 175.37 167.66 175.37 167.66C175.37 167.66 191.12 146.09 178 135.78Z" fill="#F6725D"/>
<path d="M165.32 150.87C165.19 155.12 165.61 160.26 166.56 170.37C167.21 178.94 165.07 195.23 167.77 196.37H211C211.87 184.1 211.55 175.65 219.31 148.26C219.768 146.828 219.899 145.311 219.695 143.822C219.49 142.332 218.955 140.907 218.129 139.651C217.302 138.395 216.205 137.34 214.918 136.563C213.631 135.786 212.186 135.306 210.69 135.16C208.97 134.99 207.16 134.84 205.29 134.75C198.758 134.285 192.202 134.285 185.67 134.75C183.54 134.95 181.33 135.22 179.21 135.51C175.472 136.061 172.042 137.894 169.508 140.697C166.974 143.499 165.493 147.096 165.32 150.87Z" fill="#C50E29"/>
<path d="M184.999 145.33C184.779 146.14 184.299 146.71 183.999 146.61C183.699 146.51 183.539 145.78 183.769 144.97C183.999 144.16 184.459 143.6 184.819 143.7C185.179 143.8 185.239 144.53 184.999 145.33Z" fill="white"/>
<path d="M183.42 152C183.31 152.83 182.93 153.47 182.57 153.42C182.21 153.37 181.99 152.67 182.09 151.84C182.19 151.01 182.57 150.37 182.94 150.42C183.31 150.47 183.52 151.18 183.42 152Z" fill="white"/>
<path d="M201.13 113.39C200.94 119.92 200.13 130.59 204.21 134.8C204.21 134.8 198.21 133.91 185.53 141.8C181.85 136.52 184.58 134.8 184.58 134.8C188.2 134.14 191.36 130.46 189.38 125.89L201.13 113.39Z" fill="#F9B090"/>
<path d="M188.199 140.18C192.379 140.77 193.689 147.09 193.689 147.09C193.689 147.09 203.689 139.98 206.919 134.97C205.656 134.259 204.431 133.481 203.249 132.64C203.249 132.64 190.639 137.76 188.199 140.18Z" fill="white"/>
<path d="M184.22 139.5C184.22 139.5 180.9 140.22 179.22 144.84C178.22 135.63 182.63 134.78 182.63 134.78C183.781 134.143 185.126 133.951 186.41 134.24C185.49 134.725 184.768 135.515 184.368 136.476C183.968 137.436 183.916 138.505 184.22 139.5Z" fill="white"/>
<path opacity="0.2" d="M193.78 122L192.13 123L189.38 125.92C190.091 127.41 190.188 129.119 189.65 130.68C192.78 129.46 195.94 127.01 196.78 124.36V124.3C196.911 123.905 196.916 123.48 196.794 123.082C196.672 122.684 196.429 122.335 196.099 122.082C195.769 121.829 195.368 121.685 194.952 121.67C194.537 121.656 194.127 121.771 193.78 122Z" fill="black"/>
<path d="M199 98.08C202 108 203.5 112.08 200.6 119.15C196.25 129.72 183.79 131.84 177.96 123.15C172.72 115.33 168.66 100.41 176.42 92.57C184.18 84.73 196 88.15 199 98.08Z" fill="#F9B090"/>
<path d="M185.499 107.06C185.789 107.88 185.609 108.72 185.099 108.94C184.589 109.16 183.939 108.67 183.649 107.85C183.359 107.03 183.539 106.18 184.049 105.96C184.559 105.74 185.209 106.23 185.499 107.06Z" fill="#263238"/>
<path d="M175.999 111.33C176.289 112.15 176.109 113 175.599 113.22C175.089 113.44 174.449 112.95 174.159 112.12C173.869 111.29 174.049 110.46 174.559 110.24C175.069 110.02 175.689 110.51 175.999 111.33Z" fill="#263238"/>
<path d="M174.78 110.19L172.71 110.42C172.71 110.42 174.21 111.55 174.78 110.19Z" fill="#263238"/>
<path d="M178.78 110.86C178.743 113.041 178.431 115.208 177.85 117.31C179.24 117.88 180.85 116.66 180.85 116.66L178.78 110.86Z" fill="#A02724"/>
<path d="M185.319 116.78C185.79 116.687 186.269 116.637 186.749 116.63C186.782 116.63 186.814 116.636 186.843 116.649C186.873 116.662 186.9 116.68 186.923 116.704C186.945 116.727 186.962 116.755 186.974 116.785C186.985 116.815 186.991 116.848 186.989 116.88C186.984 116.949 186.954 117.014 186.904 117.062C186.854 117.11 186.788 117.138 186.719 117.14C185.636 117.154 184.569 117.411 183.598 117.892C182.627 118.373 181.777 119.066 181.109 119.92C181.092 119.946 181.069 119.969 181.042 119.986C181.016 120.004 180.986 120.016 180.955 120.022C180.924 120.028 180.892 120.028 180.861 120.021C180.83 120.015 180.801 120.003 180.774 119.985C180.748 119.967 180.725 119.944 180.708 119.918C180.691 119.892 180.678 119.862 180.672 119.831C180.666 119.8 180.667 119.768 180.673 119.737C180.679 119.706 180.692 119.676 180.709 119.65C181.836 118.154 183.479 117.131 185.319 116.78Z" fill="#263238"/>
<path d="M204.15 104.58C204.209 105.568 204.062 106.558 203.717 107.486C203.373 108.413 202.839 109.26 202.15 109.97C200.36 111.64 198.15 109.72 197.58 106.97C197.06 104.47 197.37 100.6 199.69 100.03C202.01 99.46 204.08 101.91 204.15 104.58Z" fill="#FFB573"/>
<path d="M191 88.2999C183.5 96.3599 193.56 115.44 192.53 129.16C191.28 145.98 201.59 148.45 208.08 134.98C203.25 122.24 208.24 103.16 206.94 96.4699C205.43 88.7999 196.33 84.5599 191 88.2999Z" fill="#263238"/>
<path d="M181.29 100.35C181.356 100.341 181.423 100.346 181.487 100.365C181.55 100.384 181.609 100.416 181.66 100.46C182.112 100.879 182.661 101.179 183.258 101.333C183.855 101.487 184.481 101.489 185.08 101.34C185.141 101.32 185.205 101.313 185.269 101.319C185.333 101.325 185.395 101.344 185.451 101.375C185.507 101.406 185.557 101.448 185.596 101.499C185.635 101.55 185.664 101.608 185.68 101.67C185.71 101.804 185.689 101.943 185.623 102.063C185.557 102.183 185.449 102.274 185.32 102.32C184.565 102.52 183.771 102.526 183.013 102.339C182.255 102.152 181.555 101.778 180.98 101.25C180.91 101.18 180.861 101.091 180.839 100.995C180.816 100.898 180.822 100.797 180.854 100.703C180.886 100.61 180.944 100.527 181.021 100.464C181.098 100.402 181.191 100.362 181.29 100.35Z" fill="#263238"/>
<path d="M171.42 108.57C171.361 108.594 171.298 108.607 171.235 108.607C171.171 108.607 171.108 108.594 171.05 108.57C170.927 108.517 170.83 108.419 170.778 108.296C170.726 108.173 170.723 108.035 170.77 107.91C171.027 107.132 171.459 106.424 172.032 105.84C172.606 105.256 173.307 104.811 174.08 104.54C174.142 104.522 174.208 104.518 174.272 104.527C174.336 104.537 174.398 104.56 174.453 104.595C174.507 104.63 174.554 104.676 174.59 104.73C174.626 104.784 174.649 104.846 174.66 104.91C174.69 105.044 174.668 105.184 174.597 105.302C174.526 105.419 174.412 105.505 174.28 105.54C173.672 105.766 173.124 106.126 172.675 106.594C172.227 107.061 171.89 107.624 171.69 108.24C171.67 108.311 171.636 108.377 171.589 108.433C171.543 108.49 171.485 108.537 171.42 108.57Z" fill="#263238"/>
<path d="M184.29 105.91L182.22 106.15C182.22 106.15 183.72 107.28 184.29 105.91Z" fill="#263238"/>
<path d="M211.08 135.26C218.08 136.35 220.93 138.49 226.68 152.63C224.07 157.9 212.39 171.25 212.39 171.25C212.39 171.25 202.28 145.56 211.08 135.26Z" fill="#C50E29"/>
<path d="M218.319 409C222.499 402.33 222.689 400.49 225.409 397C227.729 394 227.739 394.23 230.589 391.65C232.479 389.94 230.919 387.49 228.859 386.45C227.249 385.65 225.499 384.94 223.559 383.87L216.139 390.6C217.429 394.43 216.709 402.4 213.889 407.69C211.879 411.46 216.649 411.66 218.319 409Z" fill="#263238"/>
<path d="M167.77 196.42C167.77 196.42 166.77 250.33 165.54 287.11C165.308 294.483 166.909 301.798 170.2 308.4C183.2 334.5 215.6 391.23 215.6 391.23C216.9 392.37 223.1 385.69 223.6 383.85C223.6 383.85 205.98 312.16 190.36 296.1C211.12 238.65 205.48 196.42 205.48 196.42H167.77Z" fill="#263238"/>
<g opacity="0.2">
<path opacity="0.2" d="M205.62 198L185.25 199.44C185.25 199.44 188.57 258.65 191.81 291.85C208.59 243 206.36 206 205.62 198Z" fill="black"/>
<path opacity="0.2" d="M192.5 298.67C194.32 315.67 196.2 337.85 197.05 358.31C203.73 370.31 209.72 380.88 212.99 386.63C214.58 379.5 216.28 370.99 217.64 361.97C211.62 341.11 201.87 311.1 192.5 298.67Z" fill="black"/>
</g>
<path d="M211.62 388.43C212.35 389.35 213.62 390.99 214.56 392.25C214.714 392.436 214.931 392.56 215.17 392.599C215.409 392.638 215.654 392.588 215.86 392.46C219.007 389.987 221.92 387.229 224.56 384.22C224.687 384.073 224.767 383.891 224.786 383.697C224.806 383.504 224.765 383.309 224.67 383.14L222.55 379.37C222.481 379.251 222.387 379.148 222.274 379.069C222.162 378.99 222.033 378.937 221.898 378.913C221.763 378.889 221.624 378.895 221.491 378.931C221.358 378.967 221.235 379.031 221.13 379.12L211.74 387.12C211.646 387.198 211.568 387.294 211.511 387.402C211.454 387.51 211.419 387.628 211.408 387.75C211.397 387.872 211.41 387.994 211.446 388.111C211.483 388.228 211.541 388.336 211.62 388.43Z" fill="#F6725D"/>
<path opacity="0.3" d="M211.62 388.43C212.35 389.35 213.62 390.99 214.56 392.25C214.714 392.436 214.931 392.56 215.17 392.599C215.409 392.638 215.654 392.588 215.86 392.46C219.007 389.987 221.92 387.229 224.56 384.22C224.687 384.073 224.767 383.891 224.786 383.697C224.806 383.504 224.765 383.309 224.67 383.14L222.55 379.37C222.481 379.251 222.387 379.148 222.274 379.069C222.162 378.99 222.033 378.937 221.898 378.913C221.763 378.889 221.624 378.895 221.491 378.931C221.358 378.967 221.235 379.031 221.13 379.12L211.74 387.12C211.646 387.198 211.568 387.294 211.511 387.402C211.454 387.51 211.419 387.628 211.408 387.75C211.397 387.872 211.41 387.994 211.446 388.111C211.483 388.228 211.541 388.336 211.62 388.43Z" fill="white"/>
<path d="M191.4 416.23C199.4 416.23 202.46 416.1 206.98 415.95C210.84 415.82 211.72 416.3 214.82 416.23C217.41 416.17 217.54 413.7 217 410.85C216.73 409.42 216.27 407.67 215.93 405.36H203.77C201.83 408.51 194.71 410.88 190.14 411.48C185.79 412.06 188.21 416.23 191.4 416.23Z" fill="#263238"/>
<path d="M179.069 196.42C179.069 196.42 191.639 265.65 196.249 297C201.089 330 207.049 383.44 203.769 405.33C205.549 406.42 212.129 406.49 215.929 405.33C215.929 405.33 232.679 333.46 219.099 298.46C228.229 221.34 214.719 217.32 210.989 196.39L179.069 196.42Z" fill="#263238"/>
<path d="M203.269 400.8C203.097 402.317 202.82 403.821 202.439 405.3C202.4 405.417 202.387 405.541 202.401 405.664C202.415 405.787 202.456 405.905 202.521 406.01C202.586 406.115 202.673 406.204 202.777 406.272C202.88 406.339 202.997 406.383 203.119 406.4C207.509 407.12 214.039 406.08 216.119 405.72C216.319 405.688 216.504 405.597 216.65 405.457C216.797 405.318 216.898 405.138 216.939 404.94L217.989 400.74C218.028 400.611 218.035 400.474 218.009 400.341C217.984 400.208 217.928 400.083 217.844 399.977C217.761 399.87 217.654 399.785 217.531 399.728C217.409 399.671 217.274 399.645 217.139 399.65L204.269 399.9C204.021 399.899 203.78 399.99 203.595 400.157C203.411 400.323 203.294 400.553 203.269 400.8Z" fill="#F6725D"/>
<path opacity="0.3" d="M203.269 400.8C203.097 402.317 202.82 403.821 202.439 405.3C202.4 405.417 202.387 405.541 202.401 405.664C202.415 405.787 202.456 405.905 202.521 406.01C202.586 406.115 202.673 406.204 202.777 406.272C202.88 406.339 202.997 406.383 203.119 406.4C207.509 407.12 214.039 406.08 216.119 405.72C216.319 405.688 216.504 405.597 216.65 405.457C216.797 405.318 216.898 405.138 216.939 404.94L217.989 400.74C218.028 400.611 218.035 400.474 218.009 400.341C217.984 400.208 217.928 400.083 217.844 399.977C217.761 399.87 217.654 399.785 217.531 399.728C217.409 399.671 217.274 399.645 217.139 399.65L204.269 399.9C204.021 399.899 203.78 399.99 203.595 400.157C203.411 400.323 203.294 400.553 203.269 400.8Z" fill="white"/>
<path d="M190.84 86.7797C199.35 99.0997 175.84 94.6697 170.72 106.25C170.74 94.6697 171.7 85.7297 190.84 86.7797Z" fill="#263238"/>
<path d="M210.999 196.42C198.589 199.04 172.719 205.06 167.779 196.42C170.999 194.21 203.819 194.61 210.999 196.42Z" fill="#C50E29"/>
<path d="M181.34 203.2C180.52 203.2 179.75 203.2 179.05 203.14C170.97 202.72 168.66 200.24 168.57 200.14C168.544 200.116 168.523 200.086 168.509 200.054C168.495 200.021 168.487 199.986 168.487 199.95C168.487 199.914 168.495 199.879 168.509 199.846C168.523 199.814 168.544 199.784 168.57 199.76C168.62 199.71 168.689 199.682 168.76 199.682C168.831 199.682 168.899 199.71 168.95 199.76C168.95 199.76 171.25 202.17 179.06 202.59C186.87 203.01 204.66 200.81 210.06 198.29C210.127 198.261 210.202 198.259 210.27 198.283C210.339 198.307 210.396 198.356 210.43 198.42C210.458 198.488 210.459 198.564 210.433 198.633C210.407 198.701 210.356 198.758 210.29 198.79C205.22 201.18 190.11 203.2 181.34 203.2Z" fill="white"/>
<path d="M178.379 222.74C178.11 222.73 177.851 222.636 177.639 222.47C173.639 219.65 177.429 205.86 179.559 202.1C179.589 202.049 179.634 202.009 179.688 201.985C179.742 201.961 179.802 201.955 179.859 201.967C179.917 201.979 179.969 202.009 180.008 202.053C180.048 202.096 180.073 202.151 180.079 202.21C180.229 204.14 181.509 221.09 178.859 222.61C178.714 222.695 178.548 222.74 178.379 222.74ZM179.599 203.23C177.499 207.82 174.599 219.7 177.949 222.02C178.289 222.26 178.479 222.2 178.589 222.14C180.289 221.16 180.139 210.65 179.599 203.23Z" fill="white"/>
<path d="M182.61 219.47C182.401 219.463 182.194 219.419 182 219.34C177.38 217.52 178.38 206.17 179.54 202.16C179.557 202.106 179.59 202.058 179.635 202.022C179.679 201.987 179.733 201.965 179.79 201.96C179.848 201.961 179.904 201.978 179.951 202.01C179.999 202.042 180.037 202.087 180.06 202.14C180.61 203.68 185.37 217.2 183.32 219.19C183.13 219.373 182.874 219.474 182.61 219.47ZM179.84 203.17C178.77 207.82 178.36 217.32 182.2 218.83C182.7 219.03 182.88 218.83 182.94 218.83C184.24 217.54 181.9 209.07 179.84 203.17Z" fill="white"/>
<path d="M175.389 212.77C175.324 212.77 175.261 212.748 175.211 212.705C175.161 212.663 175.129 212.604 175.119 212.54C174.639 209.47 177.599 202.66 179.719 201.98C179.753 201.967 179.788 201.962 179.824 201.964C179.859 201.966 179.894 201.975 179.926 201.991C179.958 202.007 179.986 202.029 180.009 202.056C180.032 202.084 180.049 202.116 180.059 202.15C180.082 202.219 180.077 202.294 180.045 202.359C180.013 202.424 179.957 202.475 179.889 202.5C178.029 203.09 175.229 209.7 175.659 212.5C175.668 212.571 175.649 212.643 175.606 212.701C175.563 212.758 175.5 212.797 175.429 212.81L175.389 212.77Z" fill="white"/>
</svg>
